<?xml version="1.0" encoding="UTF-8"?>
<svg width="18px" height="21px" viewBox="0 0 18 21" version="1.1" xmlns="http://www.w3.org/2000/svg" xmlns:xlink="http://www.w3.org/1999/xlink">
   
    <desc>Created with Sketch.</desc>
    <g id="页面-1" stroke="none" stroke-width="1" fill="none" fill-rule="evenodd">
        <g id="1.1首页未选中" transform="translate(-331.000000, -2533.000000)" fill="#999999">
            <g id="编组-3" transform="translate(331.000000, 2533.000000)">
                <path d="M8.9996154,0.954975117 C6.21661493,0.954975117 3.95480893,3.21827796 3.95480893,5.99993385 C3.95480893,8.78169963 6.21804346,11.0448926 8.9996154,11.0448926 C11.7811873,11.0448926 14.0442021,8.78191941 14.0442021,5.99993385 C14.0442021,3.21794828 11.781517,0.954975117 8.9996154,0.954975117 M8.9996154,11.9999752 C5.68608005,11.9998402 3,9.31356921 3,5.99982396 C3,4.40861085 3.63207055,2.88256276 4.75720447,1.75739487 C7.10032691,-0.585798291 10.8994533,-0.585798291 13.2425758,1.75739487 C15.5858081,4.10058804 15.5858081,7.89982911 13.2425758,10.2430223 C12.1197495,11.3719264 10.5917695,12.0045655 8.9996154,11.9999752" id="Fill-1"></path>
                <path d="M17.5721485,20.9989101 C17.3359247,20.9989101 17.1443067,20.7869187 17.1443067,20.5252264 C17.1443067,18.238335 16.2995529,16.0871399 14.7661165,14.4673947 C13.2268706,12.840674 11.1792363,11.9476943 8.9998523,11.9476943 C6.82056678,11.9476943 4.77293248,12.840674 3.23388347,14.4671768 C1.70044712,16.0869219 0.855693347,18.238335 0.855693347,20.5264254 C0.855693347,20.7878996 0.664173812,21 0.427949975,21 C0.19162767,21 0,20.7878996 0,20.5264254 C-0.00176274881,19.2460844 0.240172211,17.9798036 0.710256662,16.8098726 C1.16832806,15.6695877 1.8252056,14.6406936 2.64317618,13.7819377 C3.47119045,12.9082497 4.44198279,12.217016 5.50366074,11.7455122 C7.74803336,10.7514959 10.2517697,10.7514959 12.4960439,11.7455122 C13.5577218,12.217016 14.5286126,12.9082497 15.3566269,13.7819377 C16.1746959,14.6406936 16.8315735,15.6695877 17.2895464,16.8098726 C17.7596309,17.9796946 18.0017628,19.2460844 18,20.5264254 C17.999498,20.7875726 17.8080769,20.9989101 17.5721485,20.9989101" id="Fill-3"></path>
            </g>
        </g>
    </g>
</svg>