<?xml version="1.0" encoding="UTF-8"?>
<svg width="50px" height="50px" viewBox="0 0 50 50" version="1.1" xmlns="http://www.w3.org/2000/svg" xmlns:xlink="http://www.w3.org/1999/xlink">
    <!-- Generator: Sketch 63.1 (92452) - https://sketch.com -->
    <title>矩形</title>
    <desc>Created with Sketch.</desc>
    <g id="页面-1" stroke="none" stroke-width="1" fill="none" fill-rule="evenodd">
        <g id="榜单页面-极限状态备份" transform="translate(-656.000000, -885.000000)">
            <g id="编组-3" transform="translate(28.000000, 732.000000)">
                <g id="编组-5备份-2">
                    <g id="编组-4" transform="translate(628.000000, 153.000000)">
                        <g id="编组" transform="translate(10.615385, 8.692308)">
                            <path d="M18.3876144,30.7307692 L0,30.7307692 L0,17.2346154 C0,13.589536 2.95492065,10.6346154 6.6,10.6346154 L29.673077,10.6346154 L29.673077,10.6346154 L29.673077,19.1820205" id="路径" stroke="#000000" stroke-width="4"></path>
                            <rect id="矩形" fill="#000000" x="20.3846154" y="25.8076923" width="13" height="4"></rect>
                            <rect id="矩形" fill="#000000" transform="translate(26.884615, 27.807692) rotate(-270.000000) translate(-26.884615, -27.807692) " x="20.3846154" y="25.8076923" width="13" height="4"></rect>
                            <path d="M8.46153846,18.567308 L8.46153846,6.52364876 C8.46153846,2.92073704 11.3157232,-1.58095759e-13 14.8365385,-1.58095759e-13 C18.3573537,-1.58095759e-13 21.2115385,2.92073704 21.2115385,6.52364876 L21.2115385,18.567308" id="路径" stroke="#000000" stroke-width="4"></path>
                        </g>
                    </g>
                </g>
            </g>
        </g>
    </g>
</svg>