<?xml version="1.0" encoding="UTF-8"?>
<svg width="27px" height="32px" viewBox="0 0 27 32" version="1.1" xmlns="http://www.w3.org/2000/svg" xmlns:xlink="http://www.w3.org/1999/xlink">
    
    <desc>Created with Sketch.</desc>
    <g id="页面-1" stroke="none" stroke-width="1" fill="none" fill-rule="evenodd">
        <g id="pc底部信息栏新增" transform="translate(-1491.000000, -516.000000)" fill="#000000" fill-rule="nonzero">
            <g id="安卓" transform="translate(1491.000000, 516.000000)">
                <path d="M17.5564865,6.71328672 L17.5564865,5.33999334 L16.2259579,5.33999334 L16.2259579,6.71328672 L17.5564865,6.71328672 Z M10.7740361,6.71328672 L10.7740361,5.33999334 L9.44350751,5.33999334 L9.44350751,6.71328672 L10.7740361,6.71328672 Z M18.2542027,2.90376291 C20.4933848,4.48529249 21.6129759,6.62892664 21.6129759,9.33466534 L5.38701806,9.33466534 C5.38701806,6.58719059 6.48587599,4.44355645 8.68359184,2.90376291 L6.90820161,1.15484516 C6.57016082,0.821844823 6.57016082,0.50971251 6.90820161,0.218448219 C7.2462424,-0.0728160729 7.5630993,-0.0728160729 7.85877232,0.218448219 L9.88701806,2.21645022 C10.985875,1.63392164 12.1902016,1.34265734 13.499997,1.34265734 C14.7674246,1.34265734 15.9505674,1.63392164 17.0494253,2.21645022 L19.07767,0.218448219 C19.4157108,-0.0728160729 19.7325677,-0.0728160729 20.0282408,0.218448219 C20.3239138,0.50971251 20.3239138,0.821844823 20.0282408,1.15484516 L18.2542027,2.90376291 Z M24.9717492,10.7092877 C25.5207275,10.7092877 25.9962382,10.9068709 26.3982814,11.3020313 C26.8003245,11.6971917 27.0008954,12.1656122 26.999997,12.7072927 L26.999997,22.00999 C26.999997,22.5925186 26.7994231,23.0711511 26.3982814,23.4458875 C25.9971396,23.8206238 25.5216289,24.007992 24.9717492,24.007992 C24.4218695,24.007992 23.9463588,23.8206238 23.5452171,23.4458875 C23.1440754,23.0711511 22.9435045,22.5925186 22.9435045,22.00999 L22.9435045,12.7072927 C22.9435045,12.1665002 23.1440754,11.6980797 23.5452171,11.3020313 C23.9463588,10.9059829 24.4218695,10.7084027 24.9717492,10.7092877 Z M2.02824474,10.7092877 C2.57722298,10.7092877 3.05273369,10.9068709 3.45477687,11.3020313 C3.85682005,11.6971917 4.05739092,12.1656122 4.0564925,12.7072927 L4.0564925,22.00999 C4.0564925,22.5925186 3.85591861,23.0711511 3.45477687,23.4458875 C3.05363513,23.8206238 2.57812442,24.007992 2.02824474,24.007992 C1.47836505,24.007992 1.00285434,23.8206238 0.601712606,23.4458875 C0.200570869,23.0711511 0,22.5925186 0,22.00999 L0,12.7072927 C0,12.1665002 0.200570869,11.6980797 0.601712606,11.3020313 C1.00285434,10.9059829 1.47836505,10.7084027 2.02824474,10.7092877 Z M5.38701803,24.007992 L5.38701803,10.7092907 L21.6129759,10.7092907 L21.6129759,24.007992 C21.6129759,24.3827284 21.4863233,24.6948607 21.2330181,24.9443889 C20.9797128,25.1939172 20.6628559,25.3186813 20.2824474,25.3186813 L18.8883671,25.3186813 L18.8883671,30.001998 C18.8883671,30.5845266 18.6877963,31.0631591 18.2866545,31.4378954 C17.8855128,31.8126318 17.4100021,32 16.8601224,32 C16.3102427,32 15.834732,31.8126318 15.4335903,31.4378954 C15.0324485,31.0631591 14.8318777,30.5845266 14.8318777,30.001998 L14.8318777,25.3186813 L12.1694684,25.3186813 L12.1694684,30.001998 C12.1694684,30.5845266 11.9688975,31.0631591 11.5677558,31.4378954 C11.1666141,31.8126318 10.6911033,32 10.1412237,32 C9.59134398,32 9.11583327,31.8126318 8.71469153,31.4378954 C8.31354979,31.0631591 8.11297893,30.5845266 8.11297893,30.001998 L8.11297893,25.3186813 L6.71889871,25.3186813 C6.33849014,25.3186813 6.02163324,25.1939172 5.76832801,24.9443889 C5.51502277,24.6948607 5.38837016,24.3827284 5.38837016,24.007992 L5.38701803,24.007992 Z" id="形状"></path>
            </g>
        </g>
    </g>
</svg>