<?xml version="1.0" encoding="UTF-8"?>
<svg width="53px" height="57px" viewBox="0 0 53 57" version="1.1" xmlns="http://www.w3.org/2000/svg" xmlns:xlink="http://www.w3.org/1999/xlink">
   
    <desc>Created with Sketch.</desc>
    <g id="页面-3备份-2" stroke="none" stroke-width="1" fill="none" fill-rule="evenodd">
        <g id="PC-新增下载渠道" transform="translate(-1004.000000, -625.000000)" fill="#FFFFFF" fill-rule="nonzero">
            <g id="google_play" transform="translate(982.000000, 609.000000)">
                <path d="M22.1555556,44.6335 L22.1555556,20.89275 C22.1329945,20.2096912 22.1552647,19.5258861 22.2222222,18.84575 C22.2193273,18.0825721 22.6155537,17.3735375 23.2666667,16.97675 C24.0666667,16.643 24.3777778,17.55525 24.8222222,18.00025 L50.4222222,44.29975 C50.8815612,44.5713586 51.1596961,45.0691585 51.1507211,45.6032058 C51.1413037,46.1372531 50.8461951,46.6251572 50.3777778,46.88075 C42.1111111,55.18 33.8888889,63.546 25.6444444,71.8675 C24.1333333,73.3805 22.8222222,73.04675 22.2888889,70.933 C22.1738128,70.2646521 22.1365268,69.585198 22.1777778,68.90825 C22.1555556,60.80925 22.1555556,52.7325 22.1555556,44.6335 L22.1555556,44.6335 Z M25.5777778,16.22025 C26.2909778,16.2089811 26.9846568,16.4536508 27.5333333,16.91 C38.2222222,22.962 48.8666667,29.03625 59.5555556,35.04375 C60.8222222,35.75575 61.0444444,36.24525 59.8888889,37.31325 C57.7333333,39.338 55.7111111,41.49625 53.6222222,43.61 C53.0888889,44.144 52.6666667,44.47775 51.9777778,43.7435 C43.2222222,34.6655 34.4518519,25.5875 25.6666667,16.5095 C25.6166135,16.4206026 25.5862948,16.3219437 25.5777778,16.22025 Z M28.9333333,71.22225 C36.5777778,63.39025 44.0222222,55.803 51.3777778,48.149 C52.5111111,46.992 53.1333333,46.992 54.1777778,48.17125 C55.6773538,49.8841585 57.2646721,51.5180209 58.9333333,53.06625 C59.9333333,54.023 60,54.49025 58.6444444,55.2245 C49.8222222,60.05275 41.0666667,64.97 32.2888889,69.84275 C31.3158701,70.5985107 30.1560285,71.0753323 28.9333333,71.22225 L28.9333333,71.22225 Z M74.2444444,44.87825 C74.2416618,45.8496199 73.7030097,46.7399349 72.8444444,47.19225 C69.3333333,49.19475 65.8222222,51.15275 62.3333333,53.15525 C62.0654199,53.3185211 61.7435313,53.3680563 61.4390143,53.2928761 C61.1344974,53.2176958 60.8725061,53.0240103 60.7111111,52.75475 C58.7111111,50.66325 56.7111111,48.57175 54.6666667,46.52475 C54.3788178,46.3380726 54.2068949,46.0164603 54.2113204,45.6731059 C54.2159193,45.3297514 54.3962341,45.0127796 54.6888889,44.83375 C57.0592593,42.47525 59.4148148,40.0945 61.7555556,37.6915 C61.9653999,37.3933946 62.2862379,37.1923904 62.6457576,37.1337907 C63.0052772,37.0751911 63.3732235,37.1639275 63.6666667,37.38 C66.6,39.1155 69.5555556,40.78425 72.5111111,42.453 C73.4926672,42.8778978 74.1595092,43.8109316 74.2444444,44.87825 L74.2444444,44.87825 Z" id="形状"></path>
            </g>
        </g>
    </g>
</svg>