<?xml version="1.0" encoding="UTF-8"?>
<svg width="27px" height="33px" viewBox="0 0 27 33" version="1.1" xmlns="http://www.w3.org/2000/svg" xmlns:xlink="http://www.w3.org/1999/xlink">
   
    <desc>Created with Sketch.</desc>
    <g id="页面-1" stroke="none" stroke-width="1" fill="none" fill-rule="evenodd">
        <g id="pc底部信息栏新增" transform="translate(-1438.000000, -515.000000)" fill="#000000" fill-rule="nonzero">
            <g id="苹果" transform="translate(1438.000000, 515.000000)">
                <path d="M8.6165829,33 C6.68703034,33 4.75135458,31.2981125 2.86396108,27.9412378 C0.963410971,24.6057425 0,21.2814178 0,18.0603495 C0,15.0896399 0.726592093,12.6260073 2.15937941,10.7379405 C3.62758198,8.86016588 5.4662795,7.90759753 7.62309378,7.90759753 C8.09784861,7.90759753 8.63524211,7.96884841 9.22075237,8.08946746 C9.80287006,8.20941711 10.4158933,8.43647212 11.042487,8.76444046 C11.7273337,9.14424613 12.3026663,9.41200954 12.7494116,9.55873553 C13.2079896,9.70935245 13.5560604,9.78235982 13.8138553,9.78235982 C14.1125268,9.78235982 14.5544315,9.71575367 15.1648897,9.57860859 C15.7709209,9.44242579 16.3845648,9.18984959 16.9883206,8.82761589 C17.6161968,8.47738971 18.1675743,8.20941711 18.6247043,8.03332082 C19.0648135,7.86175251 19.5324415,7.77371583 20.0041204,7.77371583 C21.5165921,7.77371583 22.8966702,8.19460644 24.1066641,9.02446384 C24.7319752,9.44581468 25.3767729,10.0700381 26.0249632,10.8810266 C25.0522847,11.743685 24.3297058,12.5129191 23.8757616,13.1683955 C23.0042813,14.4335358 22.562418,15.8314701 22.562418,17.3234143 C22.5628317,18.9711635 23.0269537,20.4817675 23.9422479,21.8134721 C24.8292017,23.0820431 25.856989,23.9283847 27,24.331787 C26.4956635,25.8644397 25.700475,27.4811032 24.6353693,29.1397302 C22.9691143,31.6787549 21.310472,32.9664041 19.7065247,32.9664041 C19.1045066,32.9664041 18.1934324,32.7547454 16.998912,32.3372437 C15.8679405,31.910956 14.8624119,31.6944023 14.0127352,31.6944023 C13.1599142,31.6944023 12.2077567,31.9231727 11.1827,32.3742704 C10.1473,32.7890108 9.28260496,33 8.6165829,33 L8.6165829,33 Z M13.376874,7.74564251 C13.4209363,5.87493851 13.9244453,4.23388348 14.874741,2.86657471 C15.8273123,1.49646278 17.409456,0.532305301 19.5781857,0 C19.6084707,0.148859723 19.6319706,0.259814188 19.6495541,0.333114424 L19.6495541,0.686101912 C19.6495541,1.47056504 19.462962,2.36811638 19.0947839,3.35369493 C18.7073675,4.31161855 18.1038599,5.21025767 17.3025069,6.02124611 C16.5490224,6.73927045 15.8510604,7.21438316 15.2303831,7.43118785 C15.0210772,7.49457247 14.7425544,7.55544681 14.4070196,7.60983625 C14.0648463,7.66403124 13.7213508,7.70931498 13.376874,7.74564251 L13.376874,7.74564251 Z" id="形状"></path>
            </g>
        </g>
    </g>
</svg>