<?xml version="1.0" encoding="UTF-8"?>
<svg width="47px" height="59px" viewBox="0 0 47 59" version="1.1" xmlns="http://www.w3.org/2000/svg" xmlns:xlink="http://www.w3.org/1999/xlink">
   
    <desc>Created with Sketch.</desc>
    <g id="页面-3备份-2" stroke="none" stroke-width="1" fill="none" fill-rule="evenodd">
        <g id="PC-新增下载渠道" transform="translate(-658.000000, -623.000000)" fill="#FFFFFF" fill-rule="nonzero">
            <g id="app_store" transform="translate(636.000000, 609.000000)">
                <path d="M60.5153155,45.315 C60.5684661,40.8392022 62.8834998,36.7032814 66.6486489,34.3575 C64.261324,30.9185211 60.4199399,28.8114151 56.2708711,28.665 C51.8930933,28.2150001 47.6486488,31.32 45.4264266,31.32 C43.1597599,31.32 39.7375377,28.71 36.0264266,28.8 C31.1691047,28.9550728 26.7485333,31.6798615 24.3819822,35.9775 C19.35976,44.82 23.1153156,57.78 27.9375377,64.9125 C30.3375377,68.4225001 33.15976,72.315 36.8486488,72.18 C40.4708711,72.0225 41.8264266,69.84 46.1819822,69.84 C50.4930933,69.84 51.7597599,72.18 55.5153155,72.09 C59.4042044,72.0225 61.8486488,68.58 64.1597599,65.0475 C65.8984428,62.5632144 67.2338028,59.8135356 68.1153154,56.9025 C63.5173925,54.9311387 60.5262154,50.3705776 60.5153155,45.315 L60.5153155,45.315 Z M53.4042044,23.985 C55.527737,21.4220577 56.5730418,18.1176775 56.3153155,14.7825 C53.0844695,15.1129244 50.09804,16.6730558 47.9597599,19.1475 C45.8465789,21.5864689 44.7756139,24.7747878 44.9819821,28.0125 C48.2505808,28.0475361 51.354589,26.5632018 53.4042044,23.985 L53.4042044,23.985 Z" id="形状"></path>
            </g>
        </g>
    </g>
</svg>