<?xml version="1.0" standalone="no"?><!DOCTYPE svg PUBLIC "-//W3C//DTD SVG 1.1//EN" "http://www.w3.org/Graphics/SVG/1.1/DTD/svg11.dtd"><svg t="1618213873120" class="icon" viewBox="0 0 1024 1024" version="1.1" xmlns="http://www.w3.org/2000/svg" p-id="7036" xmlns:xlink="http://www.w3.org/1999/xlink" width="200" height="200"><defs><style type="text/css"></style></defs><path d="M64 288h896v448H64z" fill="#012775" opacity=".75" p-id="7037"></path><path d="M317.58 683.8l-28.98-26.46-28.66 26.81 2.62-39.16-38.83-5.69 32.25-22.37-19.76-33.9 37.59 11.26 14.2-36.58 14.62 36.41 37.46-11.71-19.35 34.14 32.51 21.97-38.76 6.16zM638.35 512.58l-13.77-12.57-13.62 12.74 1.24-18.61-18.45-2.71 15.33-10.63-9.39-16.11 17.86 5.36 6.75-17.39 6.95 17.3 17.8-5.56-9.2 16.22 15.45 10.44-18.42 2.93zM749.83 390.49l-13.77-12.57-13.62 12.74 1.25-18.61-18.45-2.71 15.32-10.62-9.39-16.12 17.87 5.36 6.74-17.39 6.95 17.31 17.8-5.57-9.2 16.22 15.45 10.45-18.41 2.92zM849.37 482.54l-13.77-12.58-13.62 12.74 1.25-18.6-18.45-2.71 15.32-10.63-9.39-16.11 17.87 5.35 6.74-17.38 6.95 17.3 17.8-5.57-9.2 16.23 15.45 10.44-18.41 2.93zM749.83 690.14l-13.77-12.58-13.62 12.74 1.25-18.61-18.45-2.7 15.32-10.63-9.39-16.11 17.87 5.35 6.74-17.38 6.95 17.3 17.8-5.57-9.2 16.23 15.45 10.44-18.41 2.93zM790.68 545.06l-10.1-5.41-10.18 5.25 2.03-11.28-8.14-8.06 11.35-1.55 5.15-10.24 4.99 10.32 11.32 1.74-8.27 7.92z" fill="#FFFFFF" p-id="7038"></path><path d="M944 304v416H80V304h864m16-16H64v448h896V288z" fill="#012775" p-id="7039"></path><path d="M512 288h-49.95l-136.81 68.59V288h-74.77v67.98L114.88 288H64v24.56l99.84 50.05H64v74.89h99.84L64 487.56v24.56h50.88l135.59-67.98v67.98h74.77v-68.59l136.81 68.59H512v-25.03l-98.91-49.59H512v-74.89h-98.91L512 313.03z" fill="#FFFFFF" p-id="7040"></path><path d="M310.31 288.12h-44.68v89.54H64v44.8h201.63v89.66h44.68v-89.66H512v-44.8H310.31z" fill="#ED293A" p-id="7041"></path><path d="M512 288.12h-33.84l-148.94 74.61h33.85zM64 512.12h33.84l148.94-74.62h-33.85zM212.94 362.61L64.01 288H64v16.95l115.1 57.66zM363.06 437.5l148.93 74.62h0.01v-16.95L396.9 437.5z" fill="#ED293A" p-id="7042"></path><path d="M148.12 304.55l-33.24-16.67H64.01l33.27 16.67zM265.63 288h44.68v16.55h14.93v-16.67h-74.77v16.67h15.16zM64 422.34h16.13v15.05H64zM64 362.49h16.13v15.05H64zM478.16 288H512v-0.12h-49.95l-33.25 16.67h16.32zM512 304.55V288l-33.03 16.55zM64 304.83v7.61l16.13 8.09v-7.62zM80.13 479.35L64 487.44V512l16.13-8.08z" fill="#FFFFFF" p-id="7043"></path><path d="M265.63 288h44.68v16.55h-44.68zM64 377.54h16.13v44.79H64zM445.12 304.55h33.85L512 288h-33.84zM64 512h16.13v-8.08zM80.13 304.55h17.15l-33.27-16.67H64v16.95l16.13 8.08z" fill="#ED293A" p-id="7044"></path></svg>