<svg t="1680591666172" class="icon" viewBox="0 0 1024 1024" version="1.1" xmlns="http://www.w3.org/2000/svg" p-id="1150"
  width="200" height="200">
  <path
    d="M776.5504 144.3328h-58.112a97.9456 97.9456 0 0 0-95.2832-75.9808H390.912a97.8432 97.8432 0 0 0-95.232 75.9808H237.5168A117.3504 117.3504 0 0 0 120.32 261.5296V808.96a117.4016 117.4016 0 0 0 117.1968 117.248h539.0336a117.4528 117.4528 0 0 0 117.248-117.248V261.5296a117.4016 117.4016 0 0 0-117.248-117.1968z m-421.9904 21.8624a36.4544 36.4544 0 0 1 36.352-36.4032h232.2432a36.4032 36.4032 0 0 1 36.352 36.4032v20.1728a36.352 36.352 0 0 1-36.352 36.352H390.912a36.4032 36.4032 0 0 1-36.352-36.352zM832.3584 808.96a55.8592 55.8592 0 0 1-55.808 55.808H237.5168A55.8592 55.8592 0 0 1 181.76 808.96V261.5296a55.808 55.808 0 0 1 55.7568-55.7568h57.5488A97.9456 97.9456 0 0 0 390.912 284.16h232.2432a97.9456 97.9456 0 0 0 95.8464-78.3872h57.5488a55.808 55.808 0 0 1 55.808 55.7568z"
    fill="#00A0E9" p-id="1151"></path>
  <path
    d="M676.5568 431.9232h-329.216a30.72 30.72 0 0 0 0 61.44h329.216a30.72 30.72 0 0 0 0-61.44zM676.5568 627.2h-329.216a30.72 30.72 0 0 0 0 61.44h329.216a30.72 30.72 0 0 0 0-61.44z"
    fill="#00A0E9" p-id="1152"></path>
</svg>