<?xml version="1.0" encoding="UTF-8"?>
<svg width="21px" height="23px" viewBox="0 0 21 23" version="1.1" xmlns="http://www.w3.org/2000/svg" xmlns:xlink="http://www.w3.org/1999/xlink">
    
    <g id="页面-1" stroke="none" stroke-width="1" fill="none" fill-rule="evenodd">
        <g id="登陆注册结算流程" transform="translate(-1851.000000, -134.000000)" stroke="#FFFFFF">
            <g id="搜索备份" transform="translate(1851.000000, 134.000000)">
                <circle id="椭圆形" stroke-width="2" cx="9" cy="9" r="8"></circle>
                <path d="M14.0541251,14.8608667 L20.092962,21.5321819 C20.1608448,21.6085501 20.1947863,21.7042751 20.1947863,21.8 C20.1947863,21.8957249 20.1608448,21.9914499 20.092962,22.0678181 C20.0537796,22.1118983 20.0004395,22.1359237 19.9458749,22.1391333 C19.8977965,22.1419615 19.8487673,22.1286285 19.8076352,22.098614 L19.8076352,22.098614 L13.907038,15.4678181 C13.8391552,15.3914499 13.8052137,15.2957249 13.8052137,15.2 C13.8052137,15.1042751 13.8391552,15.0085501 13.907038,14.9321819 C13.9462204,14.8881017 13.9995605,14.8640763 14.0541251,14.8608667 L14.0541251,14.8608667 Z" id="矩形" fill="#FFFFFF"></path>
            </g>
        </g>
    </g>
</svg>