<?xml version="1.0" standalone="no"?><!DOCTYPE svg PUBLIC "-//W3C//DTD SVG 1.1//EN" "http://www.w3.org/Graphics/SVG/1.1/DTD/svg11.dtd"><svg t="1624254456272" class="icon" viewBox="0 0 1024 1024" version="1.1" xmlns="http://www.w3.org/2000/svg" p-id="3856" xmlns:xlink="http://www.w3.org/1999/xlink" width="200" height="200"><defs><style type="text/css"></style></defs><path d="M223.033344 962.816c-9.046016 0-16.381952-7.327744-16.381952-16.381952l0-94.201856c0-45.469696 20.647936-123.256832 44.556288-213.32992 25.997312-97.961984 55.468032-208.97792 55.468032-277.004288 0-125.159424-81.13152-323.872768-81.946624-325.865472-2.304-5.607424-1.318912-12.040192 2.56-16.703488 3.878912-4.646912 10.01472-6.79936 15.966208-5.558272 0.591872 0.126976 59.723776 12.181504 101.351424-5.582848 6.760448-2.904064 14.606336-0.913408 19.216384 4.831232 0.806912 0.999424 81.176576 100.20864 150.790144 100.20864 9.046016 0 16.381952 7.327744 16.381952 16.381952s-7.335936 16.381952-16.381952 16.381952c-71.84384 0-145.102848-76.466176-168.675328-103.399424-28.094464 8.927232-58.916864 8.894464-80.65024 7.135232 22.564864 59.51488 74.156032 207.07328 74.156032 312.170496 0 72.298496-28.758016 180.627456-56.56576 285.403136-22.349824 84.201472-43.460608 163.74784-43.460608 204.929024l0 94.201856C239.417344 955.488256 232.081408 962.816 223.033344 962.816z" p-id="3857"></path><path d="M800.929792 962.816c-9.046016 0-16.381952-7.327744-16.381952-16.381952l0-94.201856c0-41.181184-21.110784-120.727552-43.460608-204.929024-27.805696-104.77568-56.56576-213.10464-56.56576-285.403136 0-105.095168 51.58912-252.653568 74.156032-312.170496-21.669888 1.75104-52.307968 1.800192-80.306176-7.022592-22.734848 27.437056-92.065792 103.288832-163.756032 103.288832-9.048064 0-16.381952-7.327744-16.381952-16.381952s7.333888-16.381952 16.381952-16.381952c57.643008 0 124.366848-72.044544 145.205248-99.80928 4.544512-6.014976 12.57472-8.183808 19.535872-5.230592 41.64608 17.782784 100.777984 5.728256 101.351424 5.582848 5.984256-1.24928 12.087296 0.91136 15.968256 5.558272 3.878912 4.663296 4.861952 11.096064 2.56 16.703488-0.815104 1.992704-81.946624 200.704-81.946624 325.865472 0 68.026368 29.47072 179.042304 55.468032 277.004288 23.9104 90.073088 44.556288 167.860224 44.556288 213.32992l0 94.201856C817.311744 955.488256 809.977856 962.816 800.929792 962.816z" p-id="3858"></path><path d="M511.934464 525.774848c-69.842944 0-139.685888-26.589184-192.858112-79.753216-3.198976-3.201024-3.198976-8.384512 0-11.583488s8.382464-3.198976 11.583488 0c99.95264 99.913728 262.582272 99.944448 362.534912 0 3.201024-3.198976 8.384512-3.198976 11.583488 0s3.198976 8.382464 0 11.583488C651.61216 499.185664 581.769216 525.774848 511.934464 525.774848z" p-id="3859"></path><path d="M280.375296 1020.155904c-40.6528 0-73.721856-33.071104-73.721856-73.721856 0-9.056256 7.335936-16.381952 16.381952-16.381952s16.381952 7.325696 16.381952 16.381952c0 22.58944 18.374656 40.957952 40.957952 40.957952 22.583296 0 40.957952-18.366464 40.957952-40.957952 0-9.056256 7.335936-16.381952 16.381952-16.381952 9.046016 0 16.381952 7.325696 16.381952 16.381952C354.097152 987.0848 321.026048 1020.155904 280.375296 1020.155904z" p-id="3860"></path><path d="M395.055104 1020.155904c-40.6528 0-73.721856-33.071104-73.721856-73.721856 0-9.056256 7.335936-16.381952 16.381952-16.381952 9.046016 0 16.381952 7.325696 16.381952 16.381952 0 22.58944 18.374656 40.957952 40.957952 40.957952 22.583296 0 40.957952-18.366464 40.957952-40.957952 0-9.056256 7.335936-16.381952 16.381952-16.381952 9.046016 0 16.381952 7.325696 16.381952 16.381952C468.77696 987.0848 435.705856 1020.155904 395.055104 1020.155904z" p-id="3861"></path><path d="M514.230272 1020.155904c-40.6528 0-73.721856-33.071104-73.721856-73.721856 0-9.056256 7.335936-16.381952 16.381952-16.381952 9.048064 0 16.381952 7.325696 16.381952 16.381952 0 22.58944 18.374656 40.957952 40.957952 40.957952 22.581248 0 40.957952-18.366464 40.957952-40.957952 0-9.056256 7.335936-16.381952 16.381952-16.381952 9.048064 0 16.381952 7.325696 16.381952 16.381952C587.952128 987.0848 554.883072 1020.155904 514.230272 1020.155904z" p-id="3862"></path><path d="M628.91008 1020.155904c-40.6528 0-73.721856-33.071104-73.721856-73.721856 0-9.056256 7.335936-16.381952 16.381952-16.381952 9.048064 0 16.381952 7.325696 16.381952 16.381952 0 22.58944 18.374656 40.957952 40.957952 40.957952 22.581248 0 40.957952-18.366464 40.957952-40.957952 0-9.056256 7.335936-16.381952 16.381952-16.381952 9.048064 0 16.381952 7.325696 16.381952 16.381952C702.631936 987.0848 669.56288 1020.155904 628.91008 1020.155904z" p-id="3863"></path><path d="M743.589888 1020.155904c-40.6528 0-73.721856-33.071104-73.721856-73.721856 0-9.056256 7.335936-16.381952 16.381952-16.381952 9.048064 0 16.381952 7.325696 16.381952 16.381952 0 22.58944 18.374656 40.957952 40.957952 40.957952 22.581248 0 40.957952-18.366464 40.957952-40.957952 0-9.056256 7.335936-16.381952 16.381952-16.381952 9.048064 0 16.381952 7.325696 16.381952 16.381952C817.311744 987.0848 784.242688 1020.155904 743.589888 1020.155904z" p-id="3864"></path></svg>