<?xml version="1.0" standalone="no"?><!DOCTYPE svg PUBLIC "-//W3C//DTD SVG 1.1//EN" "http://www.w3.org/Graphics/SVG/1.1/DTD/svg11.dtd"><svg t="1619766599188" class="icon" viewBox="0 0 1541 1024" version="1.1" xmlns="http://www.w3.org/2000/svg" p-id="2128" xmlns:xlink="http://www.w3.org/1999/xlink" width="300.9765625" height="200"><defs><style type="text/css"></style></defs><path d="M6.296139 1017.710074h1520.904176V6.289926H6.296139v1011.420148z m1523.420147 2.51597v-3.773956 3.773956z m-1529.710074 3.773956V0h1533.48403v1024H0.006212z" fill="#353636" p-id="2129"></path><path d="M2.522183 2.515971h381.169533v1017.710073H2.522183z" fill="#D9374B" p-id="2130"></path><path d="M384.949701 2.515971h763.597052v1017.710073H384.949701z" fill="#FFFFFF" p-id="2131"></path><path d="M1147.288768 2.515971h381.169533v1017.710073H1147.288768zM766.119234 855.429975h12.579853l-3.773956-161.022113 11.321868-10.063882c50.31941 6.289926 95.60688 11.321867 145.926289 17.611794L919.593436 657.92629c-2.515971-7.547912 1.257985-16.353808 6.289926-21.385749l145.92629-124.540541-30.191646-15.095823c-13.837838-5.031941-10.063882-12.579853-5.031941-31.449632l22.643734-84.285012-84.285012 18.869779c-8.805897 1.257985-13.837838-3.773956-15.095823-8.805897l-11.321867-40.255528-66.673219 77.995086c-10.063882 12.579853-28.933661 12.579853-22.643735-16.353808l28.933661-159.764128-38.997543 21.385749c-11.321867 6.289926-21.385749 7.547912-27.675675-3.773956L766.119234 167.312039l-54.093366 103.154791c-6.289926 11.321867-16.353808 10.063882-27.675675 3.773956l-38.997543-21.385749 28.933661 159.764128c6.289926 28.933661-13.837838 28.933661-22.643735 16.353808l-66.673219-77.995086-11.321867 40.255528c-1.257985 5.031941-6.289926 11.321867-15.095823 10.063882l-85.542998-18.869779 22.643735 84.285013c5.031941 18.869779 8.805897 26.41769-5.031941 31.449631l-30.191646 15.095823 145.92629 124.540541c6.289926 5.031941 8.805897 12.579853 6.289926 21.385749l-12.579853 44.029484c50.31941-6.289926 95.60688-11.321867 145.92629-17.611793l11.321868 10.063882-3.773956 161.022113h12.579852z" fill="#D9374B" p-id="2132"></path></svg>