<?xml version="1.0" encoding="UTF-8"?>
<svg width="17px" height="19px" viewBox="0 0 17 19" version="1.1" xmlns="http://www.w3.org/2000/svg" xmlns:xlink="http://www.w3.org/1999/xlink">
   
    <desc>Created with Sketch.</desc>
    <g id="页面-1" stroke="none" stroke-width="1" fill="none" fill-rule="evenodd">
        <g id="1.14收藏夹" transform="translate(-339.000000, -13.000000)">
            <g id="购物袋备份-2" transform="translate(338.000000, 13.000000)">
                <path d="M3.99031168,6.5 C3.21359129,6.5 2.56534749,7.0929324 2.49625764,7.86657389 L1.69251495,16.8665739 C1.68855294,16.9109389 1.68656899,16.9554584 1.68656899,17 C1.68656899,17.8284271 2.35814186,18.5 3.18656899,18.5 L15.8144824,18.5 C15.8587843,18.5 15.9030645,18.4980373 15.9471927,18.4941178 C16.7723712,18.4208239 17.3818941,17.6924681 17.3086001,16.8672896 L16.509203,7.86728961 C16.4404594,7.09334054 15.7920813,6.5 15.0150852,6.5 L3.99031168,6.5 Z" id="矩形" stroke="#353535"></path>
                <path d="M5,9.88132549 L5,5.49295635 C5,3.01156508 7.01156508,1 9.49295635,1 C11.9754844,1 13.9890595,3.01042583 13.9929453,5.49295085 L14,10 L14,10" id="路径-2" stroke="#000000"></path>
            </g>
        </g>
    </g>
</svg>