<?xml version="1.0" encoding="UTF-8"?>
<svg width="22px" height="23px" viewBox="0 0 22 23" version="1.1" xmlns="http://www.w3.org/2000/svg" xmlns:xlink="http://www.w3.org/1999/xlink">
   
    <desc>Created with Sketch.</desc>
    <g id="页面-1" stroke="none" stroke-width="1" fill="none" fill-rule="evenodd">
        <g id="1.1首页未选中" transform="translate(-228.000000, -2531.000000)">
            <g id="购物袋备份-2" transform="translate(227.000000, 2531.000000)">
                <path d="M3.40726322,8.5 C3.15041808,8.5 2.93535046,8.69460226 2.90975258,8.95016864 L1.60765439,21.9501686 C1.60599585,21.9667273 1.60516503,21.9833585 1.60516503,22 C1.60516503,22.2761424 1.82902266,22.5 2.10516503,22.5 L21.8954303,22.5 C21.9119824,22.5 21.9285243,22.4991781 21.9449949,22.4975373 C22.2197772,22.4701635 22.4203414,22.2252177 22.3929676,21.9504354 L21.0979094,8.9504354 C21.0724384,8.69475321 20.8573199,8.5 20.6003721,8.5 L3.40726322,8.5 Z" id="矩形" stroke="#999999"></path>
                <circle id="椭圆形" fill="#999999" cx="7" cy="12" r="1"></circle>
                <circle id="椭圆形备份" fill="#999999" cx="17" cy="12" r="1"></circle>
                <path d="M7,11.8549534 L7,5.99217372 C7,3.23507231 9.23507231,1 11.9921737,1 C14.7504235,1 16.9875262,3.2339217 16.9914511,5.99216867 L17,12 L17,12" id="路径-2" stroke="#999999"></path>
            </g>
        </g>
    </g>
</svg>