<?xml version="1.0" standalone="no"?><!DOCTYPE svg PUBLIC "-//W3C//DTD SVG 1.1//EN" "http://www.w3.org/Graphics/SVG/1.1/DTD/svg11.dtd"><svg t="1635141959237" class="icon" viewBox="0 0 1024 1024" version="1.1" xmlns="http://www.w3.org/2000/svg" p-id="4649" width="16" height="16" xmlns:xlink="http://www.w3.org/1999/xlink"><defs><style type="text/css"></style></defs><path d="M256 320v576h512V320h64v576c0 38.4-25.6 64-64 64H256c-38.4 0-64-25.6-64-64V320h64z m192 64v384H384V384h64z m192 0v384H576V384h64z m0-320c38.4 0 64 25.6 64 64v64h192v64H128V192h192V128c0-38.4 25.6-64 64-64h256z m6.4 64H384v64h262.4V128z" p-id="4650" fill="#999999"></path></svg>