<?xml version="1.0" encoding="UTF-8"?>
<svg width="19px" height="20px" viewBox="0 0 19 20" version="1.1" xmlns="http://www.w3.org/2000/svg" xmlns:xlink="http://www.w3.org/1999/xlink">
  
    <desc>Created with Sketch.</desc>
    <defs>
        <polygon id="path-1" points="0 0.114876923 18.9894543 0.114876923 18.9894543 18.9060669 0 18.9060669"></polygon>
        <polygon id="path-3" points="0.0886034483 0.0589513514 8.88377586 0.0589513514 8.88377586 9.91612302 0.0886034483 9.91612302"></polygon>
    </defs>
    <g id="页面-1" stroke="none" stroke-width="1" fill="none" fill-rule="evenodd">
        <g id="1.1首页" transform="translate(-128.000000, -2534.000000)">
            <g id="编组备份-11" transform="translate(128.000000, 2534.000000)">
                <g id="编组">
                    <mask id="mask-2" fill="white">
                        <use xlink:href="#path-1"></use>
                    </mask>
                    <g id="Clip-2"></g>
                    <path d="M15.0442295,17.86209 C15.0442295,17.86209 14.9917953,17.86209 15.0442295,17.86209 C14.7285938,17.86209 14.5182682,18.1231208 14.5182682,18.4363285 C14.5182682,18.6972131 14.7813225,18.9060669 15.0442295,18.9060669 L15.0968109,18.9060669 C15.3600124,18.9060669 15.6229194,18.6450362 15.6229194,18.3840054 C15.570338,18.1231208 15.3072837,17.86209 15.0442295,17.86209 L15.0442295,17.86209 Z M7.10134574,17.3401746 C7.10134574,17.6532362 6.89087287,17.86209 6.57523721,17.86209 L1.57808992,17.86209 C1.26245426,17.86209 1.0519814,17.6532362 1.0519814,17.3401746 L1.0519814,12.3813208 C1.0519814,12.0681131 1.26245426,11.8594054 1.57808992,11.8594054 L6.57523721,11.8594054 C6.89087287,11.8594054 7.10134574,12.0681131 7.10134574,12.3813208 L7.10134574,17.3401746 Z M6.57523721,10.8154285 L1.57808992,10.8154285 C0.683764341,10.8154285 -8.8372093e-05,11.4940208 -8.8372093e-05,12.3813208 L-8.8372093e-05,17.3401746 C-8.8372093e-05,18.2274746 0.683764341,18.9060669 1.57808992,18.9060669 L6.57523721,18.9060669 C7.46956279,18.9060669 8.1534155,18.2274746 8.1534155,17.3401746 L8.1534155,12.3813208 C8.1534155,11.5461977 7.4169814,10.8154285 6.57523721,10.8154285 L6.57523721,10.8154285 Z M11.8881674,1.68081308 C11.8881674,1.36760538 12.098493,1.15875154 12.414276,1.15875154 L17.4114233,1.15875154 C17.7270589,1.15875154 17.9375318,1.36760538 17.9375318,1.68081308 L17.9375318,6.63952077 C17.9375318,6.95272846 17.7270589,7.16158231 17.4114233,7.16158231 L12.414276,7.16158231 C12.098493,7.16158231 11.8881674,6.95272846 11.8881674,6.63952077 L11.8881674,1.68081308 Z M12.414276,8.15323615 L17.4114233,8.15323615 C18.3057488,8.15323615 18.9894543,7.47479 18.9894543,6.58734385 L18.9894543,1.68081308 C18.9894543,0.793366923 18.3057488,0.114774615 17.4114233,0.114774615 L12.414276,0.114774615 C11.5199504,0.114774615 10.8360977,0.793366923 10.8360977,1.68081308 L10.8360977,6.63952077 C10.8360977,7.47479 11.5199504,8.15323615 12.414276,8.15323615 L12.414276,8.15323615 Z M7.10134574,6.58734385 C7.10134574,6.90055154 6.89087287,7.10940538 6.57523721,7.10940538 L1.57808992,7.10940538 C1.26245426,7.10940538 1.0519814,6.90055154 1.0519814,6.58734385 L1.0519814,1.68081308 C1.0519814,1.36760538 1.26245426,1.15875154 1.57808992,1.15875154 L6.57523721,1.15875154 C6.89087287,1.15875154 7.10134574,1.36760538 7.10134574,1.68081308 L7.10134574,6.58734385 Z M6.57523721,0.114774615 L1.57808992,0.114774615 C0.683764341,0.114774615 -8.8372093e-05,0.793366923 -8.8372093e-05,1.68081308 L-8.8372093e-05,6.63952077 C-8.8372093e-05,7.52696692 0.683764341,8.20555923 1.57808992,8.20555923 L6.57523721,8.20555923 C7.46956279,8.20555923 8.1534155,7.52696692 8.1534155,6.63952077 L8.1534155,1.68081308 C8.1534155,0.793366923 7.4169814,0.114774615 6.57523721,0.114774615 L6.57523721,0.114774615 Z" id="Fill-1" fill="#1A1A1A" mask="url(#mask-2)"></path>
                </g>
                <g id="编组" transform="translate(10.000000, 10.000000)">
                    <mask id="mask-4" fill="white">
                        <use xlink:href="#path-3"></use>
                    </mask>
                    <g id="Clip-4"></g>
                    <path d="M8.73403448,8.85372613 L7.57024138,7.61421075 C8.2907069,6.78786716 8.67863793,5.72535458 8.67863793,4.60384107 C8.67863793,2.06597465 6.73898276,0.0589513514 4.41139655,0.0589513514 C2.08381034,0.0589513514 0.0886034483,2.06597465 0.0886034483,4.60384107 C0.0886034483,6.37469537 1.03065517,7.96838161 2.52713793,8.73555899 C2.58237931,8.79472519 2.69332759,8.79472519 2.74887931,8.79472519 C2.97031034,8.79472519 3.13681034,8.67672333 3.24760345,8.44055433 C3.35824138,8.14538441 3.24760345,7.79121354 2.97031034,7.67304641 C1.86206897,7.08287182 1.14160345,5.90252265 1.14160345,4.60384107 C1.14160345,2.7149849 2.58237931,1.23963107 4.30060345,1.23963107 C6.01851724,1.23963107 7.4592931,2.7741511 7.4592931,4.60384107 C7.4592931,5.60718745 7.07136207,6.55169817 6.35105172,7.20103896 C6.35105172,7.20103896 6.2955,7.20103896 6.2955,7.25987462 C6.1847069,7.37804175 6.12931034,7.49604362 6.12931034,7.61421075 L6.12931034,7.85037975 C6.12931034,7.90921541 6.1847069,7.90921541 6.1847069,7.96838161 C6.1847069,8.02738254 6.1847069,8.02738254 6.24025862,8.0862182 L7.79198276,9.73890537 C7.90277586,9.85707251 8.06896552,9.91623871 8.17991379,9.91623871 C8.2907069,9.91623871 8.45689655,9.85707251 8.56784483,9.73890537 C8.95577586,9.50306692 8.95577586,9.08989512 8.73403448,8.85372613" id="Fill-3" fill="#1A1A1A" mask="url(#mask-4)"></path>
                </g>
            </g>
        </g>
    </g>
</svg>