<?xml version="1.0" encoding="UTF-8"?>
<svg width="6px" height="12px" viewBox="0 0 6 12" version="1.1" xmlns="http://www.w3.org/2000/svg" xmlns:xlink="http://www.w3.org/1999/xlink">
    
    <desc>Created with Sketch.</desc>
    <g id="页面-1" stroke="none" stroke-width="1" fill="none" fill-rule="evenodd">
        <g id="1.2-侧边栏（三级菜单）" transform="translate(-261.000000, -356.000000)" fill="#000000" fill-rule="nonzero">
            <g id="返回" transform="translate(264.000000, 362.000000) rotate(-180.000000) translate(-264.000000, -362.000000) translate(261.000000, 356.000000)">
                <g id="返-回">
                    <path d="M0.167650773,5.53332681 L0.167650781,5.5333268 C0.203178725,5.48660793 0.245593129,5.44693242 0.29308379,5.4159935 L4.98631886,0.197999974 L4.98631888,0.197999952 C5.09594617,0.0719308419 5.24683666,0.00050911446 5.40462897,0 C5.55466845,0 5.70470794,0.065999984 5.82413937,0.191333287 C6.05640049,0.444666559 6.05880112,0.857999791 5.83014094,1.11533306 L1.43217889,6.00599594 L5.82533499,10.8733255 L5.82533498,10.8733255 C6.05586127,11.1299048 6.05853268,11.5444399 5.83133658,11.8046586 C5.6056772,12.0639918 5.23117865,12.0639918 4.99891752,11.8113252 L0.245068842,6.54399579 L0.245068823,6.54399578 C0.0824365717,6.41482797 -0.00965602279,6.20243987 0.000804542515,5.98066258 L0.000804542515,5.96066259 L0.00080452076,5.96066309 C0.00765403422,5.8005173 0.0667472258,5.6486163 0.16704827,5.53332986 L0.167650773,5.53332681 Z" id="路径"></path>
                </g>
            </g>
        </g>
    </g>
</svg>