<?xml version="1.0" encoding="UTF-8"?>
<svg width="7px" height="11px" viewBox="0 0 7 11" version="1.1" xmlns="http://www.w3.org/2000/svg" xmlns:xlink="http://www.w3.org/1999/xlink">
  
    <desc>Created with Sketch.</desc>
    <g id="页面-1" stroke="none" stroke-width="1" fill="none" fill-rule="evenodd">
        <g id="1.2-侧边栏" transform="translate(-283.000000, -74.000000)" fill="#999999">
            <path d="M284.709643,79.5440179 L289.790036,75.0749143 C290.069988,74.8289413 290.069988,74.4301459 289.790036,74.1845257 C289.510747,73.9384914 289.057399,73.9384914 288.777779,74.1845257 L283.209467,79.0824986 C282.930178,79.3281801 282.930178,79.7269755 283.209467,79.9729485 C283.231451,79.9922871 283.25666,80.0076843 283.280753,80.0239864 C283.28492,80.0280044 283.288111,80.0326052 283.292277,80.0365619 L288.729906,84.819868 C289.002919,85.060044 289.445371,85.060044 289.718384,84.819868 C289.991327,84.5797688 289.991327,84.190497 289.718384,83.9503363 L284.709643,79.5440179 Z" id="Fill-1" transform="translate(286.500000, 79.500000) scale(-1, 1) translate(-286.500000, -79.500000) "></path>
        </g>
    </g>
</svg>