<?xml version="1.0" encoding="UTF-8"?>
<svg width="22px" height="22px" viewBox="0 0 22 22" version="1.1" xmlns="http://www.w3.org/2000/svg" xmlns:xlink="http://www.w3.org/1999/xlink">
   
    <desc>Created with Sketch.</desc>
    <g id="页面-1" stroke="none" stroke-width="1" fill="none" fill-rule="evenodd">
        <g id="1.5.3备份" transform="translate(-337.000000, -283.000000)" fill="#000000" fill-rule="nonzero">
            <g id="编组-3" transform="translate(337.000000, 283.000000)">
                <g id="关--闭">
                    <path d="M11,22 C4.92392519,22 0,17.0760963 0,11 C0,4.92392519 4.92392519,0 11,0 C17.0760963,0 22,4.92392519 22,11 C22,17.0760963 17.0760963,22 11,22 Z M11,1.04742832 C5.51730281,1.04742832 1.04742832,5.5177981 1.04742832,11.0004953 C1.04742832,16.483214 5.5177981,20.953067 11,20.953067 C16.4827187,20.953067 20.9525717,16.4827187 20.9525717,11.0004953 C20.9525717,5.5177981 16.4822019,1.0479236 11,1.0479236 L11,1.04742832 Z" id="形状"></path>
                    <path d="M11.7693942,11.0002203 L15.8490373,6.9473797 C16.0501559,6.7476039 16.0501559,6.41527253 15.8490373,6.18257296 L15.8154419,6.14919845 L15.8154419,6.14919848 C15.6112494,5.95026718 15.2843523,5.95026718 15.0801587,6.14919843 L11,10.2358848 L6.92033625,6.18308512 L6.92033624,6.18308512 C6.71602597,5.98352342 6.38839485,5.98352342 6.18408375,6.18308513 L6.15046774,6.21645963 C5.94984409,6.41529299 5.94984409,6.74762437 6.15046774,6.98030345 L10.2306265,11.0002408 L6.1509627,15.0530815 C5.94984409,15.2528777 5.94984409,15.5852091 6.1509627,15.8173965 L6.18455808,15.8507915 L6.18455806,15.8507915 C6.38875305,16.0497361 6.71566627,16.0497363 6.91986188,15.8507915 L11,11.7645559 L15.0796637,15.8173965 L15.0796638,15.8173965 C15.283974,16.0169582 15.6116052,16.0169582 15.8159163,15.8173965 L15.8495323,15.784022 C16.0501559,15.5852091 16.0501559,15.2528777 15.8495323,15.0201782 L11.7693735,11.0002203 L11.7693942,11.0002203 Z" id="路径"></path>
                </g>
            </g>
        </g>
    </g>
</svg>