<?xml version="1.0" standalone="no"?><!DOCTYPE svg PUBLIC "-//W3C//DTD SVG 1.1//EN" "http://www.w3.org/Graphics/SVG/1.1/DTD/svg11.dtd"><svg t="1618213646579" class="icon" viewBox="0 0 1024 1024" version="1.1" xmlns="http://www.w3.org/2000/svg" p-id="2920" xmlns:xlink="http://www.w3.org/1999/xlink" width="200" height="200"><defs><style type="text/css"></style></defs><path d="M64 512h896v298.67H64z" fill="#D52B1E" opacity=".75" p-id="2921"></path><path d="M944 512h16v298.67h-16zM64 512h16v298.67H64z" fill="#D52B1E" p-id="2922"></path><path d="M64 794.67h896v16H64z" fill="#D52B1E" p-id="2923"></path><path d="M362.38 213.33H960V512H362.38z" fill="#FFFFFF" opacity=".75" p-id="2924"></path><path d="M944 213.33h16V512h-16z" fill="#EEEEEE" p-id="2925"></path><path d="M362.38 213.33H960v16H362.38z" fill="#EEEEEE" p-id="2926"></path><path d="M64 213.33h298.67V512H64z" fill="#0039A6" opacity=".75" p-id="2927"></path><path d="M64 213.33h298.67v16H64z" fill="#0039A6" p-id="2928"></path><path d="M64 213.33h16V512H64z" fill="#0039A6" p-id="2929"></path><path d="M213.33 287.79l16.88 51.94h54.6l-44.17 32.09 16.87 51.93-44.18-32.09-44.17 32.09 16.87-51.93-44.18-32.09h54.61z" fill="#FFFFFF" p-id="2930"></path></svg>