<?xml version="1.0" encoding="UTF-8"?>
<svg width="157px" height="150px" viewBox="0 0 157 150" version="1.1" xmlns="http://www.w3.org/2000/svg" xmlns:xlink="http://www.w3.org/1999/xlink">
   
    <desc>Created with Sketch.</desc>
    <g id="页面-1" stroke="none" stroke-width="1" fill="none" fill-rule="evenodd">
        <g id="首页-买家秀-上传图片" transform="translate(-882.000000, -353.000000)" fill="#222222" fill-rule="nonzero">
            <g id="电脑-(1)" transform="translate(882.000000, 353.000000)">
                <path d="M136.55,0.0375 C147.75,0.0375 156.75,9.2375 156.75,20.2375 L156.75,100.0375 C156.75,111.2375 147.75,120.4375 136.55,120.4375 L94.15,120.4375 L94.15,128.4375 L125.95,128.4375 C128.15,128.4375 129.95,129.6375 130.95,131.4375 L136.15,141.2375 C138.15,145.0375 135.35,149.6375 131.15,149.6375 L26.75,149.6375 C22.35,149.6375 19.75,145.0375 21.75,141.2375 L26.75,131.4375 C27.75,129.6375 29.75,128.4375 31.75,128.4375 L62.75,128.4375 L62.75,120.4375 L20.35,120.4375 C9.15,120.4375 0.15,111.4375 0.15,100.2375 L0.15,20.2375 C0.15,9.0375 9.15,0.0375 20.35,0.0375 L136.55,0.0375 Z M136.55,10.0375 L20.35,10.0375 L20.35,10.2375 C14.75,10.2375 10.15,14.8375 10.15,20.4375 L10.15,100.2375 C10.15,105.8375 14.75,110.4375 20.35,110.4375 L136.55,110.4375 C142.15,110.4375 146.75,105.8375 146.75,100.2375 L146.75,20.2375 C146.75,14.6375 142.15,10.0375 136.55,10.0375 Z" id="形状结合"></path>
            </g>
        </g>
    </g>
</svg>