<?xml version="1.0" encoding="UTF-8"?>
<svg width="14px" height="16px" viewBox="0 0 14 16" version="1.1" xmlns="http://www.w3.org/2000/svg" xmlns:xlink="http://www.w3.org/1999/xlink">
   
    <desc>Created with Sketch.</desc>
    <g id="页面-1" stroke="none" stroke-width="1" fill="none" fill-rule="evenodd">
        <g id="unpaid默认" transform="translate(-12.000000, -80.000000)" fill="#FF8039" fill-rule="nonzero">
            <g id="编组" transform="translate(12.000000, 80.000000)">
                <path d="M13.0656417,0.809443508 L0.967039427,0.809443508 C0.711857989,0.809443508 0.516719243,0.620573356 0.516719243,0.404721754 C0.516719243,0.175379427 0.726868662,0 0.967039427,0 L13.0656417,0 C13.3208232,0 13.5159619,0.188870152 13.5159619,0.404721754 C13.5309726,0.620573356 13.3208232,0.809443508 13.0656417,0.809443508 Z M13.5141956,16 L0.485804416,16 C0.220820189,16 0,15.7976391 0,15.5548061 C0,15.311973 0.220820189,15.1096121 0.485804416,15.1096121 L13.5141956,15.1096121 C13.7791798,15.1096121 14,15.311973 14,15.5548061 C14,15.7976391 13.7791798,16 13.5141956,16 Z" id="形状"></path>
                <path d="M10.8902439,10.2033272 L10.8780488,10.1756007 C10.2560976,8.94177449 9.42682927,8.13770795 8.54878049,7.65249538 C9.42682927,7.15341959 10.2439024,6.36321627 10.8780488,5.12939002 L10.8902439,5.10166359 C11.5121951,3.88170055 11.9268293,2.2181146 12,0 L11.2804878,0 C11.2195122,2.05175601 10.8414634,3.5767098 10.2682927,4.69963031 L10.2560976,4.71349353 C9.54878049,6.14140481 8.75609756,6.9038817 7.73170732,7.26432532 L7.68292683,7.27818854 L7.67073171,7.27818854 C7.64634146,7.29205176 7.63414634,7.30591497 7.6097561,7.31977819 L7.59756098,7.3336414 L7.57317073,7.36136784 L7.54878049,7.38909427 L7.54878049,7.40295749 C7.53658537,7.4168207 7.52439024,7.44454713 7.51219512,7.47227357 L7.5,7.48613678 L7.47560976,7.5831793 L7.47560976,7.73567468 L7.5,7.83271719 L7.51219512,7.84658041 C7.52439024,7.87430684 7.53658537,7.88817006 7.54878049,7.91589649 L7.54878049,7.9297597 L7.57317073,7.95748614 L7.57317073,7.94362292 L7.59756098,7.95748614 L7.6097561,7.97134935 C7.62195122,7.98521257 7.64634146,7.99907579 7.67073171,8.012939 L7.68292683,8.012939 L7.73170732,8.04066543 C8.76829268,8.41497227 9.54878049,9.16358595 10.2682927,10.577634 L10.2804878,10.6053604 C10.5853659,11.1876155 10.8170732,11.8946396 11,12.7125693 C11.0365854,12.948244 11.1707317,13.461183 11.195122,14.1266174 C10.6219512,13.5443623 9.03658537,13.1284658 7.13414634,13.1007394 L7.13414634,6.69593346 C7.15853659,6.69593346 7.17073171,6.68207024 7.19512195,6.66820702 L7.19512195,6.65434381 L7.29268293,6.61275416 L7.31707317,6.61275416 C8.01219512,6.36321627 8.56097561,5.97504621 9.02439024,5.46210721 C9.51219512,4.90757856 9.8902439,4.22828096 10.1463415,3.46580407 C10.2195122,3.25785582 10.1341463,3.02218115 9.93902439,2.93900185 C9.75609756,2.85582255 9.54878049,2.95286506 9.47560976,3.16081331 L9.47560976,3.17467652 C9.25609756,3.81238447 8.93902439,4.40850277 8.52439024,4.87985213 C8.14634146,5.29574861 7.69512195,5.6284658 7.12195122,5.82255083 L7.1097561,5.83641405 L7.07317073,5.85027726 L7.01219512,5.86414048 L6.97560976,5.85027726 L6.95121951,5.83641405 L6.91463415,5.82255083 C6.35365854,5.61460259 5.87804878,5.29574861 5.51219512,4.87985213 C5.08536585,4.40850277 4.7804878,3.82624769 4.56097561,3.17467652 C4.48780488,2.96672828 4.2804878,2.85582255 4.1097561,2.93900185 C3.92682927,3.02218115 3.84146341,3.24399261 3.90243902,3.46580407 C4.15853659,4.22828096 4.52439024,4.90757856 5.02439024,5.46210721 C5.47560976,5.97504621 6.03658537,6.36321627 6.7195122,6.61275416 L6.73170732,6.61275416 L6.82926829,6.65434381 L6.85365854,6.66820702 C6.86585366,6.68207024 6.87804878,6.68207024 6.90243902,6.69593346 L6.90243902,13.1007394 C5.12195122,13.1007394 3.57317073,13.4473198 2.84146341,13.9325323 C2.86585366,13.5998152 2.92682927,13.2393715 3.03658537,12.7125693 C3.2195122,11.8807763 3.46341463,11.1876155 3.75609756,10.6053604 L3.76829268,10.577634 C4.48780488,9.16358595 5.26829268,8.41497227 6.31707317,8.04066543 L6.35365854,8.012939 L6.36585366,8.012939 C6.3902439,7.99907579 6.40243902,7.98521257 6.42682927,7.97134935 L6.43902439,7.95748614 L6.46341463,7.94362292 L6.46341463,7.9297597 L6.48780488,7.90203327 L6.48780488,7.88817006 C6.5,7.87430684 6.51219512,7.84658041 6.52439024,7.81885397 L6.52439024,7.80499076 C6.53658537,7.77726433 6.54878049,7.73567468 6.54878049,7.70794824 L6.54878049,7.56931608 C6.54878049,7.54158965 6.53658537,7.5 6.52439024,7.47227357 L6.52439024,7.45841035 C6.51219512,7.43068392 6.5,7.40295749 6.48780488,7.38909427 L6.48780488,7.37523105 L6.46341463,7.34750462 L6.43902439,7.31977819 L6.40243902,7.3336414 C6.37804878,7.31977819 6.36585366,7.30591497 6.34146341,7.29205176 L6.32926829,7.29205176 L6.29268293,7.27818854 C5.25609756,6.91774492 4.46341463,6.15526802 3.74390244,4.72735675 L3.73170732,4.71349353 C3.17073171,3.59057301 2.79268293,2.06561922 2.7195122,0.0138632163 L2,0.0138632163 C2.07317073,2.23197782 2.48780488,3.88170055 3.1097561,5.1155268 L3.12195122,5.14325323 C3.74390244,6.37707948 4.57317073,7.16728281 5.45121951,7.6663586 C4.57317073,8.15157116 3.75609756,8.95563771 3.12195122,10.189464 L3.1097561,10.2171904 C2.52439024,11.3817006 2.1097561,12.9343808 2.02439024,15 L11.9756098,15 C11.8902439,12.9205176 11.4878049,11.3678373 10.8902439,10.2033272 L10.8902439,10.2033272 Z" id="路径"></path>
            </g>
        </g>
    </g>
</svg>