<?xml version="1.0" encoding="UTF-8"?>
<svg width="26px" height="26px" viewBox="0 0 26 26" version="1.1" xmlns="http://www.w3.org/2000/svg" xmlns:xlink="http://www.w3.org/1999/xlink">
    
    <desc>Created with Sketch.</desc>
    <g id="页面-1" stroke="none" stroke-width="1" fill="none" fill-rule="evenodd">
        <g id="结算页选择优惠券" transform="translate(-57.000000, -1399.000000)" stroke="#FF1919">
            <g id="编组-2" transform="translate(59.000000, 1398.000000)">
                <g id="编组-10备份-2" transform="translate(0.000000, 3.000000)">
                    <g id="编组-3">
                        <circle id="椭圆形备份-3" stroke-width="2.4" fill="#FFFFFF" cx="11.2" cy="11.2" r="11.2"></circle>
                        <path d="M12.0598639,14.8997199 L12.5605442,4 L9.83945578,4 L10.3401361,14.8997199 L12.0598639,14.8997199 Z M11.1891156,19.2 C11.6244898,19.2 12.0090703,19.0580766 12.3428571,18.7742297 C12.647619,18.4761905 12.8,18.1071895 12.8,17.6672269 C12.8,17.2130719 12.647619,16.8511671 12.3428571,16.5815126 C12.0526077,16.2976657 11.6680272,16.1557423 11.1891156,16.1557423 C10.739229,16.1557423 10.369161,16.2976657 10.0789116,16.5815126 C9.75963719,16.8511671 9.6,17.2130719 9.6,17.6672269 C9.6,18.0929972 9.75963719,18.454902 10.0789116,18.7529412 C10.3836735,19.0509804 10.7537415,19.2 11.1891156,19.2 Z" id="!" stroke-width="0.8" fill="#FF1919" fill-rule="nonzero"></path>
                    </g>
                </g>
            </g>
        </g>
    </g>
</svg>