<svg id="图层_1" data-name="图层 1" xmlns="http://www.w3.org/2000/svg" viewBox="0 0 58.86 46"><defs><style>.cls-1{fill:#f5d681;}</style></defs><title>银行卡</title><path class="cls-1" d="M738.93,320.52v3.87H680.06v-3.87c0-2.91,2-5.28,4.42-5.28h50C736.94,315.24,738.93,317.61,738.93,320.52Zm-58.87,8.54V356c0,2.9,2,5.28,4.42,5.28h50c2.43,0,4.42-2.38,4.42-5.28v-26.9Zm53.24,25a1.82,1.82,0,0,1-1.38.69H720.63a2.18,2.18,0,0,1-2-2.34,2.57,2.57,0,0,1,.57-1.64,1.78,1.78,0,0,1,1.38-.69h11.29a2.17,2.17,0,0,1,2,2.33A2.57,2.57,0,0,1,733.3,354Z" transform="translate(-680.06 -315.24)"/></svg>