<?xml version="1.0" encoding="UTF-8"?>
<svg width="22px" height="22px" viewBox="0 0 22 22" version="1.1" xmlns="http://www.w3.org/2000/svg" xmlns:xlink="http://www.w3.org/1999/xlink">
   
    <desc>Created with Sketch.</desc>
    <defs>
        <polygon id="path-1" points="3.97590361e-05 0.102095808 22 0.102095808 22 21.9704383 3.97590361e-05 21.9704383"></polygon>
    </defs>
    <g id="页面-1" stroke="none" stroke-width="1" fill="none" fill-rule="evenodd">
        <g id="1.2-侧边栏" transform="translate(-19.000000, -723.000000)">
            <g id="编组备份" transform="translate(19.000000, 723.000000)">
                <g id="编组">
                    <mask id="mask-2" fill="white">
                        <use xlink:href="#path-1"></use>
                    </mask>
                    <g id="Clip-2"></g>
                    <path d="M11.0008349,1.03513293 C5.45338916,1.03513293 0.940208434,5.52128862 0.940208434,11.0355162 C0.940208434,16.5497437 5.45338916,21.0357677 11.0008349,21.0357677 C16.5481482,21.0357677 21.0614614,16.5497437 21.0614614,11.0355162 C21.0614614,5.52128862 16.5481482,1.03513293 11.0008349,1.03513293 M11.0008349,21.9704383 C4.93625663,21.9704383 3.97590361e-05,17.0636479 3.97590361e-05,11.0355162 C3.97590361e-05,5.00725269 4.93625663,0.100594012 11.0008349,0.100594012 C17.0654133,0.100594012 22.0016301,5.00725269 22.0016301,11.0355162 C22.0016301,17.0636479 17.0654133,21.9704383 11.0008349,21.9704383" id="Fill-1" fill="#333333" mask="url(#mask-2)"></path>
                </g>
                <text id="$" font-family="HelveticaNeue, Helvetica Neue" font-size="17" font-weight="normal" fill="#333333">
                    <tspan x="6.548" y="17">$</tspan>
                </text>
            </g>
        </g>
    </g>
</svg>