<?xml version="1.0" encoding="UTF-8"?>
<svg width="30px" height="28px" viewBox="0 0 30 28" version="1.1" xmlns="http://www.w3.org/2000/svg" xmlns:xlink="http://www.w3.org/1999/xlink">
    
    <desc>Created with Sketch.</desc>
    <g id="页面-3备份-2" stroke="none" stroke-width="1" fill="none" fill-rule="evenodd">
        <g id="MB-新增下载渠道" transform="translate(-51.000000, -524.000000)" fill="#3D3D3D">
            <g id="编组-2" transform="translate(31.000000, 510.000000)">
                <g id="编组" transform="translate(20.000000, 14.000000)">
                    <path d="M9.1666,10.7059234 C9.1668,10.2511386 9.5402,9.88252771 10.0004,9.88272527 C10.4602,9.88312065 10.833,10.2515339 10.8332,10.7059234 L10.8332,14.0016802 C10.8324,15.3648487 9.7144,16.4696931 8.3348,16.4706813 L5,16.4706813 C4.5396,16.4706813 4.1666,16.1018728 4.1666,15.647088 C4.1666,15.1923032 4.5396,14.8234947 5,14.8234947 L8.3348,14.8234947 C8.7938,14.8227041 9.1656,14.4550814 9.1666,14.0016802 L9.1666,10.7059234 Z M1.945,9.89636297 L8.9416,6.62373083 L8.9416,2.46821139 C8.942,1.10464761 10.061,-0.000394443455 11.4408,4.24628171e-07 L11.4474,4.24628171e-07 L27.494,4.24628171e-07 C28.874,-0.000789736623 29.9944,1.10128762 30,2.4648514 L30,22.241171 C30,22.6959558 29.6268,23.0645666 29.1666,23.0645666 C28.7064,23.0645666 28.3332,22.6959558 28.3332,22.241171 L28.3332,2.4648514 C28.3332,2.01777483 27.9566,1.64718748 27.494,1.64718748 L11.4474,1.64718748 C10.988,1.6430369 10.6124,2.00769485 10.6082,2.46149141 C10.6082,2.46366552 10.6082,2.46603728 10.6082,2.46821139 L10.6082,7.14571545 C10.608,7.46392645 10.4224,7.75328105 10.1316,7.88945955 L2.6932,11.3680394 C2.1582,11.6496858 1.6666,12.4566768 1.6666,13.0571271 L1.6666,22.2393921 C1.6666,22.6941769 1.2934,23.0629855 0.8332,23.0629855 C0.373,23.0629855 0,22.6941769 0,22.2393921 L0,13.0571271 C0,11.8473324 0.8316,10.4819898 1.945,9.89636297 L1.945,9.89636297 Z M21.6666,26.3530105 C20.2858,26.3530105 19.1666,25.2467826 19.1666,23.8824282 C19.1666,22.5178762 20.2858,21.4118459 21.6666,21.4118459 C23.0474,21.4118459 24.1666,22.5178762 24.1666,23.8824282 C24.1666,25.2467826 23.0474,26.3530105 21.6666,26.3530105 L21.6666,26.3530105 Z M21.6666,27.9999997 C23.9676,28.0007901 25.8338,26.1579333 25.8348004,23.8838117 C25.8358,21.6096901 23.971,19.7654499 21.6698,19.7646593 L21.6666,19.7646593 C19.3654,19.7654499 17.5006,21.6096901 17.5013997,23.8838117 C17.5024,26.1567474 19.3666,27.9992089 21.6666,27.9999997 L21.6666,27.9999997 Z M8.3332,26.3530105 C6.9526,26.3530105 5.8332,25.2467826 5.8332,23.8824282 C5.8332,22.5178762 6.9526,21.4118459 8.3332,21.4118459 C9.714,21.4118459 10.8332,22.5178762 10.8332,23.8824282 C10.8332,25.2467826 9.714,26.3530105 8.3332,26.3530105 L8.3332,26.3530105 Z M8.3332,27.9999997 C10.6344,28.0007901 12.5006,26.1579333 12.5016003,23.8838117 C12.5024,21.6096901 10.6376,19.7654499 8.3366,19.7646593 L8.3332,19.7646593 C6.032,19.7654499 4.1672,21.6096901 4.1681996,23.8838117 C4.1692,26.1567474 6.0332,27.9992089 8.3332,27.9999997 L8.3332,27.9999997 Z M13.4868421,21.3684211 L16.1381579,21.3684211 C16.5451046,21.3684211 16.875,21.6983165 16.875,22.1052632 C16.875,22.5122098 16.5451046,22.8421053 16.1381579,22.8421053 L13.4868421,22.8421053 C13.0798954,22.8421053 12.75,22.5122098 12.75,22.1052632 C12.75,21.6983165 13.0798954,21.3684211 13.4868421,21.3684211 Z" id="Fill-1"></path>
                </g>
            </g>
        </g>
    </g>
</svg>