<?xml version="1.0" encoding="UTF-8"?>
<svg width="30px" height="20px" viewBox="0 0 30 20" version="1.1" xmlns="http://www.w3.org/2000/svg" xmlns:xlink="http://www.w3.org/1999/xlink">
   
    <desc>Created with Sketch.</desc>
    <g id="页面-1" stroke="none" stroke-width="1" fill="none" fill-rule="evenodd">
        <g id="配置包邮活动入口" transform="translate(-12.000000, -62.000000)" fill="#333333" fill-rule="nonzero">
            <g id="快递" transform="translate(12.000000, 62.000000)">
                <path d="M8.01937763,6.43780266 C8.51957532,6.43780266 8.92505653,6.04128075 8.92505653,5.55213517 C8.92505653,5.06298959 8.51957532,4.66646768 8.01937763,4.66646768 L4.40212532,4.66646768 C3.90192763,4.66646768 3.49644643,5.06298959 3.49644643,5.55213517 C3.49644643,6.04128075 3.90192763,6.43780266 4.40212532,6.43780266 L8.01937763,6.43780266 Z M29.987934,10.7441751 C29.9948581,10.486503 29.9411893,10.2310879 29.8326539,10.0120709 L29.8326539,10.012071 C29.8231497,9.99289689 29.8129371,9.9740664 29.8020361,9.95561681 L27.0550244,5.30257696 C26.8900155,5.01776343 26.6309621,4.7905183 26.3214537,4.65798245 C26.1059313,4.55350225 25.873055,4.50056219 25.6284925,4.50056219 L20.7173756,4.50056219 L20.7173756,2.84102131 C20.7173756,1.27447551 19.4141329,0 17.8121914,0 L7.07925373,0 C5.84902042,0 4.78397125,0.754731549 4.36408683,1.82498928 L2.76518377,1.82498928 C2.26498608,1.82498928 1.85950487,2.22151119 1.85950487,2.71065677 C1.85950487,3.19980235 2.26498608,3.59632426 2.76518377,3.59632426 L5.08304979,3.59632426 C5.56083924,3.59632426 5.95641641,3.23340058 5.98688812,2.7671395 C6.02337821,2.20874043 6.50318352,1.77133497 7.07925373,1.77133497 L17.8121914,1.77133497 C18.4153443,1.77133497 18.9060178,2.25119533 18.9060178,2.84102131 L18.9060178,5.38622968 C18.9060178,5.40317164 18.9065145,5.41999932 18.9074786,5.43671273 L18.9074786,5.43671238 C18.9064722,5.45381764 18.9059656,5.47094742 18.9059594,5.48808109 L18.9059594,15.6493442 L16.0771444,15.6493442 C16.0619816,15.6493442 16.0469064,15.6497156 16.0319481,15.6504298 C15.6389126,14.2752739 14.3460122,13.2635845 12.8160576,13.2635845 C11.2864536,13.2635845 9.99384529,14.274674 9.60048849,15.6493442 L4.81730608,15.6493442 C4.31710838,15.6493442 3.91162718,16.0458661 3.91162718,16.5350117 C3.91162718,17.0241572 4.31710838,17.4206791 4.81730608,17.4206791 L9.60437415,17.4206791 C10.002347,18.7884354 11.2915079,19.7929538 12.8160576,19.7929538 C14.3410456,19.7929538 15.6305278,18.7877498 16.0281208,17.4193935 C16.0443646,17.4202506 16.0606669,17.4206791 16.0771444,17.4206791 L21.3898568,17.4206791 C21.7127459,18.8928871 23.0537934,20 24.6543033,20 C26.254784,20 27.5958608,18.8928871 27.9187207,17.4206791 L28.4277999,17.4206791 C29.2947099,17.4206791 30,16.7309727 30,15.8832461 L30,10.9264223 L30,10.9264235 C30,10.8654848 29.9959268,10.8046114 29.9879342,10.744176 L29.987934,10.7441751 Z M12.8160868,18.0216191 C11.9740391,18.0216191 11.2889953,17.3517117 11.2889953,16.5282409 C11.2889953,15.7048273 11.9740391,15.0348912 12.8160868,15.0348912 C13.6581344,15.0348912 14.3431783,15.7047987 14.3431783,16.5282409 C14.3431783,17.3517117 13.6581052,18.0216191 12.8160868,18.0216191 Z M24.6543033,18.2286939 C23.8122557,18.2286939 23.1271826,17.5587865 23.1271826,16.7353157 C23.1271826,15.911902 23.8122265,15.241966 24.6543033,15.241966 C25.4963218,15.241966 26.1813948,15.9118735 26.1813948,16.7353157 C26.1813948,17.5587579 25.4963218,18.2286939 24.6543033,18.2286939 Z M28.1887013,15.6493445 L27.8028814,15.6493445 C27.3442865,14.3813544 26.1060482,13.470631 24.6543033,13.470631 C23.2014483,13.470631 21.9623627,14.38284 21.5046151,15.6523443 L21.5046151,15.6523443 C21.47961,15.6503509 21.4545325,15.6493501 21.4294443,15.6493445 L20.7173178,15.6493445 L20.7173178,6.27192571 L25.5357048,6.27192571 L26.5563173,8.0006915 L24.4170745,8.0006915 C23.9168768,8.0006915 23.5113956,8.39721341 23.5113956,8.88635899 C23.5113956,9.37550457 23.9168768,9.77202648 24.4170745,9.77202648 L27.6020842,9.77202648 L28.17348,10.7398611 L28.1734799,10.7398617 C28.1693868,10.8130875 28.1744988,10.8865276 28.1887013,10.9585355 L28.1887013,15.6493448 L28.1887013,15.6493445 Z M11.2908359,8.79719227 C11.2908359,8.30804669 10.8853547,7.91152478 10.385157,7.91152478 L0.905678898,7.91152478 C0.405481207,7.91152478 0,8.30804669 0,8.79719227 C0,9.28633785 0.405481207,9.68285976 0.905678898,9.68285976 L10.385157,9.68285976 C10.8853547,9.68285976 11.2908359,9.28633785 11.2908359,8.79719227 Z M6.05206777,12.3603469 C6.05206777,11.8712013 5.64658656,11.4746794 5.14638887,11.4746794 L2.54697357,11.4746794 C2.04677588,11.4746794 1.64129467,11.8712013 1.64129467,12.3603469 C1.64129467,12.8494924 2.04677588,13.2460143 2.54697357,13.2460143 L5.14638887,13.2460143 C5.64655735,13.2460143 6.05206777,12.8494924 6.05206777,12.3603469 Z" id="形状"></path>
            </g>
        </g>
    </g>
</svg>