<?xml version="1.0" standalone="no"?><!DOCTYPE svg PUBLIC "-//W3C//DTD SVG 1.1//EN" "http://www.w3.org/Graphics/SVG/1.1/DTD/svg11.dtd"><svg t="1619765753390" class="icon" viewBox="0 0 1024 1024" version="1.1" xmlns="http://www.w3.org/2000/svg" p-id="591" xmlns:xlink="http://www.w3.org/1999/xlink" width="200" height="200"><defs><style type="text/css"></style></defs><path d="M451.65 172.86H960v290.88H451.65zM64 172.86h290.11v290.88H64zM451.65 560.38H960v290.76H451.65zM64 560.38h290.11v290.76H64z" fill="#D00C33" opacity=".75" p-id="592"></path><path d="M451.65 463.74V172.86h-97.54v290.88H64v96.64h290.11v290.76h97.54V560.38H960v-96.64z" fill="#FFFFFF" opacity=".75" p-id="593"></path><path d="M354.11 172.86h97.55v16h-97.55zM354.11 835.14h97.55v16h-97.55z" fill="#EEEEEE" p-id="594"></path><path d="M944 172.86h16v290.88h-16zM64 172.86h16v290.88H64z" fill="#D00C33" p-id="595"></path><path d="M451.65 172.86H960v16H451.65zM64 172.86h290.11v16H64zM944 560.38h16v290.76h-16zM64 560.38h16v290.76H64z" fill="#D00C33" p-id="596"></path><path d="M451.65 835.14H960v16H451.65zM64 835.14h290.11v16H64z" fill="#D00C33" p-id="597"></path><path d="M944 463.74h16v96.64h-16zM64 463.74h16v96.64H64z" fill="#EEEEEE" p-id="598"></path></svg>