<?xml version="1.0" standalone="no"?><!DOCTYPE svg PUBLIC "-//W3C//DTD SVG 1.1//EN" "http://www.w3.org/Graphics/SVG/1.1/DTD/svg11.dtd"><svg t="1626875992531" class="icon" viewBox="0 0 1024 1024" version="1.1" xmlns="http://www.w3.org/2000/svg" p-id="1964" xmlns:xlink="http://www.w3.org/1999/xlink" width="200" height="200"><defs><style type="text/css">@font-face { font-family: feedback-iconfont; src: url("//at.alicdn.com/t/font_1031158_1uhr8ri0pk5.eot?#iefix") format("embedded-opentype"), url("//at.alicdn.com/t/font_1031158_1uhr8ri0pk5.woff2") format("woff2"), url("//at.alicdn.com/t/font_1031158_1uhr8ri0pk5.woff") format("woff"), url("//at.alicdn.com/t/font_1031158_1uhr8ri0pk5.ttf") format("truetype"), url("//at.alicdn.com/t/font_1031158_1uhr8ri0pk5.svg#iconfont") format("svg"); }
</style></defs><path d="M896 627.2a38.4 38.4 0 0 1 37.888 32.192l0.512 6.208V896a38.4 38.4 0 0 1-32.192 37.888L896 934.4H128a38.4 38.4 0 0 1-37.888-32.192L89.6 896v-230.4a38.4 38.4 0 0 1 76.288-6.208l0.512 6.208v192h691.2v-192a38.4 38.4 0 0 1 32.192-37.888L896 627.2zM512 89.6a38.4 38.4 0 0 1 37.888 32.192L550.4 128v460.8l-0.128 0.512 71.04-70.976a38.4 38.4 0 0 1 49.6-4.032l4.736 4.032a38.4 38.4 0 0 1 4.032 49.536l-4.032 4.8-135.744 135.744a38.4 38.4 0 0 1-49.6 4.032l-4.736-4.032-135.744-135.744a38.4 38.4 0 0 1 49.536-58.368l4.736 4.032L473.6 587.84 473.6 128a38.4 38.4 0 0 1 38.4-38.4z" fill="#999999" p-id="1965"></path></svg>