<?xml version="1.0" standalone="no"?><!DOCTYPE svg PUBLIC "-//W3C//DTD SVG 1.1//EN" "http://www.w3.org/Graphics/SVG/1.1/DTD/svg11.dtd"><svg t="1619767635764" class="icon" viewBox="0 0 1546 1024" version="1.1" xmlns="http://www.w3.org/2000/svg" p-id="6475" xmlns:xlink="http://www.w3.org/1999/xlink" width="301.953125" height="200"><defs><style type="text/css"></style></defs><path d="M11.264 1017.856h1521.152V6.144H11.264v1011.712z m1524.736 3.584v-3.584 3.584zM5.12 1024V0h1533.44v1024H5.12z" fill="#353636" p-id="6476"></path><path d="M8.704 2.56H1536v1017.856H8.704V2.56z" fill="#09509E" p-id="6477"></path><path d="M784.384 156.672h44.032l-35.84 26.624 13.824 42.496-35.328-26.112-35.328 26.112 13.824-42.496-35.84-26.624h44.032l13.312-40.96 13.312 40.96M785.92 839.168h44.544l-35.84 27.136 13.824 41.984-35.328-26.112-35.328 26.112 13.824-41.984-35.84-27.136h44.032l13.312-40.96 12.8 40.96M954.88 794.112h44.544l-35.84 26.624 13.824 42.496-35.328-26.112-35.328 26.112 13.824-42.496-35.84-26.624h44.032l13.312-41.472 12.8 41.472M954.88 201.728h44.544l-35.84 26.624 13.824 42.496-35.328-26.112-35.328 26.112 13.824-42.496-35.84-26.624h44.032l13.312-40.96 12.8 40.96M1080.32 327.168h44.544l-35.84 26.624 13.824 42.496-35.328-26.112-35.328 26.112 13.824-42.496-35.84-26.624h44.032l13.312-40.96 12.8 40.96M1080.32 670.208h44.544l-35.84 27.136 13.824 41.984-35.328-26.112-35.328 26.112 13.824-41.984-35.84-27.136h44.032l13.312-40.96 12.8 40.96M1127.424 496.128h44.544l-35.84 26.624 13.824 42.496-35.328-26.112-35.328 26.112 13.824-42.496-35.84-26.624h44.032l13.312-40.96 12.8 40.96M611.84 202.24h44.032l-35.328 26.624 13.824 42.496-35.328-26.112-35.84 26.112 14.336-42.496-35.84-26.624h44.032l13.312-41.472 12.8 41.472M489.984 327.68h44.032l-35.328 26.624 13.824 42.496-35.84-26.112-35.328 26.112 14.336-42.496-36.352-26.624h44.032l13.312-41.472 13.312 41.472M444.416 496.64h44.544l-35.84 26.624 13.824 42.496-35.328-26.112-35.328 26.112 13.824-42.496-35.84-26.624h44.032l13.312-41.472 12.8 41.472M489.984 670.72h44.032l-35.328 26.624 13.824 42.496-35.84-26.112-35.328 26.112 14.336-42.496-36.352-26.624h44.032l13.312-40.96 13.312 40.96M613.888 794.624h44.032l-35.84 26.624 13.824 42.496-35.328-26.112-35.328 26.112 13.824-42.496-35.84-26.624h44.032l13.312-41.472 13.312 41.472" fill="#FBED21" p-id="6478"></path></svg>