<?xml version="1.0" encoding="UTF-8"?>
<svg width="37px" height="37px" viewBox="0 0 37 37" version="1.1" xmlns="http://www.w3.org/2000/svg" xmlns:xlink="http://www.w3.org/1999/xlink">
    
    <desc>Created with Sketch.</desc>
    <defs>
        <polygon id="path-1" points="0 0 37 0 37 37 0 37"></polygon>
    </defs>
    <g id="页面-1" stroke="none" stroke-width="1" fill="none" fill-rule="evenodd">
        <g id="1.15Site-map" transform="translate(-63.000000, -1714.000000)">
            <g id="facebook-4" transform="translate(63.000000, 1714.000000)">
                <g id="facebook">
                    <mask id="mask-2" fill="white">
                        <use xlink:href="#path-1"></use>
                    </mask>
                    <g id="Clip-2"></g>
                    <path d="M22.9347017,18.5 L20.0665394,18.5 L20.0665394,28.2365632 L15.8057995,28.2365632 L15.8057995,18.5 L13.6317184,18.5 L13.6317184,15.1452745 L15.8057995,15.1452745 L15.8057995,13.0983532 C15.8057995,10.3997375 17.0226492,8.76343675 20.41358,8.76343675 L23.2817422,8.76343675 L23.2817422,12.1172792 L21.5430072,12.1172792 C20.237852,12.1172792 20.1521957,12.6091408 20.1521957,13.4259666 L20.1521957,15.0622673 L23.3682816,15.0622673 L22.9338186,18.5 L22.9347017,18.5 Z M18.5,0 C8.27599045,0 0,8.27599045 0,18.5 C0,28.7231265 8.27599045,37 18.5,37 C28.7240095,37 37,28.7231265 37,18.5 C37,8.27599045 28.7240095,0 18.5,0 L18.5,0 Z" id="Fill-1" fill="#3B5998" mask="url(#mask-2)"></path>
                </g>
            </g>
        </g>
    </g>
</svg>