<?xml version="1.0" standalone="no"?><!DOCTYPE svg PUBLIC "-//W3C//DTD SVG 1.1//EN" "http://www.w3.org/Graphics/SVG/1.1/DTD/svg11.dtd"><svg t="1619767794867" class="icon" viewBox="0 0 1541 1024" version="1.1" xmlns="http://www.w3.org/2000/svg" p-id="9446" xmlns:xlink="http://www.w3.org/1999/xlink" width="300.9765625" height="200"><defs><style type="text/css"></style></defs><path d="M6.293 1017.725H1523.47V8.785H6.293v1008.94z m1519.686 2.51v-3.764 3.764zM0.02 1024V1.255h1529.725v1021.49H0.02z" fill="#353636" p-id="9447"></path><path d="M3.783 5.02h1523.451v1015.215H3.784z" fill="#00458F" p-id="9448"></path><path d="M1525.98 360.157H917.351V5.02H612.41v355.137H3.783v304.941h608.628v355.137h304.94V665.098h608.628z" fill="#FFFFFF" p-id="9449"></path><path d="M1525.98 903.53L178.214 5.02H3.783v117.96l1346.51 897.255h175.686z" fill="#FFFFFF" p-id="9450"></path><path d="M3.783 903.53L1351.548 5.02h174.431v117.96L179.47 1020.235H3.784z" fill="#FFFFFF" p-id="9451"></path><path d="M1525.98 424.157H853.351V5.02H676.41v419.137H3.783v176.941h672.628v419.137h176.94V601.098h672.628z" fill="#CC3440" p-id="9452"></path><path d="M1525.98 1017.725v-80.313L1116.88 665.098h-120.47z m0-1012.705h-120.471L917.352 330.04v30.117h75.294L1525.979 5.02zM533.351 665.098L3.783 1017.725v2.51h115.451l493.177-327.53v-27.607zM3.783 5.02v80.313l411.608 274.824h121.726z" fill="#CC3440" p-id="9453"></path></svg>