<?xml version="1.0" encoding="UTF-8"?>
<svg width="28px" height="28px" viewBox="0 0 28 28" version="1.1" xmlns="http://www.w3.org/2000/svg" xmlns:xlink="http://www.w3.org/1999/xlink">
   
    <desc>Created with Sketch.</desc>
    <g id="Google" stroke="none" stroke-width="1" fill="none" fill-rule="evenodd">
        <circle id="椭圆形" fill="#DF4930" cx="14" cy="14" r="14"></circle>
        <path d="M18.1750807,18.5456613 C17.1600509,19.4615224 15.7750454,20 14.1226344,20 C11.7301838,20 9.66008393,18.6558791 8.65255066,16.6970956 C8.23759582,15.8866151 8,14.9708404 8,14.0012525 C8,13.0316646 8.23759582,12.1159762 8.65255066,11.3054958 C9.66008393,9.34420731 11.7301838,8 14.1226344,8 C15.7726641,8 17.1576696,8.59505489 18.220148,9.56213784 L16.4650787,11.2835559 C15.8300787,10.688501 15.0226586,10.3873025 14.1250156,10.3873025 C12.5300192,10.3873025 11.1801151,11.4426633 10.6976033,12.8603779 C10.5751012,13.2202267 10.5049867,13.6046932 10.5049867,14.0012525 C10.5049867,14.3978981 10.5751012,14.782451 10.6976033,15.1422998 C11.1801151,16.5600144 12.5300192,17.6152888 14.1226344,17.6152888 C14.947517,17.6152888 15.6476044,17.4022818 16.1951155,17.042433 C16.8451085,16.6163326 17.2750564,15.9821486 17.4176668,15.2304049 L14.1226344,15.2304049 L14.1226344,12.9092676 L19.8900215,12.9092676 C19.9626056,13.3035811 20,13.712406 20,14.1360014 C20,15.9649595 19.3325445,17.5001476 18.1750807,18.5456613" id="路径" fill="#FFFFFF"></path>
    </g>
</svg>