<?xml version="1.0" standalone="no"?><!DOCTYPE svg PUBLIC "-//W3C//DTD SVG 1.1//EN" "http://www.w3.org/Graphics/SVG/1.1/DTD/svg11.dtd"><svg t="1619768303198" class="icon" viewBox="0 0 1534 1024" version="1.1" xmlns="http://www.w3.org/2000/svg" p-id="17693" xmlns:xlink="http://www.w3.org/1999/xlink" width="299.609375" height="200"><defs><style type="text/css"></style></defs><path d="M0 0.538947h1534.976v1023.002948H0z" fill="#DE2910" p-id="17694"></path><path d="M760.562526 507.930947l9.242948 9.269895-9.269895 9.242947-9.242947-9.242947 9.242947-9.269895z" fill="#FF0000" p-id="17695"></path><path d="M760.562526 517.200842c-85.962105-35.004632-127.110737-143.575579-91.082105-228.998737 19.536842-46.807579 92.106105-111.642947 181.113263-89.007158-34.492632 17.488842-57.640421 41.148632-34.977684 75.129264 24.683789 37.052632 12.853895 93.130105-34.492632 115.765894-37.564632 16.976842-69.982316 81.812211-20.587789 127.110737z" fill="#FFFFFF" p-id="17696"></path><path d="M758.999579 518.736842c-18.000842-14.928842-46.834526-30.369684-54.029474-89.546105l-1.024-19.024842c0-47.858526 23.174737-75.129263 23.174737-75.129263l3.072-0.538948v3.098948s-5.658947 6.197895-11.317895 18.539789a127.676632 127.676632 0 0 0-11.317894 53.517474l1.024 18.000842c7.194947 57.640421 33.953684 71.518316 52.466526 86.447158l0.538947 3.098947-1.562947 0.512h-1.024v1.024z m-25.734737-234.118737l14.928842 13.365895 16.976842-10.293895-8.218947 18.02779 14.901895 13.365894-19.536842-2.048-8.245895 18.000843-4.096-19.05179-19.56379-2.048 16.976842-10.293895-4.122947-19.024842z" fill="#FF0000" p-id="17697"></path><path d="M760.562526 517.200842c6.682947-92.618105 97.226105-165.187368 189.359158-157.453474 50.391579 4.096 134.278737 53.490526 139.937684 145.084632-26.731789-27.755789-56.589474-42.172632-81.81221-10.266947-27.755789 34.977684-84.372211 41.148632-120.400842 2.56-27.782737-29.857684-99.301053-41.175579-127.110737 20.075789z" fill="#FFFFFF" p-id="17698"></path><path d="M758.487579 516.176842c8.245895-21.611789 14.416842-54.568421 68.446316-79.25221l17.488842-6.682948c45.271579-14.416842 78.201263-1.050947 78.201263-0.538947l1.050947 2.586947-2.586947 1.024s-7.706947-3.072-21.099789-4.634947a127.838316 127.838316 0 0 0-54.541474 5.658947l-16.976842 6.709895c-52.493474 24.683789-57.640421 54.541474-66.371369 77.177263l-2.586947 1.536-1.536-1.536 0.512-2.048z m214.069895-96.229053l-7.733895 18.000843 14.928842 13.392842-19.563789-2.074948-8.218948 18.000842-4.122947-19.536842-19.56379-2.074947 16.976842-10.266947-4.096-19.56379 14.928843 13.365895 16.437894-9.242948z" fill="#FF0000" p-id="17699"></path><path d="M760.562526 517.200842c90.031158-22.123789 186.260211 42.199579 207.36 132.742737 11.317895 49.421474-9.781895 144.599579-95.205052 178.041263 18.027789-33.953684 22.635789-66.883368-14.928842-81.30021-41.660632-15.952842-64.835368-67.907368-39.073685-114.229895 20.048842-36.028632 8.218947-107.52-58.179368-115.253895z" fill="#FFFFFF" p-id="17700"></path><path d="M760.562526 515.125895c23.147789 1.562947 56.050526-3.072 96.202106 40.663579l11.856842 14.416842c27.755789 38.588632 25.195789 74.105263 25.195789 74.590316l-2.56 2.074947-2.074947-2.074947s0.538947-8.730947-2.048-21.61179a127.029895 127.029895 0 0 0-22.12379-49.906526l-11.317894-14.416842c-39.612632-42.684632-69.470316-38.076632-93.157053-39.612632l-2.048-2.048 1.024-1.562947 1.024-0.512z m156.914527 174.969263l-19.536842-2.074947-8.245895 18.027789-4.096-19.563789-19.56379-2.048 16.976842-9.781895-4.122947-19.56379 14.928842 13.392842 16.976842-10.293894-8.218947 18.000842 14.901895 13.904842z" fill="#FF0000" p-id="17701"></path><path d="M760.562526 517.200842c48.343579 79.225263 17.488842 190.895158-62.275368 238.753684-43.223579 26.246737-139.964632 35.004632-198.629053-36.028631 37.564632 6.709895 70.494316 1.050947 72.542316-39.612632 2.074947-44.247579 44.786526-82.836211 96.229053-72.542316 40.663579 8.218947 104.986947-24.710737 92.106105-90.570105z" fill="#FFFFFF" p-id="17702"></path><path d="M762.610526 516.688842c6.170947 22.635789 20.048842 52.466526-9.269894 104.448l-10.293895 15.952842c-28.294737 38.588632-62.787368 46.834526-63.299369 46.834527l-2.56-1.562948 1.536-2.56s8.245895-2.048 20.07579-8.757895c11.856842-6.682947 26.758737-18.000842 40.636631-36.513684l9.781895-15.440842c28.294737-50.445474 14.928842-77.716211 8.757895-101.376l1.536-2.586947 1.536 0.538947 1.562947 1.024z m-117.840842 203.749053l-4.122947-19.536842-19.56379-2.074948 16.976842-9.754947-4.096-19.56379 14.928843 13.365895 16.976842-9.754947-8.245895 18.000842 14.416842 13.365895-19.563789-2.048-7.706948 18.000842z" fill="#FF0000" p-id="17703"></path><path d="M760.562526 517.200842c-60.227368 70.494316-175.993263 75.129263-245.490526 13.365895-38.049684-33.441684-76.126316-122.987789-26.731789-200.165053 5.12 38.076632 20.587789 67.422316 59.688421 57.128421 42.711579-11.317895 92.106105 17.488842 98.277052 69.470316 4.634947 41.148632 55.565474 92.618105 114.256842 60.200421z" fill="#FFFFFF" p-id="17704"></path><path d="M761.586526 518.736842c-19.563789 12.341895-43.762526 35.004632-101.888 23.174737l-18.027789-4.661895c-45.271579-14.901895-63.272421-45.783579-63.811369-45.783579l0.538948-3.098947 3.072 0.538947s4.122947 7.194947 14.416842 16.437895c9.781895 9.269895 25.195789 20.075789 47.346526 27.809684l17.488842 4.634948c56.589474 11.317895 78.201263-9.781895 98.789053-22.63579l3.098947 0.485053v2.074947l-1.024 1.024zM532.048842 469.342316l16.976842-9.781895-4.122947-19.563789 14.928842 13.392842 16.976842-9.781895-8.218947 18.000842 14.928842 13.392842-19.56379-2.048-8.245894 18.000842-4.096-19.563789-19.56379-2.048z" fill="#FF0000" p-id="17705"></path></svg>