<?xml version="1.0" encoding="UTF-8"?>
<svg width="21px" height="21px" viewBox="0 0 21 21" version="1.1" xmlns="http://www.w3.org/2000/svg" xmlns:xlink="http://www.w3.org/1999/xlink">
    
    <desc>Created with Sketch.</desc>
    <defs>
        <polygon id="path-1" points="0 0 21 0 21 21 0 21"></polygon>
    </defs>
    <g id="页面-1" stroke="none" stroke-width="1" fill="none" fill-rule="evenodd">
        <g id="1.1首页未选中" transform="translate(-27.000000, -2533.000000)">
            <g id="编组备份-10" transform="translate(27.000000, 2533.000000)">
                <mask id="mask-2" fill="white">
                    <use xlink:href="#path-1"></use>
                </mask>
                <g id="Clip-2"></g>
                <path d="M18.233568,19.8588876 C18.233568,19.9849037 18.1310775,20.087014 18.0050094,20.087014 L14.6081465,20.087014 L14.6081465,12.0708765 C14.6081465,11.8187242 14.4035263,11.6143835 14.1510292,11.6143835 L6.83739254,11.6143835 C6.58501566,11.6143835 6.38027522,11.8187242 6.38027522,12.0708765 L6.38027522,20.087014 L2.96621027,20.087014 C2.84002182,20.087014 2.7376516,19.9849037 2.7376516,19.8588876 L2.7376516,8.47479278 L10.1753114,1.04729107 C10.2620434,0.960797661 10.377285,0.912986025 10.499985,0.912986025 C10.6226849,0.912986025 10.7379266,0.960797661 10.8246586,1.04729107 L18.233568,8.44596164 L18.233568,19.8588876 Z M7.29450987,20.0822088 L13.6940321,20.0822088 L13.6940321,12.5273696 L7.29450987,12.5273696 L7.29450987,20.0822088 Z M20.866203,9.78384655 L11.4711187,0.401833981 C11.2117648,0.142714131 10.8668818,0 10.499985,0 C10.1332085,0 9.78820517,0.142714131 9.52885123,0.401833981 L0.133887259,9.78384655 C-0.0446290862,9.96211909 -0.0446290862,10.2511512 0.133887259,10.4294238 C0.312403604,10.6076963 0.601831047,10.6076963 0.780347392,10.4294238 L1.80356844,9.40760021 L1.80356844,20.543507 C1.80356844,20.7956593 2.00830888,21 2.26068576,21 L18.7392842,21 C18.9917813,21 19.1964015,20.7956593 19.1964015,20.543507 L19.1964015,9.40760021 L20.2197428,10.4294238 C20.3088807,10.51856 20.4259268,10.5631282 20.5428526,10.5631282 C20.6598987,10.5631282 20.7769448,10.51856 20.866203,10.4294238 C21.044599,10.2511512 21.044599,9.96211909 20.866203,9.78384655 L20.866203,9.78384655 Z" id="Fill-1" fill="#999999" mask="url(#mask-2)"></path>
            </g>
        </g>
    </g>
</svg>