<svg t="1680591532102" class="icon" viewBox="0 0 1024 1024" version="1.1" xmlns="http://www.w3.org/2000/svg" p-id="989"
  width="200" height="200">
  <path
    d="M955.0336 389.376L744.8064 125.44a107.52 107.52 0 0 0-84.736-40.96H346.3168A107.52 107.52 0 0 0 261.12 126.2592L60.4672 382.976a108.6976 108.6976 0 0 0 8.0384 142.5408l363.9808 371.2512a107.52 107.52 0 0 0 77.1072 32.4608 107.52 107.52 0 0 0 76.8-32.1024l360.448-364.032a108.4416 108.4416 0 0 0 8.192-143.7184z m-51.456 100.4544l-360.3968 364.0832a46.6432 46.6432 0 0 1-33.3312 13.8752 46.4384 46.4384 0 0 1-33.6896-14.0288L112.64 482.4576a46.8992 46.8992 0 0 1-3.4816-61.44L309.3504 163.84a46.7456 46.7456 0 0 1 36.9664-18.0224h313.7536a46.6432 46.6432 0 0 1 36.7104 18.0224l209.92 263.8848a46.8992 46.8992 0 0 1-3.1232 62.1056z"
    fill="#00A0E9" p-id="990"></path>
  <path
    d="M693.4528 484.352l-183.9616 194.1504-180.9408-190.208a30.72 30.72 0 1 0-44.4928 42.3424l203.264 213.6576a30.72 30.72 0 0 0 22.2208 9.5232 30.72 30.72 0 0 0 22.272-9.5744l206.1824-217.6512a30.72 30.72 0 1 0-44.5952-42.24z"
    fill="#00A0E9" p-id="991"></path>
</svg>