<?xml version="1.0" encoding="UTF-8"?>
<svg width="36px" height="36px" viewBox="0 0 36 36" version="1.1" xmlns="http://www.w3.org/2000/svg" xmlns:xlink="http://www.w3.org/1999/xlink">
   
    <desc>Created with Sketch.</desc>
    <g id="页面-1" stroke="none" stroke-width="1" fill="none" fill-rule="evenodd">
        <g id="详情页。" transform="translate(-210.000000, -105.000000)">
            <g id="编组-5" transform="translate(210.000000, 105.000000)">
                <circle id="椭圆形" fill="#FFFFFF" cx="18" cy="18" r="18"></circle>
                <g id="放大" transform="translate(9.000000, 9.000000)" fill="#000000" fill-rule="nonzero">
                    <path d="M1.25602355e-05,0.814182967 L1.25602355e-05,6.23074426 C1.25602355e-05,6.6129099 0.30942858,6.92306336 0.690685559,6.92306336 C1.07194254,6.92306336 1.38135856,6.6129099 1.38135856,6.23074426 L1.38135856,2.32196384 L5.77257839,6.72507034 C6.03091373,6.98402137 6.44947102,6.98402137 6.70915389,6.72507034 C6.96742822,6.46476856 6.96742822,6.0452137 6.70915389,5.78632382 L2.31646271,1.38463821 L6.21594933,1.38463821 C6.5972063,1.38463821 6.90662232,1.0744236 6.90662232,0.692319106 C6.90662232,0.310153463 6.5972063,0 6.21594933,0 L0.812266844,0 C0.308027217,0 1.25602355e-05,0.260362935 1.25602355e-05,0.814181169 L1.25602355e-05,0.814182967 Z M17.1878695,1.79859584e-06 L11.7841332,1.79859584e-06 C11.4028762,1.79859584e-06 11.093523,0.310155262 11.093523,0.692320905 C11.093523,1.07448655 11.402939,1.38464001 11.7841332,1.38464001 L15.6836198,1.38464001 L11.2909825,5.78632562 C11.0326471,6.0452155 11.0326471,6.46476856 11.2909825,6.72507214 C11.5506653,6.98402317 11.9691598,6.98402317 12.227497,6.72507214 L16.6187168,2.32196564 L16.6187168,6.23074606 C16.6187168,6.6129117 16.9281328,6.92306516 17.309327,6.92306516 C17.690645,6.92306516 18,6.6129117 18,6.23074606 L18,0.814184766 C18,0.260366532 17.6934029,1.79859584e-06 17.1878767,1.79859584e-06 L17.1878695,1.79859584e-06 Z M0.812247107,17.9999892 L6.21598342,17.9999892 C6.59717939,17.9999892 6.90665642,17.6898357 6.90665642,17.3076701 C6.90665642,16.9255045 6.59717939,16.6154139 6.21598342,16.6154139 L2.31644297,16.6154139 L6.70908032,12.2137283 C6.96741566,11.9548385 6.96741566,11.5352225 6.70908032,11.275043 C6.44939745,11.016029 6.03090296,11.016029 5.77256583,11.275043 L1.381346,15.6780775 L1.381346,11.7692971 C1.381346,11.3871315 1.07192998,11.076978 0.690672998,11.076978 C0.30941602,11.076978 0,11.3871926 0,11.7692971 L0,17.1858584 C0,17.7396766 0.308007479,17.9999892 0.812245313,17.9999892 L0.812247107,17.9999892 Z M17.9999785,17.1858692 L17.9999785,11.7693079 C17.9999785,11.3871423 17.6905624,11.0769888 17.3093055,11.0769888 C16.9280485,11.0769888 16.6186953,11.3872034 16.6186953,11.7693079 L16.6186953,15.6780883 L12.2274754,11.2750538 C11.9691401,11.0160398 11.5506456,11.0160398 11.2909609,11.2750538 C11.0326256,11.5352944 11.0326256,11.9548475 11.2909609,12.2137391 L15.6835983,16.6154247 L11.7841117,16.6154247 C11.4028547,16.6154247 11.0935015,16.9255782 11.0935015,17.3076809 C11.0935015,17.6899077 11.4029175,18 11.7841117,18 L17.187848,18 C17.6933741,18 17.9999785,17.7396982 17.9999785,17.18588 L17.9999785,17.1858692 Z" id="形状"></path>
                </g>
            </g>
        </g>
    </g>
</svg>