<?xml version="1.0" encoding="UTF-8"?>
<svg width="11px" height="14px" viewBox="0 0 11 14" version="1.1" xmlns="http://www.w3.org/2000/svg" xmlns:xlink="http://www.w3.org/1999/xlink">
   
    <desc>Created with Sketch.</desc>
    <g id="页面-1" stroke="none" stroke-width="1" fill="none" fill-rule="evenodd">
        <g id="第一次达到门槛pc" transform="translate(-1117.000000, -238.000000)">
            <g id="编组-2备份" transform="translate(1114.000000, 237.000000)">
                <rect id="矩形" fill="#D8D8D8" opacity="0" x="0" y="0" width="16" height="16"></rect>
                <g id="编组" transform="translate(2.500000, 1.000000)" fill="#333333">
                    <path d="M2.20964299,7.05602284 L7.29003635,1.36807269 C7.56998788,1.05501624 7.56998788,0.547458419 7.29003635,0.234850893 C7.0107473,-0.078283631 6.55739945,-0.078283631 6.27777916,0.234850893 L0.709466788,6.46863454 C0.430177737,6.78132014 0.430177737,7.28887797 0.709466788,7.60193442 C0.731450776,7.62654719 0.756660013,7.64614371 0.780753488,7.66689183 C0.78492016,7.67200566 0.78811054,7.6778612 0.792277212,7.68289696 C1.54412183,8.5246449 2.10800529,9.15595587 2.4839276,9.57682984 C3.31636725,10.5088101 4.56502672,11.9067806 6.22990602,13.7707411 C6.50291891,14.0764196 6.94537065,14.0764196 7.21838354,13.7707411 C7.4913267,13.4651603 7.4913267,12.9697234 7.21838354,12.6640644 L2.20964299,7.05602284 Z" id="Fill-1备份" transform="translate(4.000000, 7.000000) scale(-1, 1) translate(-4.000000, -7.000000) "></path>
                    <path d="M6.20964299,7.05602284 L11.2900363,1.36807269 C11.5699879,1.05501624 11.5699879,0.547458419 11.2900363,0.234850893 C11.0107473,-0.078283631 10.5573995,-0.078283631 10.2777792,0.234850893 L4.70946679,6.46863454 C4.43017774,6.78132014 4.43017774,7.28887797 4.70946679,7.60193442 C4.73145078,7.62654719 4.75666001,7.64614371 4.78075349,7.66689183 C4.78492016,7.67200566 4.78811054,7.6778612 4.79227721,7.68289696 C5.54412183,8.5246449 6.10800529,9.15595587 6.4839276,9.57682984 C7.31636725,10.5088101 8.56502672,11.9067806 10.229906,13.7707411 C10.5029189,14.0764196 10.9453706,14.0764196 11.2183835,13.7707411 C11.4913267,13.4651603 11.4913267,12.9697234 11.2183835,12.6640644 L6.20964299,7.05602284 Z" id="Fill-1备份-2" transform="translate(8.000000, 7.000000) scale(-1, 1) translate(-8.000000, -7.000000) "></path>
                </g>
            </g>
        </g>
    </g>
</svg>
