<?xml version="1.0" standalone="no"?><!DOCTYPE svg PUBLIC "-//W3C//DTD SVG 1.1//EN" "http://www.w3.org/Graphics/SVG/1.1/DTD/svg11.dtd"><svg t="1619767861896" class="icon" viewBox="0 0 1543 1024" version="1.1" xmlns="http://www.w3.org/2000/svg" p-id="10582" xmlns:xlink="http://www.w3.org/1999/xlink" width="301.3671875" height="200"><defs><style type="text/css"></style></defs><path d="M8.795 1016.461h1519.038V6.282H8.795v1010.18z m1521.551 3.77v-3.77 3.77zM2.513 1024V0h1531.602v1022.744H2.513z" fill="#353636" p-id="10583"></path><path d="M6.282 680.991h1525.32v339.24H6.282z" fill="#009842" p-id="10584"></path><path d="M6.282 343.009h1525.32v339.239H6.282z" fill="#FFFFFF" p-id="10585"></path><path d="M6.282 3.77h1525.32v339.239H6.282z" fill="#F2AB48" p-id="10586"></path><path d="M887.3 459.946l4.397-7.627 7.614 4.385-4.385 7.627z m16.082 40.118l-6.283-7.539 6.283-6.282 6.282 6.282z m-1.257 35.18l-5.026-8.795 8.795-3.77 3.77 7.54z m-13.444 25.343l8.519-2.237 2.236 8.506-8.506 2.237z" fill="#22297B" p-id="10587"></path><path d="M887.3 459.946l4.397-7.627 7.614 4.385-4.385 7.627z m16.082 40.118l-6.283-7.539 6.283-6.282 6.282 6.282z m-1.257 35.18l-5.026-8.795 8.795-3.77 3.77 7.54z m-13.444 25.343l8.519-2.237 2.236 8.506-8.506 2.237zM742.91 376.292l6.207-6.232 6.232 6.207-6.207 6.232z m35.683-1.395l7.614-4.397 4.397 7.614-7.614 4.397z m46.89 13.343l-8.795 2.513-2.513-8.795 8.795-2.513z m20.103 10.052h8.795v8.795h-8.795z m33.924 35.18l-8.795-2.512 2.513-8.796 8.795 2.513z m-6.282 155.8h8.795v8.794h-8.795z m-25.908 33.295l2.224-8.494 8.519 2.224-2.237 8.506z m-31.888 16.962l3.769-7.539 8.795 3.77-5.026 7.538z m-35.18 7.538l6.282-6.282 7.538 6.282-7.538 6.283z m-35.181-1.256l7.539-5.026 5.025 8.795-7.538 3.77z m-33.924-10.051l8.795-2.513 2.513 8.795-8.795 2.513z m-30.155-20.104h8.796v8.796h-8.796z m-25.593-16.333l2.286-8.481 8.494 2.261-2.274 8.506z m-19.161-33.007l4.398-7.614 7.614 4.41-4.398 7.614z m-2.99-42.38l6.282 6.282-6.282 7.54-6.283-7.54z m1.256-35.18l5.026 7.538-8.795 5.026-3.77-7.538z m1.495-31.348l8.494-2.287 2.287 8.493-8.494 2.287z m18.596-32.706l8.795-0.037 0.037 8.795-8.795 0.038z m35.193-23.897l-2.513 8.795-8.795-2.513 2.512-8.795z m19.022-12.389l4.398-7.614 7.614 4.398-4.398 7.614z m56.364 122.956l3.77-54.027-3.77-81.669-3.77 81.669z m0 0l17.59-51.514 17.59-79.156-25.128 77.9z m0 0l30.155-45.232 37.693-71.617-43.976 67.848z m0 0l41.463-35.18 54.027-60.31-60.31 54.027z m0 0l49.001-23.873 67.848-43.975-71.617 37.693z m0 0L819.2 501.32l76.643-25.129-79.156 17.59z m0 0l54.027 3.77 81.669-3.77-81.669-3.77z m0 0l51.514 17.59 79.156 17.59-76.643-25.129z m0 0l45.232 30.154 72.874 37.694-69.105-43.976z m0 0l35.18 41.462 61.566 54.027-55.283-60.309z m0 0l23.872 49.001 43.976 67.848-36.437-71.617z m0 0l10.052 52.77 25.128 77.9-17.59-79.156z m0 0l-3.77 54.027 3.77 81.668 3.77-81.668z m0 0l-17.59 51.514-16.334 79.156 23.872-76.643z m0 0l-30.155 45.232-36.436 72.873 43.975-69.104z m0 0l-40.206 35.18-55.284 61.566 60.31-55.284z m0 0l-49.001 23.872-67.848 43.976 72.874-36.437z m0 0l-52.77 10.051-77.9 25.13 79.156-17.591z m0 0l-54.027-3.77-81.669 3.77 81.669 3.77z m0 0l-51.514-17.59-79.156-16.334 77.9 23.872z m0 0l-45.232-30.155-71.617-36.437 67.848 42.72z m0 0l-35.18-40.206-60.31-55.284 54.027 60.31z m0 0l-23.872-49.001-43.976-67.848 37.693 72.873z m0 0l-10.052-52.77-25.128-77.9 17.59 79.156z" fill="#22297B" p-id="10588"></path><path d="M732.506 643.298c-72.874-20.103-115.593-94.233-96.746-167.107 20.103-72.873 94.233-115.592 167.106-96.746 72.874 20.103 115.593 94.234 96.746 167.107-18.846 72.874-94.233 116.85-167.106 96.746z m75.386-280.186c-81.669-22.616-165.85 26.385-188.466 108.054-21.36 81.668 26.385 165.85 109.31 188.466 81.669 21.36 165.85-26.385 188.466-109.31 21.36-80.413-27.641-164.594-109.31-187.21z" fill="#22297B" p-id="10589"></path><path d="M794.071 518.91c-3.77 15.078-18.846 23.873-33.924 18.847-15.077-3.77-23.872-18.847-18.846-33.924 3.769-15.077 18.846-23.872 33.924-18.846 15.077 5.025 23.872 18.846 18.846 33.923z m31.411-130.67l-8.795 2.513-2.513-8.795 8.795-2.513z m20.103 10.052h8.795v8.795h-8.795z m33.924 35.18l-8.795-2.512 2.513-8.796 8.795 2.513z m-6.282 155.8h8.795v8.794h-8.795z m-25.908 33.295l2.224-8.494 8.519 2.224-2.237 8.506z m-31.888 16.962l3.769-7.539 8.795 3.77-5.026 7.538z m-35.18 7.538l6.282-6.282 7.538 6.282-7.538 6.283z m-35.181-1.256l7.539-5.026 5.025 8.795-7.538 3.77z m-33.924-10.051l8.795-2.513 2.513 8.795-8.795 2.513z m-30.155-20.104h8.796v8.796h-8.796z m-25.593-16.333l2.286-8.481 8.494 2.261-2.274 8.506z m-19.161-33.007l4.398-7.614 7.614 4.41-4.398 7.614z m-2.99-42.38l6.282 6.282-6.282 7.54-6.283-7.54z m1.256-35.18l5.026 7.538-8.795 5.026-3.77-7.538z m1.495-31.348l8.494-2.287 2.287 8.493-8.494 2.287z m18.596-32.706l8.795-0.037 0.037 8.795-8.795 0.038z m35.193-23.897l-2.513 8.795-8.795-2.513 2.512-8.795z m19.022-12.389l4.398-7.614 7.614 4.398-4.398 7.614z m34.1-12.124l6.207-6.232 6.232 6.207-6.207 6.232z" fill="#22297B" p-id="10590"></path></svg>