<?xml version="1.0" encoding="UTF-8"?>
<svg width="22px" height="22px" viewBox="0 0 22 22" version="1.1" xmlns="http://www.w3.org/2000/svg" xmlns:xlink="http://www.w3.org/1999/xlink">
   
    <desc>Created with Sketch.</desc>
    <defs>
        <polygon id="path-1" points="3.97590361e-05 0.102095808 22 0.102095808 22 21.9704383 3.97590361e-05 21.9704383"></polygon>
        <polygon id="path-3" points="0.110832558 0.102095808 11.8910651 0.102095808 11.8910651 21.9704383 0.110832558 21.9704383"></polygon>
        <polygon id="path-5" points="0 0.103555556 22 0.103555556 22 0.891777778 0 0.891777778"></polygon>
    </defs>
    <g id="页面-1" stroke="none" stroke-width="1" fill="none" fill-rule="evenodd">
        <g id="1.2-侧边栏" transform="translate(-19.000000, -770.000000)">
            <g id="编组" transform="translate(19.000000, 770.000000)">
                <g>
                    <mask id="mask-2" fill="white">
                        <use xlink:href="#path-1"></use>
                    </mask>
                    <g id="Clip-2"></g>
                    <path d="M11.0008349,1.03513293 C5.45338916,1.03513293 0.940208434,5.52128862 0.940208434,11.0355162 C0.940208434,16.5497437 5.45338916,21.0357677 11.0008349,21.0357677 C16.5481482,21.0357677 21.0614614,16.5497437 21.0614614,11.0355162 C21.0614614,5.52128862 16.5481482,1.03513293 11.0008349,1.03513293 M11.0008349,21.9704383 C4.93625663,21.9704383 3.97590361e-05,17.0636479 3.97590361e-05,11.0355162 C3.97590361e-05,5.00725269 4.93625663,0.100594012 11.0008349,0.100594012 C17.0654133,0.100594012 22.0016301,5.00725269 22.0016301,11.0355162 C22.0016301,17.0636479 17.0654133,21.9704383 11.0008349,21.9704383" id="Fill-1" fill="#333333" mask="url(#mask-2)"></path>
                </g>
                <g transform="translate(5.000000, 0.000000)">
                    <mask id="mask-4" fill="white">
                        <use xlink:href="#path-3"></use>
                    </mask>
                    <g id="Clip-4"></g>
                    <path d="M6.00087907,1.03513293 C3.32794884,1.03513293 1.10069302,5.61482156 1.10069302,11.0355162 C1.10069302,16.4563425 3.32794884,21.0357677 6.00087907,21.0357677 C8.67366977,21.0357677 10.9010651,16.4563425 10.9010651,11.0355162 C10.9010651,5.61482156 8.62427442,1.03513293 6.00087907,1.03513293 M6.00087907,21.9704383 C2.68455349,21.9704383 0.110832558,17.1571808 0.110832558,11.0355162 C0.110832558,4.91371976 2.68455349,0.100594012 6.00087907,0.100594012 C9.31720465,0.100594012 11.8910651,4.91371976 11.8910651,11.0355162 C11.8910651,17.1571808 9.26766977,21.9704383 6.00087907,21.9704383" id="Fill-3" fill="#333333" mask="url(#mask-4)"></path>
                </g>
                <path d="M3.45895575,18 C3.28267177,18 3.15039662,17.9061839 3.06213031,17.765592 C2.92985517,17.5311839 3.01812148,17.25 3.23853861,17.109408 C5.61986416,15.75 8.30999748,15 11,15 C13.6900155,15 16.3801488,15.7032241 18.7614743,17.0625 C18.9820158,17.203092 19.0701578,17.484408 18.9377583,17.7186839 C18.8054832,17.953092 18.5409329,18.0467759 18.3203914,17.9061839 C16.0714653,16.5938161 13.5577403,15.9376321 11,15.9376321 C8.4421483,15.9376321 5.88441445,16.640592 3.63536405,17.9061839 C3.59123089,18 3.54722206,18 3.45895575,18 M10.9784293,7 C8.29605328,7 5.61355527,6.27713354 3.23414026,4.92194997 C3.01777437,4.78644434 2.93117922,4.51530574 3.06094997,4.28963285 C3.19084269,4.06370524 3.45038419,3.97328326 3.66662812,4.10878888 C5.87321873,5.37367782 8.42570206,6.05146065 10.9784293,6.05146065 C13.5742102,6.05146065 16.0835179,5.37367782 18.3332842,4.06370524 C18.5496501,3.92819962 18.8091916,4.01836689 18.9389623,4.2442945 C19.068855,4.47022211 18.9822599,4.74123335 18.7660159,4.87673897 C16.386357,6.27713354 13.703981,7 10.9784293,7" id="Fill-5" fill="#333333"></path>
                <g transform="translate(0.000000, 11.000000)">
                    <mask id="mask-6" fill="white">
                        <use xlink:href="#path-5"></use>
                    </mask>
                    <g id="Clip-8"></g>
                    <path d="M21.531612,0.891777778 L0.470190361,0.891777778 C0.188033735,0.891777778 -2.65060241e-05,0.734111111 -2.65060241e-05,0.497666667 C-2.65060241e-05,0.261111111 0.188033735,0.103555556 0.470190361,0.103555556 L21.531612,0.103555556 C21.8136361,0.103555556 22.0015639,0.261111111 22.0015639,0.497666667 C22.0015639,0.734111111 21.766588,0.891777778 21.531612,0.891777778" id="Fill-7" fill="#333333" mask="url(#mask-6)"></path>
                </g>
            </g>
        </g>
    </g>
</svg>