<?xml version="1.0" encoding="UTF-8"?>
<svg width="44px" height="44px" viewBox="0 0 44 44" version="1.1" xmlns="http://www.w3.org/2000/svg" xmlns:xlink="http://www.w3.org/1999/xlink">
    
    <desc>Created with Sketch.</desc>
    <g id="页面-1" stroke="none" stroke-width="1" fill="none" fill-rule="evenodd">
        <g id="地址" fill="#333333">
            <g id="编组备份-2">
                <g id="编组">
                    <g id="编组-2" transform="translate(0.000080, 0.201188)">
                        <path d="M22.0015904,1.86907784 C10.9066988,1.86907784 1.88033735,10.8413892 1.88033735,21.8698443 C1.88033735,32.8982994 10.9066988,41.8703473 22.0015904,41.8703473 C33.0962169,41.8703473 42.1228434,32.8982994 42.1228434,21.8698443 C42.1228434,10.8413892 33.0962169,1.86907784 22.0015904,1.86907784 M22.0015904,43.7396886 C9.87243373,43.7396886 -1.0658141e-14,33.9261078 -1.0658141e-14,21.8698443 C-1.0658141e-14,9.81331737 9.87243373,1.42108547e-13 22.0015904,1.42108547e-13 C34.130747,1.42108547e-13 44.0031807,9.81331737 44.0031807,21.8698443 C44.0031807,33.9261078 34.130747,43.7396886 22.0015904,43.7396886" id="Fill-1"></path>
                        <path d="M21.9999205,4.79881198 C15.9247882,4.79881198 10.9999205,9.72367973 10.9999205,15.798812 C10.9999205,19.6998864 14.2356776,24.9953121 20.6644797,31.842755 L21.9999205,33.2471584 L22.7233077,32.4892545 C29.5587686,25.3276379 32.9999205,19.8217949 32.9999205,15.798812 C32.9999205,9.72367973 28.0750527,4.79881198 21.9999205,4.79881198 Z M21.9999205,6.79881198 C26.9704832,6.79881198 30.9999205,10.8282492 30.9999205,15.798812 L30.9904693,16.11734 C30.8077327,19.2478859 27.9747138,23.8687483 22.4565478,29.8512285 L22,30.342 L21.5432931,29.8512285 L20.4399058,28.6329448 C15.4694553,23.0386811 12.9999205,18.722024 12.9999205,15.798812 C12.9999205,10.8282492 17.0293577,6.79881198 21.9999205,6.79881198 Z" id="椭圆形" fill-rule="nonzero"></path>
                        <path d="M21.9999205,10.798812 C19.2384967,10.798812 16.9999205,13.0373882 16.9999205,15.798812 C16.9999205,18.5602357 19.2384967,20.798812 21.9999205,20.798812 C24.7613442,20.798812 26.9999205,18.5602357 26.9999205,15.798812 C26.9999205,13.0373882 24.7613442,10.798812 21.9999205,10.798812 Z M21.9999205,12.798812 C23.6567747,12.798812 24.9999205,14.1419577 24.9999205,15.798812 C24.9999205,17.4556662 23.6567747,18.798812 21.9999205,18.798812 C20.3430662,18.798812 18.9999205,17.4556662 18.9999205,15.798812 C18.9999205,14.1419577 20.3430662,12.798812 21.9999205,12.798812 Z" id="椭圆形" fill-rule="nonzero"></path>
                        <path d="M18.1495686,27.0030132 L18.3668557,28.9911747 C13.9770839,29.470935 10.9999205,30.8185604 10.9999205,31.798812 C10.9999205,32.2955853 11.9659825,33.0569277 13.8308669,33.6785558 C15.9573879,34.3873962 18.8754767,34.798812 21.9999205,34.798812 C25.1243643,34.798812 28.042453,34.3873962 30.1689741,33.6785558 C32.0338585,33.0569277 32.9999205,32.2955853 32.9999205,31.798812 C32.9999205,30.8720622 30.3198121,29.605131 26.283054,29.0696809 L25.7922159,29.0090066 L26.0201192,27.022034 C31.3188009,27.6297864 34.9999205,29.3209549 34.9999205,31.798812 C34.9999205,34.8578522 29.177041,36.798812 21.9999205,36.798812 C14.8227999,36.798812 8.99992048,34.8578522 8.99992048,31.798812 C8.99992048,29.3788147 12.5170686,27.7060963 17.6164786,27.0655798 L18.1495686,27.0030132 Z" id="路径" fill-rule="nonzero"></path>
                    </g>
                </g>
            </g>
        </g>
    </g>
</svg>