<?xml version="1.0" encoding="UTF-8"?>
<svg width="26px" height="26px" viewBox="0 0 26 26" version="1.1" xmlns="http://www.w3.org/2000/svg" xmlns:xlink="http://www.w3.org/1999/xlink">
    <title>编组 2</title>
    <g id="页面-1" stroke="none" stroke-width="1" fill="none" fill-rule="evenodd">
        <g id="编组-2">
            <rect id="矩形" fill="#FFFFFF" x="0" y="0" width="26" height="26"></rect>
            <path d="M5.46268019,5.88967349 C7.81222209,5.45653417 9.47484571,5.1517032 10.450551,4.97518061 C11.5818806,4.77050279 11.2116579,5.93131034 12.0230857,5.88967349 C12.4950548,5.86545531 13.6839351,4.86018173 14.6500431,4.37611944 C14.9892778,4.20614803 14.9999371,4.18425369 15.1273153,4.17308832 C15.7796122,4.1159111 16.46493,4.1159111 17.1832688,4.17308832 C19.9607128,6.27687484 21.4146651,7.74670869 21.5451256,8.58258987 C21.8682254,10.652742 21.3882825,12.2139903 20.7445663,13.4378425 C19.7109729,15.4029411 17.2350977,17.9670621 13.3169407,21.1302054 C12.0878456,20.4502309 10.014618,18.7904855 7.09725778,16.1509691 C4.1798976,13.5114528 3.6350384,10.0910209 5.46268019,5.88967349 Z" id="矩形备份-2" fill="#000000"></path>
            <g id="aixin备份-2" transform="translate(3.000000, 4.000000)" fill="#000000" fill-rule="nonzero">
                <path d="M17.7538902,1.61221023 C16.2834096,0.258176564 14.2074371,-0.27945445 12.1963387,0.138703005 C11.720595,0.238264304 11.4394737,0.656421759 11.5475973,1.09449147 C11.6557208,1.53256119 12.1098398,1.79142056 12.5855835,1.69185927 C14.0128146,1.39317537 15.4832952,1.7715083 16.5212815,2.72729677 C18.7053776,4.73843501 18.7053776,8.00404561 16.5212815,9.99527158 L9.94736842,16.0685108 L3.35183066,10.0151838 C1.18935927,8.00404561 1.18935927,4.73843501 3.35183066,2.74720903 C4.99530892,1.23387729 7.67677346,1.23387729 9.32025172,2.74720903 L10.7907323,4.1012427 C10.96373,4.26054077 12.4342105,5.59466218 13.9695652,5.59466218 L14.0776888,5.59466218 C14.7264302,5.57474992 15.2886728,5.29597828 15.721167,4.81808405 C16.023913,4.47957563 15.9590389,3.98176914 15.5914188,3.7029975 C15.2237986,3.42422586 14.6831808,3.48396264 14.3804348,3.82247106 C14.2506865,3.98176914 14.1209382,4.0016814 14.0128146,4.02159366 C13.4505721,4.06141818 12.5207094,3.44413812 12.0449657,2.98615615 L10.5744851,1.63212249 C8.26064073,-0.498489307 4.47631579,-0.498489307 2.14084668,1.63212249 C-0.713615561,4.26054077 -0.713615561,8.52176436 2.14084668,11.1501826 L9.34187643,17.7610529 C9.51487414,17.920351 9.73112128,18 9.94736842,18 C10.1636156,18 10.3798627,17.920351 10.5528604,17.7610529 L17.7538902,11.1302704 C19.1378719,9.85588576 19.8947368,8.16334368 19.8947368,6.37124031 C19.8947368,4.57913693 19.1378719,2.88659485 17.7538902,1.61221023 Z" id="路径"></path>
                <path d="M4.05629895,4.44939349 C3.23857667,4.99209069 2.84210526,5.8061365 2.84210526,6.85535109 C2.84210526,7.25332905 3.2881356,7.57894737 3.83328379,7.57894737 C4.37843197,7.57894737 4.82446231,7.25332905 4.82446231,6.85535109 C4.82446231,6.24029426 5.02269801,5.78804659 5.39438996,5.5347879 C5.8404203,5.22725948 6.45990687,5.24534939 6.5094658,5.24534939 C7.05461399,5.2815292 7.52542379,4.97400078 7.57498271,4.57602283 C7.62454164,4.17804488 7.20329077,3.83433665 6.65814258,3.79815684 C6.48468634,3.78006693 5.12181587,3.72579721 4.05629895,4.44939349 L4.05629895,4.44939349 Z" id="路径"></path>
            </g>
        </g>
    </g>
</svg>