<?xml version="1.0" encoding="UTF-8"?>
<svg width="54px" height="54px" viewBox="0 0 54 54" version="1.1" xmlns="http://www.w3.org/2000/svg" xmlns:xlink="http://www.w3.org/1999/xlink">
   
    <desc>Created with Sketch.</desc>
    <g id="页面-1" stroke="none" stroke-width="1" fill="none" fill-rule="evenodd">
        <g id="详情页-pre-sale无评论" transform="translate(-1506.000000, -583.000000)">
            <rect fill="#FFFFFF" x="0" y="0" width="1920" height="3551"></rect>
            <g id="编组-4" transform="translate(1506.000000, 583.000000)">
                <g id="编组备份-14" transform="translate(15.000000, 18.000000)" stroke="#333333" stroke-width="2">
                    <path d="M21.2653679,2.50847236 C20.1956638,1.48039507 18.8069305,0.9799221 17.4264958,1.00061677 C16.0450343,1.02132683 14.671167,1.5640019 13.6329295,2.62519246 C13.4579373,2.80306617 13.2490155,3.00909923 12.6931972,3.54379967 C12.3682009,3.85644801 12.1600814,4.05493394 12.0063866,4.19945027 C11.6913626,3.909109 11.5091405,3.73700429 11.3096494,3.54669237 C11.0400595,3.28950727 10.8051682,3.06225982 10.2511064,2.51090599 C9.18114033,1.48124089 7.79126387,0.979904555 6.4096845,1.00061677 C5.02824182,1.02132694 3.65437612,1.56400288 2.61613961,2.62519246 C1.54782999,3.70724256 1.01096472,5.11819632 1.00016635,6.53197861 C0.98939298,7.94248891 1.50211874,9.3569333 2.54059604,10.4482237 L11.9998898,19.6079749 L21.4593189,10.4474675 C22.5020411,9.35234734 23.0140184,7.93087931 22.9823357,6.50046363 C22.9507729,5.07545776 22.3799432,3.64373188 21.2653679,2.50847236 Z" id="Fill-1"></path>
                </g>
                <circle id="椭圆形" stroke="#E6E6E6" cx="27" cy="27" r="26.5"></circle>
            </g>
        </g>
    </g>
</svg>