<?xml version="1.0" standalone="no"?><!DOCTYPE svg PUBLIC "-//W3C//DTD SVG 1.1//EN" "http://www.w3.org/Graphics/SVG/1.1/DTD/svg11.dtd"><svg t="1618214155737" class="icon" viewBox="0 0 1024 1024" version="1.1" xmlns="http://www.w3.org/2000/svg" p-id="10857" xmlns:xlink="http://www.w3.org/1999/xlink" width="200" height="200"><defs><style type="text/css"></style></defs><path d="M93.312 170.666667h834.602667c53.12 0 94.976 42.282667 94.976 92.629333v497.365333c0 52.010667-41.813333 92.672-93.354667 92.672H93.312A93.482667 93.482667 0 0 1 0 760.661333V263.296C0 212.949333 41.813333 170.666667 93.312 170.666667z m0 0" fill="#FFFFFF" p-id="10858"></path><path d="M0 170.666667h342.656v682.666666H0z" fill="#006847" p-id="10859"></path><path d="M686.933333 170.666667H1024v682.666666h-337.066667z" fill="#CE1126" p-id="10860"></path><path d="M402.176 512c0 62.848 50.432 113.749333 112.597333 113.749333 62.208 0 112.64-50.901333 112.64-113.749333s-50.432-113.792-112.64-113.792c-62.165333 0-112.597333 50.944-112.597333 113.792z m0 0" fill="#EABC28" p-id="10861"></path></svg>