<?xml version="1.0" standalone="no"?><!DOCTYPE svg PUBLIC "-//W3C//DTD SVG 1.1//EN" "http://www.w3.org/Graphics/SVG/1.1/DTD/svg11.dtd"><svg t="1618214295273" class="icon" viewBox="0 0 1024 1024" version="1.1" xmlns="http://www.w3.org/2000/svg" p-id="14913" xmlns:xlink="http://www.w3.org/1999/xlink" width="200" height="200"><defs><style type="text/css"></style></defs><path d="M64 288h896v448H64z" fill="#00247D" opacity=".76" p-id="14914"></path><path d="M944 304v416H80V304h864m16-16H64v448h896V288z" fill="#00247D" p-id="14915"></path><path d="M512 288h-49.95l-136.81 68.59V288h-74.77v67.98L114.88 288H64v24.56l99.84 50.05H64v74.89h99.84L64 487.56v24.56h50.88l135.59-67.98v67.98h74.77v-68.59l136.81 68.59H512v-25.03l-98.91-49.59H512v-74.89h-98.91L512 313.03z" fill="#FFFFFF" p-id="14916"></path><path d="M310.31 288.12h-44.68v89.54H64v44.8h201.63v89.66h44.68v-89.66H512v-44.8H310.31z" fill="#ED293A" p-id="14917"></path><path d="M512 288.12h-33.84l-148.94 74.61h33.85zM64 512.12h33.84l148.94-74.62h-33.85zM212.94 362.61L64.01 288H64v16.95l115.1 57.66zM363.06 437.5l148.93 74.62h0.01v-16.95L396.9 437.5z" fill="#ED293A" p-id="14918"></path><path d="M735.81 658.93l-19.92 14.46 7.61-23.41-19.92-14.46h24.62l7.61-23.42 7.6 23.42h24.62l-19.92 14.46 7.61 23.41z" fill="#CC152B" p-id="14919"></path><path d="M735.81 618.58l5.26 16.17 0.9 2.76h19.92l-13.76 10-2.35 1.71 0.9 2.76 5.26 16.17-13.76-10-2.35-1.71-2.35 1.71-13.76 10 5.26-16.18 0.9-2.76-2.35-1.71-13.76-10h19.92l0.9-2.76 5.22-16.16m0-12.95l-9.06 27.88h-29.32l23.72 17.23-9.06 27.88 23.72-17.23 23.72 17.23-9.06-27.88 23.72-17.23h-29.32l-9.06-27.88z" fill="#FFFFFF" p-id="14920"></path><path d="M824.63 464.52l-14.95 10.87 5.71-17.58-14.95-10.86h18.48l5.71-17.58 5.71 17.58h18.48l-14.95 10.86 5.71 17.58z" fill="#CC152B" p-id="14921"></path><path d="M824.63 435.85l3.36 10.34 0.9 2.76h13.78l-8.79 6.39-2.35 1.71 0.9 2.76 3.36 10.34-8.79-6.39-2.35-1.71-2.35 1.71-8.79 6.39 3.36-10.34 0.9-2.76-2.35-1.71-8.79-6.39h13.78l0.9-2.76 3.32-10.34m0-12.95l-7.16 22.05h-23.18l18.75 13.63-7.16 22.05L824.63 467l18.75 13.63-7.16-22.05 18.75-13.63H831.8l-7.17-22.05z" fill="#FFFFFF" p-id="14922"></path><path d="M735.76 388.8l-16.82 12.22 6.42-19.78-16.82-12.22h20.8l6.42-19.78 6.43 19.78h20.8l-16.83 12.22 6.43 19.78z" fill="#CC152B" p-id="14923"></path><path d="M735.76 355.71l4.08 12.55 0.9 2.76h16.1l-10.67 7.75-2.35 1.71 0.9 2.76 4.08 12.55-10.67-7.75-2.35-1.71-2.35 1.71-10.67 7.75 4.08-12.55 0.9-2.76-2.35-1.71-10.67-7.75h16.1l0.9-2.76 4.04-12.55m0-12.95l-7.88 24.25h-25.5L723.01 382l-7.88 24.25 20.63-14.99 20.63 14.99-7.88-24.25 20.63-14.99h-25.5l-7.88-24.25z" fill="#FFFFFF" p-id="14924"></path><path d="M631.91 492.49l-16.83 12.22 6.43-19.78-16.83-12.23h20.8l6.43-19.78 6.43 19.78h20.8l-16.83 12.23 6.43 19.78z" fill="#CC152B" p-id="14925"></path><path d="M631.91 459.39l4.08 12.55 0.9 2.76h16.1l-10.67 7.75-2.35 1.71 0.9 2.76 4.08 12.55-10.67-7.75-2.35-1.71-2.35 1.71-10.67 7.75 4.08-12.55 0.9-2.76-2.35-1.71-10.67-7.75h16.1l0.9-2.76 4.04-12.55m0-12.94l-7.88 24.25h-25.5l20.63 14.99-7.88 24.25 20.63-14.99 20.63 14.99-7.88-24.25 20.63-14.99h-25.5l-7.88-24.25z" fill="#FFFFFF" p-id="14926"></path></svg>