<?xml version="1.0" encoding="UTF-8"?>
<svg width="50px" height="32px" viewBox="0 0 50 32" version="1.1" xmlns="http://www.w3.org/2000/svg" xmlns:xlink="http://www.w3.org/1999/xlink">
   
    <desc>Created with Sketch.</desc>
    <g id="页面-1" stroke="none" stroke-width="1" fill="none" fill-rule="evenodd">
        <g id="unpaid支付" transform="translate(-12.000000, -666.000000)">
            <g id="编组-2" transform="translate(12.000000, 666.000000)">
                <rect id="矩形" stroke="#003087" fill="#FFFFFF" x="0.5" y="0.5" width="49" height="31"></rect>
                <g id="Paypal" transform="translate(9.000000, 3.000000)" fill-rule="nonzero">
                    <path d="M21.2408708,18.6396971 L18.8204395,18.6396971 C18.6664119,18.6396971 18.5123837,18.7497168 18.4903808,18.9257482 L17.5222077,25.1308632 C17.5002037,25.2408828 17.5882194,25.3509025 17.7202432,25.3509025 L18.9524632,25.3509025 C19.0624829,25.3509025 19.1725025,25.2628866 19.1725025,25.152867 L19.4585536,23.392553 C19.4805575,23.2385254 19.6125812,23.106502 19.7886123,23.106502 L20.5587502,23.106502 C22.1650377,23.106502 23.0671991,22.3363641 23.3092402,20.7960882 C23.4192599,20.1359709 23.3092402,19.607877 23.0011845,19.2338095 C22.6491228,18.8377391 22.0550143,18.6396971 21.2408705,18.6396971 L21.2408708,18.6396971 Z M21.504918,20.906102 C21.3728946,21.7862605 20.7127772,21.7862605 20.0746628,21.7862605 L19.7005953,21.7862605 L19.9646425,20.15797 C19.9646425,20.0699541 20.0526583,19.9819386 20.162678,19.9819386 L20.3167056,19.9819386 C20.7567848,19.9819386 21.1748582,19.9819386 21.3728934,20.2239817 C21.526921,20.3780093 21.5489248,20.5980492 21.5049169,20.906105 L21.504918,20.906102 Z" id="形状" fill="#009CDE"></path>
                    <path d="M3.96777519,18.6396971 L1.54734387,18.6396971 C1.39331628,18.6396971 1.23928812,18.7497168 1.21728518,18.9257482 L0.249112063,25.1308632 C0.227108131,25.2408828 0.3151238,25.3509025 0.447147567,25.3509025 L1.59135296,25.3509025 C1.74538054,25.3509025 1.89940871,25.2408828 1.92141165,25.0648514 L2.18545889,23.3925521 C2.20746282,23.2385246 2.33948647,23.1065011 2.51551757,23.1065011 L3.28565548,23.1065011 C4.89194303,23.1065011 5.79410441,22.3363632 6.03614549,20.7960874 C6.14616515,20.13597 6.03614549,19.6078761 5.72808974,19.2338086 C5.39803106,18.8377382 4.78191956,18.6396971 3.96777578,18.6396971 L3.96777519,18.6396971 Z M4.25382625,20.906102 C4.12180278,21.7862605 3.46168541,21.7862605 2.82357097,21.7862605 L2.44950349,21.7862605 L2.71355073,20.15797 C2.71355073,20.0699541 2.80156657,19.9819386 2.91158623,19.9819386 L3.06561381,19.9819386 C3.50569304,19.9819386 3.92376639,19.9819386 4.1218016,20.2239817 C4.27582918,20.3780093 4.297833,20.5980492 4.25382507,20.906105 L4.25382625,20.906102 Z M11.2070586,20.8620941 L10.0408503,20.8620941 C9.95283444,20.8620941 9.86481889,20.9281058 9.84281478,21.0381255 L9.79880686,21.3681842 L9.73279512,21.2581645 C9.49075199,20.9061029 8.91864841,20.7740794 8.36855158,20.7740794 C7.09232271,20.7740794 5.99212612,21.7422526 5.77208798,23.1064961 C5.66206832,23.7886193 5.8160959,24.4267308 6.2121672,24.8888159 C6.56422882,25.3068893 7.07031978,25.4829216 7.66442541,25.4829216 C8.69861027,25.4829216 9.27071296,24.8228042 9.27071296,24.8228042 L9.22670504,25.1528629 C9.20470111,25.2628825 9.29271678,25.3729022 9.42474054,25.3729022 L10.4589254,25.3729022 C10.612953,25.3729022 10.7669811,25.2628825 10.7889841,25.0868511 L11.4270985,21.1261469 C11.4270985,20.9941234 11.3390827,20.8620997 11.2070592,20.8620997 L11.2070586,20.8620941 Z M9.60077106,23.128499 C9.4907514,23.7886164 8.96265663,24.2286956 8.30253926,24.2286956 C7.97248057,24.2286956 7.68642776,24.118676 7.51039842,23.9206399 C7.33436702,23.7226044 7.26835528,23.4365548 7.33436702,23.1064932 C7.44438668,22.4463758 7.97248145,21.9842936 8.63259882,21.9842936 C8.96265751,21.9842936 9.22670445,22.0943133 9.40273673,22.2923494 C9.57876813,22.5123887 9.64477986,22.7984403 9.60077223,23.128499 L9.60077106,23.128499 Z" id="形状" fill="#003087"></path>
                    <path d="M28.4582499,20.8620932 L27.2920416,20.8620932 C27.2040257,20.8620932 27.1160102,20.928105 27.0940061,21.0381246 L27.0499981,21.3681833 L26.9839864,21.2581636 C26.7419433,20.906102 26.1698397,20.7740786 25.6197429,20.7740786 C24.343514,20.7740786 23.2433174,21.7422517 23.0232793,23.1064952 C22.9132596,23.7886184 23.0672872,24.4267299 23.4633585,24.888815 C23.8154201,25.3068884 24.3215111,25.4829207 24.9156167,25.4829207 C25.9498015,25.4829207 26.5219042,24.8228033 26.5219042,24.8228033 L26.4778963,25.152862 C26.4558924,25.2628816 26.5439081,25.3729013 26.6759318,25.3729013 L27.7101167,25.3729013 C27.8641443,25.3729013 28.0181724,25.2628816 28.0401754,25.0868502 L28.6782898,21.126146 C28.6782898,20.9941226 28.590274,20.8620988 28.4582505,20.8620988 L28.4582499,20.8620932 Z M26.8519623,23.1284981 C26.7419427,23.7886155 26.2138479,24.2286947 25.5537305,24.2286947 C25.2236719,24.2286947 24.937619,24.1186751 24.7615897,23.920639 C24.5855583,23.7226035 24.5195466,23.4365539 24.5855583,23.1064923 C24.695578,22.4463749 25.2236727,21.9842927 25.8837901,21.9842927 C26.2138488,21.9842927 26.4778957,22.0943124 26.653928,22.2923485 C26.8299594,22.5123878 26.9179753,22.7984395 26.8519635,23.1284981 L26.8519623,23.1284981 Z" id="形状" fill="#009CDE"></path>
                    <path d="M17.3901812,20.8620838 L16.2239729,20.8620838 C16.1139533,20.8620838 16.0039336,20.9061011 15.9379219,21.0161208 L14.3316343,23.3925463 L13.6495111,21.1261413 C13.6055032,20.9941179 13.4734797,20.8840982 13.3194524,20.8840982 L12.175247,20.8840982 C12.0432235,20.8840982 11.9332039,21.0161217 11.9772115,21.1481455 L13.2534404,24.9108056 L12.0432232,26.6051079 C11.9552074,26.7371313 12.0432232,26.9131636 12.1972508,26.9131636 L13.3634591,26.9131636 C13.4734788,26.9131636 13.5834985,26.8691557 13.6275064,26.7811401 L17.5002106,21.1921425 C17.6542382,21.060119 17.5442185,20.8620838 17.3901909,20.8620838 L17.3901812,20.8620838 Z" id="路径" fill="#003087"></path>
                    <path d="M29.8442938,18.7937118 L28.8541178,25.1088414 C28.8321139,25.2188611 28.9201295,25.3288808 29.0521533,25.3288808 L30.0423293,25.3288808 C30.1963569,25.3288808 30.3503851,25.2188611 30.372388,25.0428297 L31.3405611,18.8377147 C31.3625651,18.727695 31.2745494,18.6176754 31.1425256,18.6176754 L30.0203261,18.6176754 C29.9323103,18.6396793 29.8442947,18.7056912 29.8442947,18.7937068 L29.8442938,18.7937118 Z" id="路径" fill="#009CDE"></path>
                    <path d="M21.4169001,5.10727638 C21.6149356,3.83104751 21.4169001,2.950892 20.7347769,2.15874822 C19.964639,1.27858978 18.5783925,0.904525226 16.7960874,0.904525226 L11.6691631,0.904525226 C11.3171015,0.904525226 10.9870398,1.16857247 10.943034,1.52063673 L8.78664959,15.1190721 C8.74264167,15.3831194 8.96268099,15.6251631 9.22672882,15.6251631 L12.3952863,15.6251631 L12.175247,17.0114096 C12.1312391,17.2534527 12.3292746,17.4514888 12.5713174,17.4514888 L15.2557957,17.4514888 C15.5858544,17.4514888 15.8499013,17.2094456 15.8939101,16.901389 L15.937918,16.7693655 L16.444009,13.5567787 L16.444009,13.4027511 C16.4880169,13.0726924 16.7740677,12.8526543 17.0821234,12.8526543 L17.4781939,12.8526543 C20.0746575,12.8526543 22.0990154,11.7964665 22.6931181,8.75992073 C22.9351613,7.48369186 22.8031378,6.40550114 22.1430213,5.67936323 C21.9669899,5.45932391 21.7029421,5.26128987 21.4168922,5.10726053" id="路径" fill="#009CDE"></path>
                    <path d="M21.4169001,5.10727638 C21.6149356,3.83104751 21.4169001,2.950892 20.7347769,2.15874822 C19.964639,1.27858978 18.5783925,0.904525226 16.7960874,0.904525226 L11.6691631,0.904525226 C11.3171015,0.904525226 10.9870398,1.16857247 10.943034,1.52063673 L8.78664959,15.1190721 C8.74264167,15.3831194 8.96268099,15.6251631 9.22672882,15.6251631 L12.3952863,15.6251631 L13.1874272,10.5642535 L13.1654232,10.7182811 C13.2094311,10.3662194 13.5174848,10.1021696 13.8915523,10.1021696 L15.4098223,10.1021696 C18.3803651,10.1021696 20.7127759,8.91395829 21.3728933,5.41533331 L21.4169012,5.10727756" id="路径" fill="#012169"></path>
                    <path d="M14.0455944,5.1292617 C14.0896023,4.90922239 14.2216258,4.73319128 14.397656,4.64517661 C14.4856719,4.60116869 14.5736874,4.57916488 14.6617033,4.57916488 L18.7104368,4.57916488 C19.172519,4.57916488 19.6346011,4.6231728 20.0526774,4.68918454 C20.1626971,4.71118847 20.2947206,4.73319246 20.3827361,4.75519627 C20.4927558,4.7772002 20.6027754,4.79920419 20.7127948,4.84321212 L20.8668224,4.88722004 C21.0648579,4.95323178 21.2628928,5.04124762 21.4169192,5.12926317 C21.6149547,3.8530343 21.4169192,2.97287879 20.734796,2.18073501 C19.9646581,1.30057657 18.5784116,0.926512015 16.7961064,0.926512015 L11.6691822,0.926512015 C11.3171205,0.926512015 10.9870589,1.19055926 10.9430531,1.54262352 L8.78666867,15.1410589 C8.74266075,15.4051062 8.96270007,15.6471499 9.2267479,15.6471499 L12.3953054,15.6471499 L13.1874462,10.5862403 L14.0455988,5.12927198 L14.0455944,5.1292617 Z" id="路径" fill="#003087"></path>
                </g>
            </g>
        </g>
    </g>
</svg>