<?xml version="1.0" encoding="UTF-8"?>
<svg width="18px" height="18px" viewBox="0 0 18 18" version="1.1" xmlns="http://www.w3.org/2000/svg" xmlns:xlink="http://www.w3.org/1999/xlink">
   
    <desc>Created with Sketch.</desc>
    <g id="页面-1" stroke="none" stroke-width="1" fill="none" fill-rule="evenodd">
        <g id="首页-选择货币和语言下拉样式" transform="translate(-1814.000000, -74.000000)" fill="#666666" fill-rule="nonzero">
            <g id="分组-7" transform="translate(1622.000000, 72.000000)">
                <g id="分组-5" transform="translate(189.000000, 0.000000)">
                    <g id="语言" transform="translate(3.000000, 2.000000)">
                        <path d="M18,9 C18,4.01694914 13.9830508,0 9,0 C4.01694914,-4.0222063e-16 0,4.01694914 0,9 C0,13.9322034 4.01694916,18 8.94915254,18 L9.05084746,18 C13.9830509,18 18,13.9322034 18,9 Z M2.49152542,14.0847458 C1.47457626,12.7627119 0.813559313,11.1355932 0.711864411,9.35593221 L4.72881355,9.35593221 C4.72881355,10.1694915 4.83050848,11.5423729 5.18644068,12.9152542 C4.11864406,13.1694915 3.10169491,13.5254237 2.49152542,14.0847458 Z M2.44067796,3.91525424 C3.05084745,4.47457627 4.0677966,4.88135594 5.18644068,5.13559322 C4.88135594,6.50847458 4.77966101,7.83050848 4.77966101,8.64406779 L0.762711871,8.64406779 C0.813559332,6.86440679 1.42372882,5.23728814 2.44067796,3.91525424 Z M15.559322,3.91525424 C16.5762712,5.23728814 17.1864407,6.86440679 17.2881356,8.64406779 L13.2711864,8.64406779 C13.2711864,7.83050848 13.1694915,6.50847458 12.8135593,5.13559322 C13.9322034,4.88135594 14.9491525,4.47457627 15.559322,3.91525424 Z M12.559322,8.64406779 L9.35593221,8.64406779 L9.35593221,5.49152543 C10.1694915,5.49152543 11.1355932,5.3898305 12.1016949,5.23728814 C12.4576271,6.6101695 12.5084746,7.9322034 12.559322,8.64406779 Z M9.35593221,4.77966101 L9.35593221,0.915254234 C10.6779661,1.62711865 11.440678,3.10169491 11.8983051,4.57627119 C11.0338983,4.72881357 10.1186441,4.77966101 9.35593221,4.77966101 Z M8.64406779,0.915254234 L8.64406779,4.77966101 C7.88135592,4.77966101 6.96610169,4.67796609 6.10169491,4.57627119 C6.50847458,3.10169493 7.32203389,1.67796611 8.64406779,0.915254234 Z M8.64406779,5.49152543 L8.64406779,8.64406779 L5.44067796,8.64406779 C5.44067796,7.93220338 5.54237289,6.61016948 5.89830509,5.2881356 C6.91525425,5.44067798 7.9322034,5.49152543 8.64406779,5.49152543 Z M5.44067796,9.35593221 L8.64406779,9.35593221 L8.64406779,12.559322 C7.93220338,12.559322 6.96610169,12.6101695 5.89830509,12.8135593 C5.54237289,11.3898305 5.49152543,10.0677966 5.44067796,9.35593221 Z M8.64406779,13.2711864 L8.64406779,17.0847458 C7.32203389,16.3728814 6.55932202,14.9491526 6.10169491,13.4745763 C6.96610169,13.3220339 7.88135592,13.2711864 8.64406779,13.2711864 Z M9.35593221,17.0847458 L9.35593221,13.2711864 C10.1186441,13.2711864 11.0338983,13.3728814 11.8983051,13.5254237 C11.440678,14.9491526 10.6779661,16.3728814 9.35593221,17.0847458 Z M9.35593221,12.559322 L9.35593221,9.35593221 L12.559322,9.35593221 C12.559322,10.0677966 12.4576271,11.3898305 12.1016949,12.8135593 C11.1355932,12.6610169 10.1186441,12.559322 9.35593221,12.559322 Z M13.2711864,9.35593221 L17.2881356,9.35593221 C17.1864407,11.1355932 16.5762712,12.7627119 15.5084746,14.0847458 C14.8983051,13.5254237 13.8813559,13.1694915 12.8135593,12.9152542 C13.1186441,11.5423729 13.220339,10.1694915 13.2711864,9.35593221 Z M15.1016949,3.40677965 C14.5932203,3.86440678 13.6779661,4.22033897 12.661017,4.42372881 C12.2542373,3.10169491 11.5932203,1.77966101 10.5254237,0.864406774 C12.3050847,1.16949152 13.8813559,2.08474575 15.1016949,3.40677965 Z M7.47457628,0.864406774 C6.40677966,1.77966101 5.74576271,3.10169491 5.33898304,4.47457627 C4.32203391,4.22033899 3.40677965,3.86440678 2.89830509,3.40677965 C4.11864406,2.08474575 5.69491525,1.16949152 7.47457628,0.864406774 Z M2.94915255,14.6440678 C3.45762711,14.1864407 4.37288137,13.8305085 5.3898305,13.6271187 C5.79661017,14.9491526 6.45762712,16.2711865 7.47457628,17.1355932 C5.69491527,16.8305085 4.11864406,15.9152542 2.94915255,14.6440678 Z M10.5254237,17.1355932 C11.5932203,16.220339 12.2033898,14.9491526 12.6101695,13.6271187 C13.6271187,13.8305085 14.5423729,14.1864407 15.0508475,14.6440678 C13.8813559,15.9152542 12.3050848,16.8305085 10.5254237,17.1355932 Z" id="形状"></path>
                    </g>
                </g>
            </g>
        </g>
    </g>
</svg>