<?xml version="1.0" standalone="no"?><!DOCTYPE svg PUBLIC "-//W3C//DTD SVG 1.1//EN" "http://www.w3.org/Graphics/SVG/1.1/DTD/svg11.dtd"><svg t="1632902735410" class="icon" viewBox="0 0 1024 1024" version="1.1" xmlns="http://www.w3.org/2000/svg" p-id="1614" xmlns:xlink="http://www.w3.org/1999/xlink" width="200" height="200"><defs><style type="text/css"></style></defs><path d="M494.948174 133.87687c173.901913 0.667826 314.813217 142.514087 314.145391 316.148869v3.472696c-2.31513 124.082087-76.933565 227.06087-139.130435 291.617391-17.630609 18.432-36.507826 36.10713-55.919304 52.669217a27.737043 27.737043 0 0 1-35.929043-42.073043c17.986783-15.36 35.483826-31.788522 51.956869-48.973913 55.251478-57.344 121.633391-148.123826 123.63687-254.21913 0.578783-145.853217-115.578435-262.767304-258.982957-263.390609h-0.979478c-142.914783 0-259.428174 115.845565-260.006957 258.626782a338.365217 338.365217 0 0 0 69.008696 193.892174c49.864348 66.337391 125.462261 136.637217 197.320348 183.429566a27.603478 27.603478 0 0 1-15.137391 50.799304 27.469913 27.469913 0 0 1-15.09287-4.452174c-76.933565-50.131478-157.874087-125.373217-211.300174-196.474435a393.572174 393.572174 0 0 1-80.13913-225.28c0.667826-175.326609 142.024348-315.792696 315.347478-315.792695h1.202087z m-1.335652 199.68a120.07513 120.07513 0 0 1 120.030608 119.897043 120.07513 120.07513 0 0 1-240.016695 0 27.692522 27.692522 0 0 1 55.385043 0c0 35.57287 28.983652 64.556522 64.601044 64.556522s64.645565-28.983652 64.645565-64.556522c0-35.617391-28.93913-64.556522-64.645565-64.556522a27.692522 27.692522 0 1 1 0-55.296z" fill="#252525" p-id="1615"></path></svg>