<?xml version="1.0" encoding="UTF-8"?>
<svg width="22px" height="21px" viewBox="0 0 22 21" version="1.1" xmlns="http://www.w3.org/2000/svg" xmlns:xlink="http://www.w3.org/1999/xlink">
    <g id="页面-1" stroke="none" stroke-width="1" fill="none" fill-rule="evenodd">
        <g id="1.12" transform="translate(-129.000000, -248.000000)" fill="#333333">
            <g id="客服" transform="translate(129.000000, 248.000000)">
                <rect id="矩形" x="9" y="18" width="5" height="2"></rect>
                <g id="编组" fill-rule="nonzero">
                    <path d="M21.4404504,8.79441624 C21.1097494,8.47461928 20.6136978,8.26142132 20.1727631,8.20812184 C19.511361,3.51776652 15.5980655,0 10.968251,0 C6.22820283,0 2.3700241,3.51776649 1.70862203,8.26142132 C0.716518925,8.4213198 0,9.22081218 0,10.180203 L0,12.6852792 C0,13.751269 0.936986273,14.6573604 2.03932306,14.6573604 L2.75584196,14.6573604 C3.85817875,14.6573604 4.795165,13.751269 4.795165,12.6852792 L4.795165,10.180203 C4.795165,9.11421319 3.91329558,8.20812184 2.81095879,8.20812184 C3.41724403,4.10406092 6.83448804,1.06598986 10.9131341,1.06598986 C14.9366634,1.06598986 18.3539074,4.10406092 19.0153095,8.20812184 C18.0232064,8.31472083 17.1964538,9.1675127 17.1964538,10.180203 L17.1964538,12.6852792 C17.1964538,13.5380711 17.802739,14.284264 18.5743748,14.5507614 C17.6373885,16.8426396 16.2043507,18.0685279 14.1650277,18.4416244 C13.9445603,17.8020305 13.2831582,17.322335 12.5115225,17.322335 L10.1414984,17.322335 C9.14939531,17.322335 8.37775955,18.0685279 8.37775955,19.0279188 L8.37775955,19.2944162 C8.37775955,20.2538071 9.14939531,21 10.1414984,21 L12.5115225,21 C13.3933919,21 14.1099108,20.3604061 14.2752613,19.5609137 C16.8657528,19.1345178 18.6294916,17.535533 19.7318284,14.7106599 L19.9522958,14.7106599 C21.0546325,14.7106599 21.9916188,13.8045685 21.9916188,12.7385787 L21.9916188,10.2335025 C22.0467356,9.64720811 21.8262683,9.16751267 21.4404504,8.79441624 Z M3.69282824,10.180203 L3.69282824,12.6852792 C3.69282824,13.1649746 3.25189351,13.5913705 2.75584196,13.5913705 L2.03932306,13.5913705 C1.54327151,13.5913705 1.10233679,13.1649746 1.10233679,12.6852792 L1.10233679,10.180203 C1.10233679,9.70050761 1.54327151,9.27411167 2.03932306,9.27411167 L2.75584196,9.27411167 C3.30701035,9.27411167 3.69282824,9.70050761 3.69282824,10.180203 L3.69282824,10.180203 Z M13.2280414,19.2944162 C13.2280414,19.6675127 12.9524572,19.9340101 12.5666393,19.9340101 L10.1966152,19.9340101 C9.81079738,19.9340101 9.53521317,19.6675127 9.53521317,19.2944162 L9.53521317,19.0279188 C9.53521317,18.6548223 9.81079738,18.3883249 10.1966152,18.3883249 L12.5666393,18.3883249 C12.9524572,18.3883249 13.2280414,18.6548223 13.2280414,19.0279188 L13.2280414,19.2944162 Z M20.9443989,12.6852792 C20.9443989,13.1649746 20.5034641,13.5913705 20.0074126,13.5913705 L19.2908937,13.5913705 C18.7948421,13.5913705 18.3539074,13.1649746 18.3539074,12.6852792 L18.3539074,10.180203 C18.3539074,9.70050761 18.7948421,9.27411167 19.2908937,9.27411167 L20.0074126,9.27411167 C20.2278799,9.27411167 20.5034641,9.38071066 20.6688147,9.54060914 C20.8341652,9.70050761 20.9443989,9.91370558 20.9443989,10.180203 L20.9443989,12.6852792 L20.9443989,12.6852792 Z" id="形状"></path>
                </g>
            </g>
        </g>
    </g>
</svg>