<?xml version="1.0" encoding="UTF-8"?>
<svg width="20px" height="17px" viewBox="0 0 20 17" version="1.1" xmlns="http://www.w3.org/2000/svg" xmlns:xlink="http://www.w3.org/1999/xlink">
   
    <desc>Created with Sketch.</desc>
    <defs>
        <polygon id="path-1" points="0 0 20 0 20 17 0 17"></polygon>
    </defs>
    <g id="页面-1" stroke="none" stroke-width="1" fill="none" fill-rule="evenodd">
        <g id="1.1首页" transform="translate(-310.000000, -10.000000)">
            <g id="编组备份-14" transform="translate(310.000000, 10.000000)">
                <mask id="mask-2" fill="white">
                    <use xlink:href="#path-1"></use>
                </mask>
                <g id="Clip-2"></g>
                <path d="M8.88715627,1.91588774 L8.88240164,1.91392893 C8.84810373,1.87989195 8.81392606,1.84699878 8.77911222,1.81456291 C6.86300295,0.0236476594 3.79546293,0.0683096662 1.93512832,1.91543729 C0.0415815295,3.77851611 0.0198132738,6.78896285 1.86830785,8.66440464 L9.99992654,16.3135488 L18.1181708,8.67692407 C19.9803581,6.78911127 19.958353,3.77873248 18.0630599,1.91392893 C18.0291643,1.8802912 17.9947547,1.84714403 17.9599238,1.8145743 C16.0436724,0.0236458588 12.9761234,0.0683074178 11.1164159,1.91481695 C10.9711623,2.05823953 10.7971842,2.22469027 10.5946962,2.41396761 L10.0013192,2.96837847 L9.6600652,2.65212824 C9.42676874,2.43592545 9.23319796,2.25369755 9.06904625,2.09542144 L8.88607968,1.91699171 L8.88715627,1.91588774 Z" id="Fill-1" stroke="#000000" mask="url(#mask-2)"></path>
            </g>
        </g>
    </g>
</svg>