<?xml version="1.0" encoding="UTF-8"?>
<svg width="37px" height="37px" viewBox="0 0 37 37" version="1.1" xmlns="http://www.w3.org/2000/svg" xmlns:xlink="http://www.w3.org/1999/xlink">
   
    <desc>Created with Sketch.</desc>
    <g id="页面-1" stroke="none" stroke-width="1" fill="none" fill-rule="evenodd">
        <g id="1.15About-Cookies" transform="translate(-169.000000, -1020.000000)" fill="#CC2127" fill-rule="nonzero">
            <g id="pinterest-4" transform="translate(63.000000, 1020.000000)">
                <g id="pinterest" transform="translate(106.000000, 0.000000)">
                    <path d="M18.5,0 C8.28645832,0 0,8.28183334 0,18.5 C0,26.0742083 4.55562499,32.583125 11.0753333,35.4444583 C11.0229167,34.1540833 11.067625,32.601625 11.396,31.195625 L13.7763333,21.1162083 C13.7763333,21.1162083 13.185875,19.9352917 13.185875,18.1870417 C13.185875,15.4459583 14.776875,13.398625 16.7548333,13.398625 C18.43525,13.398625 19.24925,14.6627917 19.24925,16.17825 C19.24925,17.8679167 18.1700834,20.3977917 17.6150833,22.741125 C17.1525833,24.7052083 18.5986667,26.3054584 20.535,26.3054583 C24.04075,26.3054583 26.4010417,21.8037916 26.4010417,16.469625 C26.4010417,12.4150417 23.67075,9.3810417 18.7035,9.38104166 C13.0918333,9.38104166 9.596875,13.565125 9.596875,18.2379167 C9.596875,19.8520417 10.0701667,20.98825 10.8147917,21.867 C11.1585833,22.274 11.2048333,22.4343333 11.0799583,22.8999167 C10.993625,23.2375417 10.7885833,24.05925 10.7037917,24.3845417 C10.5804583,24.8516667 10.2012084,25.02125 9.77879166,24.8470417 C7.19187499,23.7925417 5.989375,20.9620417 5.989375,17.7785 C5.989375,12.5245 10.4216667,6.22062499 19.2107083,6.22062499 C26.274625,6.22062499 30.9242917,11.3343333 30.9242917,16.8195834 C30.9242917,24.07775 26.88975,29.49825 20.9404583,29.49825 C18.9455417,29.49825 17.0647083,28.4190834 16.4218334,27.195 C16.4218334,27.195 15.34575,31.4561667 15.1206667,32.2794167 C14.7290834,33.7039167 13.9613333,35.1315 13.2583333,36.2415 C14.9233333,36.73175 16.6808333,37 18.5,37 C28.7181667,37 37,28.7181667 37,18.5 C37,8.28183334 28.7181667,0 18.5,0" id="路径"></path>
                </g>
            </g>
        </g>
    </g>
</svg>