<?xml version="1.0" encoding="UTF-8"?>
<svg width="72px" height="72px" viewBox="0 0 72 72" version="1.1" xmlns="http://www.w3.org/2000/svg" xmlns:xlink="http://www.w3.org/1999/xlink">
    <!-- Generator: Sketch 63.1 (92452) - https://sketch.com -->
    <title>编组 5</title>
    <desc>Created with Sketch.</desc>
    <g id="页面-1" stroke="none" stroke-width="1" fill="none" fill-rule="evenodd">
        <g id="商品详情-" transform="translate(-420.000000, -138.000000)">
            <g id="编组-2" transform="translate(0.000000, 118.000000)">
                <g id="编组-5" transform="translate(420.000000, 20.000000)">
                    <circle id="椭圆形" fill="#FFFFFF" cx="36" cy="36" r="36"></circle>
                    <g id="放大" transform="translate(18.000000, 18.000000)" fill="#000000" fill-rule="nonzero">
                        <path d="M2.51204711e-05,1.62836593 L2.51204711e-05,12.4614885 C2.51204711e-05,13.2258198 0.61885716,13.8461267 1.38137112,13.8461267 C2.14388507,13.8461267 2.76271711,13.2258198 2.76271711,12.4614885 L2.76271711,4.64392769 L11.5451568,13.4501407 C12.0618275,13.9680427 12.898942,13.9680427 13.4183078,13.4501407 C13.9348564,12.9295371 13.9348564,12.0904274 13.4183078,11.5726476 L4.63292542,2.76927643 L12.4318987,2.76927643 C13.1944126,2.76927643 13.8132446,2.14884719 13.8132446,1.38463821 C13.8132446,0.620306926 13.1944126,0 12.4318987,0 L1.62453369,0 C0.616054433,0 2.51204711e-05,0.520725869 2.51204711e-05,1.62836234 L2.51204711e-05,1.62836593 Z M34.375739,3.59719168e-06 L23.5682664,3.59719168e-06 C22.8057525,3.59719168e-06 22.187046,0.620310524 22.187046,1.38464181 C22.187046,2.1489731 22.8058781,2.76928002 23.5682664,2.76928002 L31.3672397,2.76928002 L22.581965,11.5726512 C22.0652943,12.090431 22.0652943,12.9295371 22.581965,13.4501443 C23.1013307,13.9680463 23.9383197,13.9680463 24.4549939,13.4501443 L33.2374336,4.64393128 L33.2374336,12.4614921 C33.2374336,13.2258234 33.8562656,13.8461303 34.618654,13.8461303 C35.38129,13.8461303 36,13.2258234 36,12.4614921 L36,1.62836953 C36,0.520733064 35.3868057,3.59719168e-06 34.3757534,3.59719168e-06 L34.375739,3.59719168e-06 Z M1.62449421,35.9999784 L12.4319668,35.9999784 C13.1943588,35.9999784 13.8133128,35.3796715 13.8133128,34.6153402 C13.8133128,33.8510089 13.1943588,33.2308279 12.4319668,33.2308279 L4.63288595,33.2308279 L13.4181606,24.4274567 C13.9348313,23.9096769 13.9348313,23.0704449 13.4181606,22.5500859 C12.8987949,22.032058 12.0618059,22.032058 11.5451317,22.5500859 L2.76269199,31.356155 L2.76269199,23.5385942 C2.76269199,22.7742629 2.14385995,22.153956 1.381346,22.153956 C0.61883204,22.153956 0,22.7743852 0,23.5385942 L0,34.3717168 C0,35.4793533 0.616014958,35.9999784 1.62449063,35.9999784 L1.62449421,35.9999784 Z M35.9999569,34.3717384 L35.9999569,23.5386158 C35.9999569,22.7742845 35.3811249,22.1539776 34.6186109,22.1539776 C33.856097,22.1539776 33.2373905,22.7744068 33.2373905,23.5386158 L33.2373905,31.3561766 L24.4549509,22.5501075 C23.9382802,22.0320796 23.1012912,22.0320796 22.5819219,22.5501075 C22.0652512,23.0705888 22.0652512,23.9096949 22.5819219,24.4274783 L31.3671966,33.2308495 L23.5682234,33.2308495 C22.8057094,33.2308495 22.187003,33.8511564 22.187003,34.6153618 C22.187003,35.3798154 22.805835,36 23.5682234,36 L34.375696,36 C35.3867483,36 35.9999569,35.4793964 35.9999569,34.37176 L35.9999569,34.3717384 Z" id="形状"></path>
                    </g>
                </g>
            </g>
        </g>
    </g>
</svg>