<?xml version="1.0" encoding="UTF-8"?>
<svg width="52px" height="52px" viewBox="0 0 52 52" version="1.1" xmlns="http://www.w3.org/2000/svg" xmlns:xlink="http://www.w3.org/1999/xlink">
   
    <desc>Created with Sketch.</desc>
    <g id="页面-1" stroke="none" stroke-width="1" fill="none" fill-rule="evenodd">
        <g id="商品详情-pre-sale" transform="translate(-650.000000, -830.000000)">
            <g id="编组-4备份-2" transform="translate(650.000000, 830.000000)">
                <rect id="矩形" x="0" y="0" width="52" height="52"></rect>
                <g id="分享-(1)" transform="translate(9.000000, 8.000000)" stroke="#FFFFFF" stroke-width="4">
                    <g id="编组-10">
                        <path d="M27.6857143,23.3513514 C31.172998,23.3513514 34,26.1828478 34,29.6756757 C34,33.1685036 31.172998,36 27.6857143,36 C24.1984306,36 21.3714286,33.1685036 21.3714286,29.6756757 C21.3714286,26.1828478 24.1984306,23.3513514 27.6857143,23.3513514 Z M6.31428571,12.6486486 C9.80156942,12.6486486 12.6285714,15.4801451 12.6285714,18.972973 C12.6285714,22.4658009 9.80156942,25.2972973 6.31428571,25.2972973 C2.82700201,25.2972973 0,22.4658009 0,18.972973 C0,15.4801451 2.82700201,12.6486486 6.31428571,12.6486486 Z M25.7428571,0 C29.2301408,0 32.0571429,2.83149645 32.0571429,6.32432432 C32.0571429,9.8171522 29.2301408,12.6486486 25.7428571,12.6486486 C22.2555734,12.6486486 19.4285714,9.8171522 19.4285714,6.32432432 C19.4285714,2.83149645 22.2555734,0 25.7428571,0 Z M21.0804454,8.19447087 L10.38512,15.0478951 M11.2430033,22.6926261 L20.8857143,27.7297297" id="形状结合"></path>
                    </g>
                </g>
            </g>
        </g>
    </g>
</svg>