<?xml version="1.0" encoding="UTF-8"?>
<svg width="20px" height="27px" viewBox="0 0 20 27" version="1.1" xmlns="http://www.w3.org/2000/svg" xmlns:xlink="http://www.w3.org/1999/xlink">
   
    <desc>Created with Sketch.</desc>
    <g id="页面-1" stroke="none" stroke-width="1" fill="none" fill-rule="evenodd">
        <g id="商品详情-pre-sale" transform="translate(-58.000000, -837.000000)" fill="#FFFFFF" fill-rule="nonzero">
            <g id="编组-8" transform="translate(48.000000, 830.000000)">
                <g id="编组-21" transform="translate(10.000000, 4.000000)">
                    <g id="编组-19" transform="translate(0.000000, 3.000000)">
                        <g id="火-(1)">
                            <path d="M6.82102273,0.253457338 C6.8125,0.0633374925 7.00852273,-0.0634090709 7.16193182,0.0331597393 L7.16193182,0.0331597393 L8.33522727,0.766479142 C9.94318182,1.7744161 11.2301136,3.21993048 12.15625,5.07284452 C13.2755682,7.30298049 13.7869318,9.35204993 13.6818182,11.1687507 C13.6789773,11.2230706 13.6988636,11.2773906 13.7386364,11.3136039 C13.78125,11.3558527 13.8295455,11.3618883 13.8607955,11.3588705 C13.8920455,11.3558527 13.9375,11.3437816 13.9772727,11.298515 C14.5767045,10.5893378 15,9.86808951 15.2301136,9.16193008 L15.2301136,9.16193008 L15.5994318,8.03629989 C15.6534091,7.87334002 15.8465909,7.82203784 15.96875,7.9367133 L15.96875,7.9367133 L16.7954545,8.74245931 C17.8039773,9.72625407 18.5965909,10.8971509 19.1505682,12.2189365 C19.7159091,13.5678821 20,14.9983076 20,16.4709819 C20,17.8953719 19.7357955,19.2744952 19.2130682,20.5751563 C18.7102273,21.8275331 17.9886364,22.9561811 17.0681818,23.9218692 C16.1505682,24.8905751 15.0795455,25.6480367 13.8892045,26.1761473 C12.65625,26.7223647 11.3494318,27 10,27 C8.65056818,27 7.34375,26.7223647 6.11079545,26.1731296 C4.92045455,25.6450189 3.85227273,24.8845395 2.93181818,23.9188514 C2.01420455,22.9531633 1.29261364,21.8245153 0.786931818,20.5721386 C0.264204545,19.2714774 0,17.8923541 0,16.4679641 C0,14.8564721 0.355113636,13.2479979 1.02840909,11.8115368 C1.69602273,10.3901646 2.68181818,9.11968123 3.87784091,8.1449398 C4.37215909,7.74055791 4.82386364,7.27280273 5.22727273,6.75374538 C5.80113636,6.01137265 6.25,5.18450221 6.5625,4.29425849 C6.81818182,3.56697464 6.92613636,2.6918198 6.88352273,1.70198949 L6.88352273,1.70198949 Z M8.09261364,12.1408096 L8.13011364,12.9455497 C8.15568182,13.4954554 8.09090909,13.9816526 7.9375,14.3856992 C7.75,14.880279 7.48068182,15.3396515 7.13636364,15.7520808 C6.89431818,16.040446 6.62329545,16.3003099 6.32670455,16.5249666 C5.60909091,17.0664896 5.01761364,17.7723137 4.61704545,18.5619649 C4.21306818,19.3599988 4,20.2535956 4,21.148869 C4,21.9401967 4.15852273,22.7063763 4.47215909,23.4289659 C4.77556818,24.1247307 5.20852273,24.7517574 5.75909091,25.2882508 C6.31136364,25.8247442 6.95227273,26.2472327 7.66647727,26.5406275 C8.40625,26.8457582 9.19034091,27 10,27 C10.8096591,27 11.59375,26.8457582 12.3335227,26.5423041 C13.0477273,26.2489093 13.6903409,25.8280973 14.2409091,25.2899273 C14.7931818,24.7534339 15.2261364,24.1264073 15.5278409,23.4306424 C15.8414773,22.7080529 16,21.9418733 16,21.1505455 C16,20.3323931 15.8295455,19.5377123 15.4903409,18.788298 C15.1579545,18.0539727 14.6823864,17.4034745 14.0772727,16.8569218 L13.58125,16.4092852 C13.5079545,16.3455766 13.3920455,16.3740778 13.3596591,16.464611 L13.1380682,17.0899612 C13,17.4822719 12.7460227,17.8829654 12.3863636,18.2769528 C12.3625,18.3021009 12.3352273,18.3088071 12.3164773,18.3104836 C12.2977273,18.3121602 12.26875,18.3088071 12.2431818,18.2853355 C12.2193182,18.265217 12.2073864,18.2350392 12.2090909,18.2048615 C12.2721591,17.1955833 11.9653409,16.0572114 11.29375,14.818247 C10.7380682,13.7888503 9.96590909,12.9857867 9.00113636,12.4258217 L8.29715909,12.0184221 C8.20511364,11.9647727 8.0875,12.0351875 8.09261364,12.1408096 Z" id="形状结合"></path>
                        </g>
                    </g>
                </g>
            </g>
        </g>
    </g>
</svg>