<?xml version="1.0" encoding="UTF-8"?>
<svg width="23px" height="22px" viewBox="0 0 23 22" version="1.1" xmlns="http://www.w3.org/2000/svg" xmlns:xlink="http://www.w3.org/1999/xlink">
   
    <desc>Created with Sketch.</desc>
    <g id="页面-1" stroke="none" stroke-width="1" fill="none" fill-rule="evenodd">
        <g id="1.12" transform="translate(-133.000000, -140.000000)" fill="#333333" fill-rule="nonzero">
            <g id="precess" transform="translate(133.000000, 140.000000)">
                <path d="M21.1380952,22 L1.86190475,22 C0.821428571,22 0,21.3333333 0,20.4444445 L0,1.55555555 C0,0.666666667 0.821428571,0 1.86190475,0 L21.1928571,0 C22.1785714,0 23,0.666666667 23,1.55555555 L23,20.4444445 C23,21.3333333 22.1785714,22 21.1380952,22 Z M1,20.0071672 C1,20.0627228 1,21.0023716 2.05750835,21.0023716 L21.0467391,21.0023716 C22,21.0023716 22,20.0627228 22,20.0071672 L22,2.00757676 C22,1.95202122 22.15577,1 20.9851223,1 L2.05750835,1 C1,1 1,1.95202122 1,2.00757676 L1,20.0071672 Z" id="形状"></path>
                <path d="M1,7 L8,7 L8,8.02184065 L1,8.02184065 L1,7 Z M16,7 L22,7 L22.0068819,8.02562564 L16.0068819,8.02562564 L16,7 Z" id="形状"></path>
                <path d="M14.9714286,12.8914027 L11.4742857,10.5022625 L7.97714285,12.8914027 C7.77142857,13 7.51428571,13.0542986 7.30857143,12.8914027 C7.10285715,12.7828054 7,12.5656109 7,12.2941177 L7,1 L7.97714285,1 L7.97714285,11.3085573 L11.1657143,9.35380613 C11.3714286,9.1909102 11.6285714,9.1909102 11.8342857,9.35380613 L14.9714286,11.3085573 L14.9714286,1 L16,1 L16,12.2941177 C16,12.5656109 15.8971428,12.7828054 15.6914286,12.8914027 C15.5371429,12.9457013 15.4342857,13 15.3314286,13 C15.2285714,13 15.0742857,12.9457014 14.9714286,12.8914027 Z" id="路径"></path>
            </g>
        </g>
    </g>
</svg>