<?xml version="1.0" encoding="UTF-8"?>
<svg width="24px" height="24px" viewBox="0 0 24 24" version="1.1" xmlns="http://www.w3.org/2000/svg" xmlns:xlink="http://www.w3.org/1999/xlink">
   
    <desc>Created with Sketch.</desc>
    <defs>
        <polygon id="path-1" points="0 0.6006 11.5161793 0.6006 11.5161793 8.9996 0 8.9996"></polygon>
    </defs>
    <g id="画板" stroke="none" stroke-width="1" fill="none" fill-rule="evenodd">
        <g id="编组-2" transform="translate(6.000000, 6.000000)">
            <g id="编组">
                <path d="M8.5657,6.5811 L8.5597,2.6761 C8.5587,1.5741 7.6607,0.6771 6.5577,0.6771 L5.5887,0.6771 C4.4837,0.6771 3.5857,1.5751 3.5857,2.6791 L3.5857,6.4981 L2.9087,6.4981 L2.9087,2.6791 C2.9087,1.2021 4.1107,0.0001 5.5887,0.0001 L6.5577,0.0001 C8.0337,0.0001 9.2347,1.2001 9.2377,2.6751 L9.2437,6.5801 L8.5657,6.5811 Z" id="Fill-1" fill="#050101"></path>
                <g transform="translate(0.000000, 3.599600)">
                    <mask id="mask-2" fill="white">
                        <use xlink:href="#path-1"></use>
                    </mask>
                    <g id="Clip-4"></g>
                    <path d="M8.1468,8.9996 L0.7608,8.9996 C0.3408,8.9996 -0.0002,8.6576 -0.0002,8.2376 L1.2848,1.3026 C1.2798,0.9416 1.6208,0.6006 2.0408,0.6006 L10.2328,0.6006 C10.6518,0.6006 10.9938,0.9416 10.9938,1.3616 L11.5108,4.1106 C11.5428,4.2846 11.4288,4.4516 11.2548,4.4836 C11.0828,4.5156 10.9148,4.4026 10.8818,4.2276 L10.3588,1.4196 C10.3528,1.2946 10.2988,1.2396 10.2328,1.2396 L2.0408,1.2396 C1.9738,1.2396 1.9188,1.2946 1.9188,1.3616 L0.6338,8.2966 C0.6398,8.3056 0.6938,8.3586 0.7608,8.3586 L8.1468,8.3586 C8.3238,8.3586 8.4668,8.5026 8.4668,8.6796 C8.4668,8.8556 8.3238,8.9996 8.1468,8.9996" id="Fill-3" fill="#000000" mask="url(#mask-2)"></path>
                </g>
                <path d="M3.9217,6.6602 C3.9217,7.0192 3.6307,7.3102 3.2717,7.3102 C2.9127,7.3102 2.6217,7.0192 2.6217,6.6602 C2.6217,6.3012 2.9127,6.0102 3.2717,6.0102 C3.6307,6.0102 3.9217,6.3012 3.9217,6.6602" id="Fill-5" fill="#050101"></path>
                <path d="M9.5452,6.6602 C9.5452,7.0192 9.2542,7.3102 8.8952,7.3102 C8.5362,7.3102 8.2452,7.0192 8.2452,6.6602 C8.2452,6.3012 8.5362,6.0102 8.8952,6.0102 C9.2542,6.0102 9.5452,6.3012 9.5452,6.6602" id="Fill-7" fill="#050101"></path>
                <path d="M9.2659,10.313 L12.4659,10.313 C12.6429,10.313 12.7859,10.457 12.7859,10.633 L12.7859,10.993 C12.7859,11.169 12.6429,11.313 12.4659,11.313 L9.2659,11.313 C9.0889,11.313 8.9459,11.169 8.9459,10.993 L8.9459,10.633 C8.9459,10.457 9.0889,10.313 9.2659,10.313" id="Fill-9" fill="#000000"></path>
                <path d="M11.3655,9.0328 L11.3655,12.2328 C11.3655,12.4098 11.2225,12.5538 11.0465,12.5538 L10.6855,12.5538 C10.5095,12.5538 10.3655,12.4098 10.3655,12.2328 L10.3655,9.0328 C10.3655,8.8558 10.5095,8.7128 10.6855,8.7128 L11.0465,8.7128 C11.2225,8.7128 11.3655,8.8558 11.3655,9.0328" id="Fill-11" fill="#000000"></path>
            </g>
        </g>
    </g>
</svg>