<?xml version="1.0" encoding="UTF-8"?>
<svg width="41px" height="41px" viewBox="0 0 41 41" version="1.1" xmlns="http://www.w3.org/2000/svg" xmlns:xlink="http://www.w3.org/1999/xlink">
   
    <desc>Created with Sketch.</desc>
    <g id="页面-1" stroke="none" stroke-width="1" fill="none" fill-rule="evenodd">
        <g id="商品详情-" transform="translate(-194.000000, -3166.000000)">
            <g id="编组-6" transform="translate(27.000000, 2870.000000)">
                <g id="编组-18" transform="translate(166.000000, 295.000000)">
                    <g id="编组-11">
                        <rect id="矩形备份-10" x="0" y="0" width="43.2" height="43.2"></rect>
                        <circle id="椭圆形" fill-opacity="0.7" fill="#FFFFFF" cx="21.6" cy="21.6" r="20"></circle>
                        <g id="编组" transform="translate(10.400000, 8.320000)" stroke="#000000">
                            <path d="M12.76,21.12 L10.208,21.12 L0,21.12 L0,11.968 C0,9.63514922 1.89114922,7.744 4.224,7.744 L20.416,7.744 L20.416,13.632" id="路径" stroke-width="2.56"></path>
                            <path d="M5.632,13.024 L5.632,4.576 C5.632,2.04874498 7.68074498,0 10.208,0 C12.735255,0 14.784,2.04874498 14.784,4.576 L14.784,13.024" id="路径" stroke-width="2.56"></path>
                            <g id="编组-5" transform="translate(15.600000, 16.480000)">
                                <line x1="4.8" y1="0" x2="4.8" y2="8.48" id="路径-3" stroke-width="2.56"></line>
                                <line x1="-7.27595761e-13" y1="4.08" x2="9.38533935" y2="4.08" id="路径-2" stroke-width="2.4"></line>
                            </g>
                        </g>
                    </g>
                </g>
            </g>
        </g>
    </g>
</svg>