<?xml version="1.0" encoding="UTF-8"?>
<svg width="23px" height="21px" viewBox="0 0 23 21" version="1.1" xmlns="http://www.w3.org/2000/svg" xmlns:xlink="http://www.w3.org/1999/xlink">
   
    <desc>Created with Sketch.</desc>
    <g id="页面-1" stroke="none" stroke-width="1" fill="none" fill-rule="evenodd">
        <g id="1.12" transform="translate(-306.000000, -141.000000)" fill="#000000" fill-rule="nonzero">
            <g id="return" transform="translate(306.000000, 141.000000)">
                <path d="M22.9955078,6.4879692 C22.9955078,6.46102021 22.9932617,6.43182547 22.9865234,6.40487648 L22.9865234,6.39813924 C22.9797852,6.37119025 22.9708008,6.34424126 22.9618164,6.31729227 C22.9595703,6.31055502 22.9550781,6.30157202 22.952832,6.29483478 C22.9505859,6.28809753 22.9483398,6.28360603 22.9460938,6.27686878 L20.0823242,0.552454283 C19.9116211,0.211100417 19.5702148,0 19.1883789,0 L3.80712891,0 C3.42529297,0 3.08388672,0.211100417 2.91318359,0.552454283 L0.0494140625,6.27686878 C0.0471679688,6.28360603 0.044921875,6.29034328 0.0426757813,6.29483478 C0.0404296875,6.30157202 0.0359375,6.30830927 0.0336914063,6.31729227 C0.0224609375,6.34424126 0.0134765625,6.37119025 0.008984375,6.39813924 L0.008984375,6.40487648 C0.0044921875,6.43182547 0,6.46102021 0,6.49021495 L0,19.4998396 C0,20.3262753 0.673828125,21 1.50039063,21 L21.4996094,21 C22.3261719,21 23,20.3262753 23,19.4998396 L23,6.49919795 C22.9977539,6.49470645 22.9977539,6.4924607 22.9955078,6.4879692 Z M3.80712891,0.999358357 L19.1883789,0.999358357 L21.6882813,5.99839589 L1.30722656,5.99839589 L3.80712891,0.999358357 Z M21.9982422,19.4975938 C21.9982422,19.773821 21.7736328,19.9983959 21.4973633,19.9983959 L1.49814453,19.9983959 C1.221875,19.9983959 0.997265625,19.773821 0.997265625,19.4975938 L0.997265625,7 L21.9982422,7 L21.9982422,19.4975938 Z" id="形状"></path>
                <path d="M9.27557586,14.5584397 C9.36734123,14.634819 9.47925021,14.6730087 9.59115919,14.6730087 C9.73440269,14.6730087 9.87764618,14.6101081 9.97612608,14.4910463 C10.1507041,14.2776336 10.1193696,13.9631307 9.90674252,13.7879077 L7.53874848,11.8357433 L13.8213187,11.8357433 C14.5666325,11.8357433 17.0017719,12.0154592 17.0017719,14.3293019 C17.0017719,16.1736368 15.4037116,16.9980836 13.8213187,16.9980836 L9.94255339,16.9980836 C9.6672573,16.9980836 9.44343934,17.2227286 9.44343934,17.4990418 C9.44343934,17.7753551 9.6672573,18 9.94255339,18 L13.8235568,18 C16.2833162,18 18,16.4903861 18,14.3315484 C18,12.2086538 16.3616525,10.8383198 13.8235568,10.8383198 L7.54098666,10.8383198 L9.9089807,8.88615539 C10.1216078,8.71093235 10.1529423,8.39642945 9.97836426,8.18301677 C9.80378625,7.9696041 9.49044111,7.93815381 9.27781404,8.11337685 L6.36146601,10.5103382 L6.32565513,10.5440349 C5.89144829,10.9798461 5.89144829,11.6874776 6.32565513,12.1210423 L9.27557586,14.5584397 Z" id="路径"></path>
            </g>
        </g>
    </g>
</svg>