<?xml version="1.0" encoding="UTF-8"?>
<svg width="30px" height="30px" viewBox="0 0 30 30" version="1.1" xmlns="http://www.w3.org/2000/svg" xmlns:xlink="http://www.w3.org/1999/xlink">
    <!-- Generator: Sketch 60.1 (88133) - https://sketch.com -->
    <title>编组 2</title>
    <desc>Created with Sketch.</desc>
    <g id="页面-1" stroke="none" stroke-width="1" fill="none" fill-rule="evenodd">
        <g id="模块" transform="translate(-173.000000, -361.000000)">
            <g id="编组-2" transform="translate(173.000000, 361.000000)">
                <circle id="椭圆形" fill="#333333" cx="15" cy="15" r="15"></circle>
                <g id="点赞" transform="translate(15.000000, 14.000000) scale(1, -1) translate(-15.000000, -14.000000) translate(7.000000, 6.000000)" fill="#FFFFFF" fill-rule="nonzero">
                    <path d="M1.20024825,8.07406889 L2.66328483,1.90571528 L2.66328481,1.90571538 C2.77002508,1.46527769 3.16514371,1.15574866 3.6182575,1.15760017 L11.827258,1.15760017 L11.827258,8.97273416 C10.9099203,9.10918119 10.0960762,9.65497015 9.60211747,10.4642421 L9.6021173,10.4642425 C9.15546718,11.3342468 8.89435172,12.2875456 8.83531648,13.2637631 C8.79768211,13.6354644 8.73652621,14.0024601 8.6518496,14.3647499 C8.62832807,14.5294271 8.55305932,14.6846944 8.44486103,14.8023222 C8.37429662,14.8352576 8.29902771,14.8446678 8.22375912,14.8211424 C7.70158189,14.7787968 7.23585639,14.4776724 6.9724161,14.0165746 C6.45494386,13.0802649 6.68545411,11.5040695 7.1747013,10.4266099 C7.29230876,10.1725363 7.26878724,9.87141153 7.11824974,9.63615768 C6.95830357,9.3961997 6.69486263,9.25504642 6.41260563,9.25975218 L2.15050779,9.25975218 C1.85413746,9.25975218 1.57187884,9.12801009 1.38370697,8.89275657 C1.20024009,8.66691262 1.12967502,8.36108375 1.20024009,8.07407468 L1.20024825,8.07406889 Z M14.823906,1.73634371 L14.823906,8.30932436 C14.8144974,8.63397464 14.5557607,8.89275403 14.2358687,8.88811145 L12.9986374,8.88811145 L12.9986374,1.15755339 L14.2358687,1.15755339 C14.5557607,1.15291147 14.8144977,1.41169018 14.823906,1.73634045 L14.823906,1.73634371 Z M0.466387223,9.61263448 L0.466387064,9.61263428 C0.877935246,10.1234517 1.49932232,10.4194802 2.15523705,10.4172021 L5.91867447,10.4172021 C5.7116859,10.9865162 5.57996413,11.5840599 5.52821739,12.1957257 C5.43413146,13.0144076 5.57526044,13.8424978 5.94689952,14.5764955 L5.94689953,14.5764955 C6.38203122,15.3558521 7.16726479,15.8765041 8.05443164,15.9739013 C8.44018373,16.0491824 8.8353458,15.9597861 9.15523782,15.7292376 C9.76209182,15.2775513 9.87499527,14.4118183 10.0020121,13.4143354 C10.0490551,12.5956535 10.260749,11.7957914 10.613571,11.0617969 C10.8770113,10.6289305 11.3850768,10.0549123 12.7822582,10.0549123 L14.2405915,10.0549123 C15.1908592,10.0737326 15.9811768,9.29739554 16,8.31874383 L16,1.74106067 C15.9811828,0.76240571 15.1955642,-0.0139340982 14.2405915,0.000189691521 L3.61358166,0.000189691521 C3.12903946,0.000189691521 2.66331396,0.160162112 2.27756024,0.461287491 C1.9012165,0.753002326 1.63307122,1.17175316 1.52016777,1.64226086 L0.0571311863,7.81061446 C-0.0934063106,8.4410936 0.0571311863,9.1139197 0.466404965,9.61265056 L0.466387223,9.61263448 Z" id="形状"></path>
                </g>
            </g>
        </g>
    </g>
</svg>