<?xml version="1.0" encoding="UTF-8"?>
<svg width="60px" height="60px" viewBox="0 0 60 60" version="1.1" xmlns="http://www.w3.org/2000/svg" xmlns:xlink="http://www.w3.org/1999/xlink">
    <!-- Generator: Sketch 63.1 (92452) - https://sketch.com -->
    <title>编组 4</title>
    <desc>Created with Sketch.</desc>
    <g id="页面-1" stroke="none" stroke-width="1" fill="none" fill-rule="evenodd">
        <g id="商品详情-" transform="translate(-345.000000, -2501.000000)">
            <g id="编组-4" transform="translate(345.000000, 2501.000000)">
                <circle id="椭圆形" fill="#333333" cx="30" cy="30" r="30"></circle>
                <g id="点赞" transform="translate(30.000000, 28.000000) scale(1, -1) translate(-30.000000, -28.000000) translate(14.000000, 12.000000)" fill="#FFFFFF" fill-rule="nonzero">
                    <path d="M2.40049649,16.1481378 L5.32656966,3.81143056 L5.32656961,3.81143076 C5.54005015,2.93055538 6.33028741,2.31149732 7.236515,2.31520034 L23.654516,2.31520034 L23.654516,17.9454683 C21.8198407,18.2183624 20.1921523,19.3099403 19.2042349,20.9284843 L19.2042346,20.9284849 C18.3109344,22.6684935 17.7887034,24.5750912 17.670633,26.5275262 C17.5953642,27.2709289 17.4730524,28.0049201 17.3036992,28.7294998 C17.2566561,29.0588542 17.1061186,29.3693888 16.8897221,29.6046443 C16.7485932,29.6705152 16.5980554,29.6893356 16.4475182,29.6422849 C15.4031638,29.5575935 14.4717128,28.9553447 13.9448322,28.0331491 C12.9098877,26.1605299 13.3709082,23.0081391 14.3494026,20.8532198 C14.5846175,20.3450725 14.5375745,19.7428231 14.2364995,19.2723154 C13.9166071,18.7923994 13.3897253,18.5100928 12.8252113,18.5195044 L4.30101558,18.5195044 C3.70827492,18.5195044 3.14375768,18.2560202 2.76741394,17.7855131 C2.40048017,17.3338252 2.25935005,16.7221675 2.40048017,16.1481494 L2.40049649,16.1481378 Z M29.6478121,3.47268741 L29.6478121,16.6186487 C29.6289949,17.2679493 29.1115215,17.7855081 28.4717375,17.7762229 L25.9972748,17.7762229 L25.9972748,2.31510678 L28.4717375,2.31510678 C29.1115215,2.30582293 29.6289954,2.82338036 29.6478121,3.47268091 L29.6478121,3.47268741 Z M0.932774446,19.225269 L0.932774127,19.2252686 C1.75587049,20.2469035 2.99864464,20.8389603 4.3104741,20.8344043 L11.8373489,20.8344043 C11.4233718,21.9730323 11.1599283,23.1681197 11.0564348,24.3914514 C10.8682629,26.0288152 11.1505209,27.6849955 11.893799,29.152991 L11.8937991,29.152991 C12.7640624,30.7117041 14.3345296,31.7530082 16.1088633,31.9478026 C16.8803675,32.0983648 17.6706916,31.9195722 18.3104756,31.4584751 C19.5241836,30.5551026 19.7499905,28.8236366 20.0040241,26.8286708 C20.0981102,25.191307 20.521498,23.5915828 21.2271421,22.1235939 C21.7540227,21.2578609 22.7701537,20.1098246 25.5645165,20.1098246 L28.4811829,20.1098246 C30.3817183,20.1474652 31.9623536,18.5947911 32,16.6374877 L32,3.48212134 C31.9623656,1.52481142 30.3911283,-0.0278681963 28.4811829,0.000379383042 L7.22716333,0.000379383042 C6.25807893,0.000379383042 5.32662792,0.320324224 4.55512048,0.922574982 C3.802433,1.50600465 3.26614243,2.34350633 3.04033554,3.28452171 L0.114262373,15.6212289 C-0.186812621,16.8821872 0.114262373,18.2278394 0.93280993,19.2253011 L0.932774446,19.225269 Z" id="形状"></path>
                </g>
            </g>
        </g>
    </g>
</svg>