<?xml version="1.0" standalone="no"?><!DOCTYPE svg PUBLIC "-//W3C//DTD SVG 1.1//EN" "http://www.w3.org/Graphics/SVG/1.1/DTD/svg11.dtd"><svg t="1619768000381" class="icon" viewBox="0 0 1543 1024" version="1.1" xmlns="http://www.w3.org/2000/svg" p-id="11901" xmlns:xlink="http://www.w3.org/1999/xlink" width="301.3671875" height="200"><defs><style type="text/css"></style></defs><path d="M8.763 1017.74H1522.23V11.268H8.763V1017.74z m1515.97 3.756v-3.755 3.755zM2.503 1024V5.007H1528.49V1024H2.504z" fill="#353636" p-id="11902"></path><path d="M5.007 7.511h1519.726v1012.733H5.007z" fill="#009945" p-id="11903"></path><path d="M604.636 326.729h-2.504l-7.511 10.014-3.755 13.77 6.259 8.763 10.014-2.503 7.511-13.77-7.51 6.259-7.512 1.251-2.503-7.51 7.51-16.274z m-191.53-55.081v15.022l-2.505 6.26c3.756-6.26 7.511-12.52 8.763-18.778l-2.503-12.519-7.511 2.504-3.756 7.51h7.511z m195.285 10.015l3.756-5.008-1.252 10.015h-1.252l-1.252-5.007z m3.756 20.029c-8.763 13.77-22.533 22.533-36.303 30.044l-12.519 3.755v-2.503l10.015-7.511c11.266-8.763 22.533-17.526 31.296-30.044-6.26-5.008-6.26-13.77-3.756-20.03l8.763-10.014 11.267 1.252 2.503 12.518-3.755 12.518 1.252 6.26-8.763 3.755z m-130.191-20.03l8.763-3.755 3.755 3.756h5.008l3.755-6.26-2.504-6.259-5.007 7.511-3.755-11.266h-1.252l-6.26 10.014h-3.755l-1.252-8.762-1.252-2.504h-1.251l-1.252 10.015 6.259 7.51z m-77.614 88.88l-10.014-7.51c-7.511-13.77-10.015-30.044-10.015-45.066 0-7.511 1.252-13.77 3.755-21.281h2.504v20.029c1.252 10.015 2.504 18.777 5.007 27.54l6.26 7.511 5.007-3.755c5.007-11.267 3.755-22.533 6.26-33.8 2.503-7.51 5.006-13.77 10.014-20.03l8.763-7.51 6.259 5.007-1.252 11.267-3.756 16.274 1.252 13.77 1.252 5.007 7.511 12.518 7.511 2.504c-1.252-8.763-1.252-16.274-2.504-23.785-1.251-7.51-1.251-15.022-1.251-22.533-1.252-7.51-3.756-13.77-3.756-20.03v-11.266l6.26-10.014 6.258 7.51c3.756 6.26 7.511 13.77 7.511 21.282l-5.007 5.007 3.756 37.555 1.251 7.511v6.26l10.015-17.526c-1.252-8.763-3.755-18.778-5.007-27.54-2.504-7.512-1.252-15.023 1.252-21.282l2.503-1.252c7.511 6.26 11.267 16.274 8.763 25.037-1.252 10.015 1.252 18.778 3.756 28.792l6.259 10.015 13.77 2.504 3.755-6.26c-1.251-11.266-5.007-23.784-8.762-35.05l-3.756-12.52 3.756-6.258 6.259-6.26 8.763 8.763 5.007 7.511v6.26l-6.26 1.251c2.505 10.015 5.008 18.778 6.26 28.792 0 7.511 1.252 16.274-3.755 22.533l-15.023 10.015-17.525-5.007-5.008-12.519h-1.251l-3.756 7.511-7.51 10.015c0 8.763 1.251 17.526 1.251 26.289 0 12.518 2.504 25.036 1.252 38.806l-5.008 12.519h-1.251l-1.252-17.526-1.252-13.77c-1.252-12.518-3.756-26.289-5.007-40.059-7.511 0-15.022-2.503-20.03-8.763-6.259-8.762-7.51-20.029-7.51-31.295l1.251-15.022v-8.763h-1.252l-6.259 20.03-1.252 8.762c-1.252 8.763-2.503 16.274-7.51 23.785l-7.512 7.51z m737.33-7.51c-2.503-21.281-6.259-41.31-5.007-62.592l6.26 2.504-1.253-7.511-11.266-26.289-3.756-6.259-3.755 2.504-7.511 10.014 1.252 11.267c1.252 8.763 2.503 18.777 3.755 27.54l1.252 11.267 1.252 15.022c3.755 27.54 6.259 56.332 8.763 85.124 1.252 13.77 1.252 28.793-3.756 41.311-3.755 11.266-12.518 21.281-21.281 28.792-7.511 6.26-15.022 11.267-22.533 16.274l-6.26 6.26 17.527-2.504c12.518-2.504 25.036-10.015 32.547-20.03 7.511-10.015 12.519-21.281 15.022-33.8 2.504-11.266 2.504-23.784 2.504-35.05 0-20.03-1.252-42.563-3.756-63.844z m-93.887 145.212l3.755-11.266v-2.504l-13.77-1.252-2.503 6.26 6.259 5.007-8.763 12.518 6.259 2.504 16.274-7.511v-5.007l-7.511 1.251z m-22.533 246.612c-7.511 1.252-16.274 0-23.785 0l-6.26-3.756-5.007 2.504v2.504c-7.51 1.251-16.273 0-23.784 1.251l-3.756-6.259v-6.259c21.281 0 42.562-1.252 63.844-1.252l-1.252 11.267z m20.03-26.289l-16.275-5.007c-22.533 0-43.814 1.252-66.347 1.252V717.3l3.756-8.763-6.26-8.763h-3.755l-5.007 8.763 5.007 10.015v5.007c-81.37 1.252-162.738 1.252-242.856 1.252h-46.318c-41.31 0-82.62-1.252-123.931-1.252-21.281 0-41.31-1.252-61.34 0 5.007 8.763 13.77 13.77 22.533 17.526 15.022 5.007 31.296 6.259 46.318 7.51 16.274 1.252 33.8 0 51.325 1.252h161.487c48.821 0 98.894-1.251 147.716-2.503 15.022 0 31.296-1.252 46.318-1.252v5.007l-5.008 7.511 7.511 12.519h1.252l5.008-7.511c7.51 0 16.273-1.252 23.784 0l6.26 5.007 6.259-5.007h26.288l6.26 5.007 11.266-2.504 5.007-18.777-6.259-18.778zM406.845 500.733l-6.26-5.007c-2.503-8.763 0-17.526 2.504-26.288l1.252-18.778h-1.252l-5.007 16.274c-2.504 7.511-3.755 15.022-3.755 23.785l1.251 17.525 10.015 7.512 11.267-10.015v-13.77l-10.015 8.762z m25.037-98.894l12.518-5.008v-10.014h-3.756c-8.762 2.503-17.525 6.259-25.036 11.266-10.015 6.26-20.03 15.022-26.289 25.037l11.267-7.511c10.014-3.756 21.281-8.763 31.296-13.77z m65.095 8.762l13.77-2.503-6.259-7.511-6.26-2.504-1.251 1.252v11.266z m32.548 86.377c-7.511 7.511-17.526 11.266-27.54 15.022-13.77 5.007-27.541 8.763-41.311 8.763-8.763 0-17.526-1.252-23.785-6.26l-7.511-10.014c-6.26-12.518-7.511-26.289-6.26-40.059 1.253-11.266 2.504-23.785 8.764-33.8v35.052c1.251 10.015 2.503 20.03 10.014 27.54 5.008 6.26 13.77 8.763 22.533 8.763 7.511 0 15.022-1.252 22.533-3.755 12.519-3.756 25.037-10.015 35.052-18.778 6.259-5.007 11.266-11.266 13.77-18.777l1.252-18.778V415.61l-7.511 5.007c0 7.511 1.252 16.274-1.252 23.785-5.007 15.022-17.526 26.288-30.044 33.8-10.015 5.007-21.281 11.266-33.8 8.762-10.014-1.252-17.525-8.763-21.28-17.525-5.008-7.511-5.008-15.022-5.008-22.533 0-7.511 1.252-13.77 2.503-21.282l5.008-7.51v11.266c-1.252 11.266 1.252 23.785 8.763 33.8l16.273 5.007c8.763-1.252 16.274-5.008 22.533-10.015L512 441.897l3.756-6.259 1.251-11.266-16.274 3.755-15.022-2.504-2.503-5.007V403.09l6.259-16.273 10.015-8.763 11.266 5.007 13.77 17.526 10.015-6.26c0-18.777-3.755-38.806-5.007-57.584l-2.504-18.777v-6.26l-1.252-18.777v-5.007l-2.503-8.763 6.259-7.511 6.259-5.007 5.007 12.518c2.504 7.51 5.008 15.022 8.763 22.533l1.252 10.015-3.756 2.503-5.007-2.503c1.252 13.77 2.504 28.792 2.504 42.562 1.252 11.266 1.252 23.785 2.503 35.051l10.015-8.763 3.756 3.756 1.251 16.274 7.511 5.007 11.267-7.51 7.51-17.527h1.253l3.755 17.526 7.511 5.007 5.008-7.51-1.252-10.015v-3.756l7.51-5.007 2.504 12.518-1.251 18.778-7.511 6.259-13.77-2.504-5.008-5.007h-2.504l-6.259 6.26-16.274 3.755-12.518-8.763h-1.252v21.281c1.252 13.77 1.252 27.54-2.503 41.31-2.504 10.015-8.763 20.03-16.274 26.289z m524.518-111.413c1.252 20.03 2.504 40.058 2.504 60.088 0 11.266-1.252 22.533-7.511 31.296-2.504 6.259-10.015 11.266-17.526 11.266-8.763 0-17.526-3.755-23.785-10.015l-7.51-10.014-5.008 2.503-10.015 17.526c-5.007 10.015-10.015 20.03-16.274 28.792l-6.259 3.756-11.266-3.756c-5.008-5.007-12.519-8.763-15.022-16.274-3.756-11.266-1.252-22.533 1.251-33.799l5.008-16.274h1.252l1.251 18.778 2.504 16.273 2.504-11.266c2.503-17.526-2.504-35.051-3.756-52.577-1.252-12.518-3.755-25.037-5.007-37.555-2.504-18.778-5.007-38.807-7.511-57.584-1.252-7.511-1.252-15.022-3.756-22.533-2.503-7.511-3.755-16.274-2.503-25.037l8.763-17.526 8.762-3.755 6.26 5.007 5.007 13.77c2.504 8.763 6.26 16.274 11.266 23.785l1.252 12.518-10.014 5.008c0 10.014 2.503 21.28 2.503 31.296 1.252 13.77 3.756 27.54 5.008 41.31 1.251 8.763 2.503 17.526 2.503 26.289 2.504 13.77 6.26 27.54 3.756 41.31-1.252 10.015-3.756 18.778-8.763 27.54l-8.763 6.26-6.259-2.504 6.26 10.015h7.51l6.26-8.763c5.007-11.267 11.266-22.533 17.525-32.548l8.763-12.518h7.51l13.771 16.274 11.267 5.007 8.762-5.007 5.008-13.77c1.252-23.785-1.252-48.822-2.504-72.607 0-6.259-1.252-13.77-1.252-20.03l-1.252-13.77c-11.266-13.77-21.28-26.288-31.296-40.058l-7.51-15.022v-20.03l7.51 3.756c5.008 7.511 12.519 12.518 18.778 18.778l2.504 3.755v2.504h-3.756l11.267 16.274c0-6.26-1.252-13.77-2.504-20.03l-2.504-12.518 7.511-13.77 3.756 3.755c3.755 10.015 7.51 21.281 11.266 31.296v5.007l-5.007-2.503c0 11.266 1.252 22.533 2.504 32.547 7.51 10.015 15.022 21.282 22.533 31.296-1.252-10.014-3.756-20.03-5.008-30.044-2.503-16.274-3.755-33.8-5.007-50.073l-1.252-8.763 6.26-12.518 3.755-2.504 5.007 12.518c2.504 8.763 3.756 16.274 6.26 25.037v7.511l-2.504 1.252-2.504-1.252v11.267s2.504 27.54 3.756 40.058c1.251 8.763 1.251 18.778 2.503 27.54 5.008 7.512 10.015 15.023 15.022 23.785 7.511 11.267 17.526 22.533 21.281 36.304l1.252 18.777h-1.252l-7.51-12.518c-8.763-12.519-17.526-25.037-26.29-36.303 1.253 7.51 0 16.273 1.253 23.784l-1.252 15.022-3.756 12.519-2.503-5.008c0-10.014 1.252-20.029 0-30.044-1.252-8.762-2.504-16.273-3.756-25.036l2.504-7.511c-8.763-12.519-17.526-23.785-25.037-35.052 0 6.26 1.252 12.519 1.252 20.03z m-37.555-2.504c-8.763 8.763-20.03 15.022-28.792 23.785l-2.504 6.26 8.763-5.008c7.511-6.26 15.022-10.015 22.533-15.022l10.015-5.008v-10.014l-10.015 5.007z m-115.169-88.88c1.252 12.518 3.756 23.785 5.008 36.303 2.503 18.778 3.755 37.555 5.007 56.333 1.252 18.777 1.252 37.555 2.504 55.08 1.251 7.511 1.251 15.022 0 21.281-1.252 10.015-6.26 20.03-12.519 27.54-8.763 10.015-18.777 18.778-30.044 25.038l-18.777 7.51v2.504l13.77 1.252c7.511-1.252 16.274-1.252 23.785-5.007 8.763-5.008 15.022-13.77 21.281-21.282 8.763-10.014 12.518-22.533 13.77-35.05 1.252-12.52 1.252-25.038 1.252-37.556a483.99 483.99 0 0 0-3.756-60.088c-2.503-21.281-5.007-41.31-3.755-62.592l6.26 1.252v-6.259l-5.008-17.526-1.252-5.007-3.756-10.015-3.755 1.252-8.763 10.015-1.252 10.015v5.007zM582.103 463.178l2.503-1.251 5.008-12.519v-13.77l-11.267-2.504v10.015l7.511 1.252v11.266l-3.755 7.511z m297.936-141.457l1.252 1.252 3.755 8.763 5.008-10.015 1.252-2.503h1.251l1.252 15.022-1.252 2.503-5.007 1.252-6.259-3.755-8.763 3.755-1.252-13.77h1.252l2.504 7.51 2.503-1.25 2.504-8.764z m101.399 30.044h3.755l2.504-2.503 10.014 16.273 3.756 6.26 2.504-5.008v-23.785l2.503-5.007 7.511 1.252v-5.007l-3.755-7.511-2.504-1.252-8.763 8.763 1.252 16.273-1.252 7.511-5.007-10.014-7.511-13.77-3.756 1.251-1.251 5.008v11.266z m38.806 83.873l6.26-7.51c2.503-7.512-1.252-16.275-6.26-22.534l-5.007-1.252-5.007 8.763 10.014 10.015v12.518z m82.622-120.176c-1.252-7.51-3.756-15.022-7.511-22.533l-1.252-6.26 6.259-6.258c6.259 8.763 7.51 20.03 8.763 30.044l-2.504 16.274h-1.252l-2.503-11.267z m-363.032 71.355h-2.504l-3.755-7.511-3.756-3.756-1.252 10.015-1.252 5.007h-2.503l-5.008-12.518-1.251-2.504 1.251 18.778 6.26 2.503 5.007-6.259h1.252l5.007 3.756 7.511-6.26-3.755-16.273-1.252 11.266v3.756z m36.303 0l13.77 6.259 3.756 3.755-17.526 3.756-1.252-12.519 1.252-1.251zM634.68 399.335c2.503 7.511 7.51 13.77 10.014 21.281l2.504 13.77-8.763 13.77c-7.51 6.26-16.274 13.77-23.785 20.03V444.4H613.4c-5.008 7.511-7.511 15.022-10.015 23.785L600.88 478.2l-1.252 1.252c-15.022 10.015-30.044 18.778-45.066 27.54l-20.029 10.015v2.504h5.007c21.282-6.26 41.31-12.518 60.088-21.281 1.252 7.51 2.504 15.022 7.511 20.03 6.26 6.258 15.022 7.51 23.785 6.258 13.77-2.503 25.037-10.014 35.052-20.029 10.014-8.763 17.525-20.03 25.036-30.044 3.756 11.266 10.015 21.281 18.778 28.792 13.77 12.519 32.547 17.526 50.073 20.03l10.015-2.504 2.503-13.77-11.266-5.008-13.77-10.014v-10.015l15.022-8.763c16.274-6.259 32.547-11.266 50.073-15.022l13.77-3.755 6.26-11.267 1.251-7.51h-13.77c-18.777 1.251-38.807 1.251-57.584 1.251h-23.785c12.518-6.26 26.288-11.267 40.059-16.274l8.762 1.252v-3.756c7.511-2.503 15.022-5.007 20.03-11.266l7.51-16.274-13.77-16.274c-6.259-5.007-13.77-8.763-22.532-8.763l-11.267 6.26-8.763 17.525 3.756 15.022-33.8 11.267-15.022 7.51-7.51 13.771-2.504 11.266 7.51 2.504c7.512 0 15.023 0 22.534 1.252 7.51 0 15.022 1.252 20.029 6.26l2.504 2.503c-10.015 3.755-18.778 10.014-22.533 20.03v16.273c-10.015-2.504-21.282-8.763-27.54-18.778-6.26-11.266-7.512-25.036-10.015-37.555-1.252-8.762-3.756-16.273-5.008-25.036v1.252c-2.503-16.274-8.763-31.296-15.022-46.318l-5.007-8.763-6.26 10.015-1.251 13.77c5.007 12.518 8.763 25.036 12.518 37.555l5.008 16.274 3.755 12.518c-7.51 13.77-16.274 25.037-26.288 36.303-8.763 7.511-17.526 13.77-28.793 16.274l-15.022-2.504-3.755-12.518c11.266-6.26 21.281-13.77 30.044-23.785 7.51-7.51 13.77-15.022 16.274-25.037 1.252-7.51 1.252-16.273 0-23.784l-1.252-3.756-5.007-13.77 5.007-1.252-5.007-11.266-10.015-11.267h-5.007l-5.008 8.763-2.503 10.015 6.259 5.007z m161.486 116.42l1.252-15.022-10.015 2.504 6.26-5.007 12.518-5.008-2.504 16.274L804.93 512c7.511-1.252 13.77-6.26 21.281-8.763h5.008l-5.008 5.007c-6.259 5.008-12.518 11.267-21.28 10.015l-8.764-2.503z m-143.96-157.73l-12.519-8.763c-8.763-11.267-12.518-26.289-11.266-40.06 1.251-8.762 2.503-17.525 7.51-25.036h1.252l-2.503 13.77c0 7.511 0 16.274 1.252 23.785l1.251 6.26 10.015 12.518 7.511-6.26c3.756-11.266 8.763-21.28 13.77-32.547 3.756-7.511 7.511-15.022 12.519-21.281l6.259-2.504 3.755 5.007-1.252 11.267c-2.503 12.518-1.251 25.037-1.251 37.555l6.259 13.77h13.77l13.77-11.266 5.007-17.526c0-12.518-2.503-23.785-5.007-36.303l-1.252-11.267 6.26-12.518h2.503c3.756 6.26 5.007 13.77 6.26 20.03 1.251 8.762 2.503 18.777 2.503 28.791 1.252 10.015 3.755 20.03 10.015 27.54l10.014 7.512 7.511-5.008v-20.029c-1.252-8.763-3.755-16.274-6.259-25.037l-5.007-13.77 5.007-8.763 3.756-7.51 7.51 3.755 11.267 18.777 1.252 7.511h-5.007l-6.26-3.755 3.756 10.015c2.504 7.51 2.504 13.77 3.755 21.28 1.252 10.015-1.251 21.282-6.259 30.045l-17.525 8.763c-10.015-2.504-16.274-10.015-21.282-16.274-5.007 10.014-13.77 17.525-23.784 21.281l-20.03 1.252-10.014-16.274c-2.504-8.763-2.504-18.778-1.252-28.792v-6.26h-1.252l-5.007 10.015c-3.756 10.015-6.26 18.778-10.015 28.792l-11.267 7.511z m216.567-77.614l-3.756-3.756 3.756-10.014 7.51 6.259c5.008 8.763 7.512 20.03 2.504 30.044l-5.007 6.259v-18.778l-5.007-10.014z m-80.118 7.51V265.39l1.252-2.504 6.26 1.252c8.762 7.51 17.525 15.022 25.036 22.533l5.007 8.763h-10.014c5.007 8.763 11.266 16.274 17.525 25.036l1.252 1.252c-1.252-10.014-3.755-20.03-2.504-31.296l-3.755-8.762 3.755-10.015 5.008-5.007 5.007 5.007c3.756 10.015 8.763 18.777 11.267 28.792l2.503 11.267-1.252 2.503-7.51-1.252c0 8.763 0 16.274 1.251 25.037l1.252 11.267c8.763 13.77 17.526 26.288 25.037 40.058 8.763 15.022 17.525 30.044 23.785 46.318 3.755 10.015 7.51 20.03 7.51 30.044h-2.503l-8.763-17.526c-12.518-26.288-28.792-52.577-45.066-77.613 0 7.51 1.252 16.274 1.252 23.785 1.252 16.273 3.755 31.295 3.755 47.57 0 16.273-1.251 33.799-7.51 50.073l-5.008 5.007 1.252-11.267c3.755-10.014 2.504-21.28 2.504-32.547-1.252-25.037-5.008-50.074-8.763-73.858l-1.252-11.267c-1.252-7.51-1.252-15.022-2.504-21.281-11.266-17.526-23.785-33.8-36.303-51.325l-8.763-7.511z m-80.117 5.008v16.274h1.252l2.503-8.763c0-8.763 1.252-17.526-1.251-26.288l-5.008-7.511-5.007 5.007 1.252 6.26 6.259 15.021z" fill="#FFFFFF" p-id="11904"></path></svg>