<?xml version="1.0" encoding="UTF-8"?>
<svg width="20px" height="20px" viewBox="0 0 20 20" version="1.1" xmlns="http://www.w3.org/2000/svg" xmlns:xlink="http://www.w3.org/1999/xlink">
    <!-- Generator: Sketch 60.1 (88133) - https://sketch.com -->
    <title>设置</title>
    <desc>Created with Sketch.</desc>
    <g id="页面-1" stroke="none" stroke-width="1" fill="none" fill-rule="evenodd">
        <g id="1.12俄语" transform="translate(-343.000000, -14.000000)" fill="#000000" fill-rule="nonzero">
            <g id="设置" transform="translate(343.000000, 14.000000)">
                <path d="M19.9732611,9.36517936 C19.7761103,9.92239664 19.3375211,10.3553116 18.7889274,10.5381932 C18.7603548,10.5524808 18.7303536,10.5653397 18.6989238,10.5724835 C18.6574935,10.5853423 18.2260475,10.7325048 18.1146144,11.3140111 C18.1131858,11.3225836 18.1103285,11.332585 18.1074712,11.3425863 C18.0803273,11.5454706 18.0446116,11.7454973 18.0046099,11.9383802 C18.0031813,11.951239 18.0017527,11.9626691 17.9988954,11.9740992 C17.9074631,12.558463 18.2974789,12.8513593 18.3003362,12.8542168 C18.3274802,12.8742194 18.3531955,12.8956509 18.3760536,12.9199398 C18.8203573,13.2757016 19.0875109,13.8214888 19.0932255,14.4015663 C19.0932255,14.4758619 19.0775105,14.5487288 19.0460807,14.6144519 C18.8303577,15.0659407 18.574633,15.508857 18.2889072,15.9303419 C18.2474769,15.9917787 18.1917604,16.0417854 18.1274721,16.0775044 C17.8474607,16.2332395 17.5317336,16.3161077 17.2131493,16.3161077 C16.971711,16.3161077 16.7374158,16.2703873 16.5145496,16.1803753 C16.4831197,16.1732315 16.4531185,16.1618014 16.4231173,16.1475138 C16.4231173,16.1475138 16.3002552,16.0975071 16.1259624,16.0975071 C15.9059535,16.0975071 15.6973736,16.1775178 15.5045087,16.3361104 C15.5002228,16.3389679 15.4959369,16.3432542 15.491651,16.3461117 C15.3545026,16.4718428 15.2044965,16.5990026 15.0373469,16.7304488 C15.0302037,16.7375926 15.0244892,16.7433076 15.0187747,16.7490227 C14.6401879,17.0819243 14.6473311,17.4591175 14.6659033,17.5948499 C14.6844755,17.6462854 14.6944759,17.7034359 14.6944759,17.7620151 C14.6944759,17.7648726 14.6944759,17.7677302 14.6944759,17.7705877 C14.7944799,18.3092311 14.6587601,18.8735921 14.3230322,19.3065071 C14.2758875,19.3665151 14.215885,19.415093 14.1473108,19.4465258 C13.6787204,19.6622689 13.1887006,19.8422929 12.6915376,19.9823116 C12.6501073,19.9937417 12.6072485,19.9994568 12.5658182,19.9994568 C12.5329597,19.9994568 12.5015299,19.9965993 12.4686714,19.9894555 C11.9257923,19.8737257 11.4557733,19.5151064 11.1929055,19.0221834 C11.1729047,18.9936082 11.1571897,18.9650329 11.1429034,18.9350289 C11.1229026,18.8964523 10.905751,18.4921126 10.3214416,18.4821113 C10.3114412,18.4821113 10.3014408,18.4806825 10.2900117,18.4806825 C10.0971468,18.4878263 9.90285321,18.4878263 9.70855962,18.4806825 C9.69855922,18.4821113 9.68855881,18.4821113 9.67998704,18.4821113 C9.07567685,18.4921126 8.85852519,18.9321714 8.85709656,18.9364577 C8.84281027,18.9664617 8.82566672,18.9950369 8.80709454,19.0221834 C8.54565538,19.5151064 8.07563634,19.8737257 7.53275721,19.9894555 C7.45989712,20.0051718 7.38275113,20.0037431 7.30989104,19.9823116 C6.81272804,19.8422929 6.32413683,19.6622689 5.85411779,19.4465258 C5.78554358,19.415093 5.72554115,19.3665151 5.67839639,19.3065071 C5.33409673,18.8635908 5.2012342,18.2820846 5.31409592,17.7320111 C5.31552454,17.6991496 5.32123906,17.6677168 5.32981084,17.6348553 C5.33981124,17.5919924 5.42838626,17.1405035 4.98836844,16.7518802 C4.98122529,16.7461651 4.97265351,16.7375926 4.96551037,16.7304488 C4.801218,16.6004314 4.65406918,16.4747003 4.51406351,16.3475405 C4.51120625,16.3461117 4.50834899,16.3432542 4.50692036,16.3418254 C4.30548363,16.176089 4.09690376,16.0960783 3.87689485,16.0960783 C3.7040307,16.0960783 3.58116858,16.146085 3.58116858,16.146085 C3.55116737,16.1603726 3.51973752,16.1718027 3.48687905,16.1789465 C2.96971524,16.3875458 2.36683368,16.3489692 1.87681383,16.0760757 C1.81252552,16.0403566 1.75680897,15.9889212 1.71537872,15.9289131 C1.42965286,15.5074283 1.17535685,15.064512 0.958205198,14.6130231 C0.926775353,14.5473 0.909631802,14.4730044 0.911060431,14.4001375 C0.916774948,13.8200601 1.18392863,13.2742729 1.62966097,12.9185111 C1.65109041,12.8942221 1.6753771,12.8727907 1.70252106,12.8542168 C1.73680816,12.8284991 2.09253686,12.5398891 2.00110458,11.9555253 C1.99681869,11.9483815 1.99681869,11.9426665 1.99539007,11.9369514 C1.95538845,11.7440685 1.92110134,11.5440418 1.89252876,11.3411576 C1.8896715,11.3282987 1.88681424,11.3154398 1.88538561,11.302581 C1.7725239,10.7139309 1.30821937,10.5739122 1.30250486,10.5724835 C1.26964638,10.5639109 1.23964517,10.5524808 1.20964395,10.5367644 C0.661050305,10.3524541 0.223889741,9.92096788 0.0267388981,9.36517936 C0.00388082935,9.29802754 -0.00469094642,9.22658942 0.00245220005,9.15658007 C0.0495969668,8.67937348 0.132457466,8.19502308 0.249605068,7.71781649 C0.26531999,7.64780714 0.298178464,7.58351284 0.342465972,7.52921987 C0.716766847,7.06772966 1.27393227,6.8091237 1.85824165,6.82912637 C1.8896715,6.82484008 1.92252997,6.82484008 1.95538845,6.8276976 C2.07967919,6.8276976 2.48255265,6.79197855 2.75399222,6.33334587 C2.75827811,6.32620205 2.762564,6.31905824 2.76684988,6.31191443 C2.85113901,6.1504643 2.95257169,5.97044025 3.06257615,5.7947025 C3.06686204,5.78470116 3.07114792,5.77612859 3.07686244,5.76755601 C3.35830241,5.2532016 3.12257858,4.86029199 3.09400599,4.81600036 C3.07829107,4.79314016 3.06543341,4.7688512 3.055433,4.74456224 C2.74113456,4.23592288 2.68113213,3.60583873 2.89971241,3.03862012 C2.92399911,2.97432582 2.96114347,2.91574656 3.01114549,2.86859741 C3.34687338,2.53855333 3.70688796,2.23136944 4.08118883,1.95418957 C4.13547675,1.91418423 4.19833644,1.88560898 4.26548201,1.87132136 C4.85122002,1.75130533 5.46267336,1.91847051 5.90126256,2.31566642 C5.92554925,2.33424033 5.95126458,2.354243 5.97412265,2.37853196 C5.97840854,2.38138948 6.19413156,2.58427372 6.54557437,2.58427372 C6.65986471,2.58427372 6.77844094,2.56284229 6.89987443,2.52140818 C6.90273169,2.51997942 6.90558895,2.51997942 6.90844621,2.51855066 C7.10702568,2.43711121 7.30703378,2.36281557 7.50275599,2.29995003 C8.04849238,2.0856357 8.11706659,1.63271806 8.12278111,1.58128262 C8.12563837,1.55127861 8.13135288,1.52556089 8.13849603,1.49841441 C8.22135653,0.896905503 8.58279974,0.372549757 9.11853573,0.08251102 C9.17853816,0.0496494882 9.24282647,0.0310755789 9.30997205,0.0267892922 C9.83142174,-0.00892976407 10.1700069,-0.00892976407 10.6914566,0.0267892922 C10.7571735,0.0310755789 10.8214618,0.0496494882 10.8814643,0.08251102 C11.414343,0.371120995 11.7743576,0.892619216 11.8600753,1.48984184 C11.8700757,1.52127461 11.8757903,1.55270738 11.8786475,1.58556891 C11.884362,1.62986054 11.9515076,2.0856357 12.497244,2.29709251 C12.6943948,2.36138681 12.8929743,2.43425368 13.0915538,2.51569313 C13.0929824,2.51569313 13.0944111,2.51712189 13.0958397,2.51712189 C13.2215591,2.56141352 13.3401353,2.58284496 13.4544256,2.58284496 C13.8030112,2.58284496 14.0244487,2.37996072 14.0258774,2.37710319 C14.050164,2.35281424 14.0758794,2.3313828 14.1030233,2.31423766 C14.5416125,1.91847051 15.1530659,1.75130533 15.7359466,1.87132136 C15.8030922,1.88560898 15.8645233,1.91275546 15.9202398,1.95418957 C16.2945407,2.23136944 16.6545553,2.53855333 16.9902831,2.86859741 C17.0388565,2.91574656 17.0774295,2.97432582 17.1017162,3.03862012 C17.3188679,3.60298121 17.2602941,4.23020783 16.9502815,4.73741843 C16.9374239,4.76742244 16.9217089,4.79599768 16.9031367,4.82314417 C16.8802787,4.86029199 16.6431262,5.2532016 16.9259948,5.77041354 C16.9302807,5.77898611 16.9345666,5.78755869 16.9388525,5.79613126 C17.0459997,5.96758273 17.1460037,6.14332049 17.237436,6.31905824 C17.2417219,6.32763082 17.2474364,6.33477463 17.2517223,6.34191844 C17.5174473,6.79054979 17.9217494,6.82626884 18.0374684,6.82626884 C18.0717555,6.82341132 18.1060426,6.82341132 18.1403297,6.8276976 C18.7132101,6.80769493 19.2832332,7.0663009 19.657534,7.52779111 C19.7018215,7.58208407 19.73468,7.64637837 19.7503949,7.71638772 C19.8661139,8.19216555 19.950403,8.67651596 19.9975478,9.15515131 C20.0046909,9.22658942 19.9961192,9.29802754 19.9732611,9.36517936 Z M10,4.17528756 C6.69072165,4.17528756 4,6.86646403 4,10.1752876 C4,13.4841111 6.69243986,16.1752876 10,16.1752876 C13.3092784,16.1752876 16,13.4841111 16,10.1752876 C16,6.86646403 13.3092784,4.17528756 10,4.17528756 Z" id="形状"></path>
            </g>
        </g>
    </g>
</svg>