<?xml version="1.0" standalone="no"?><!DOCTYPE svg PUBLIC "-//W3C//DTD SVG 1.1//EN" "http://www.w3.org/Graphics/SVG/1.1/DTD/svg11.dtd"><svg t="1619768094740" class="icon" viewBox="0 0 1536 1024" version="1.1" xmlns="http://www.w3.org/2000/svg" p-id="14577" xmlns:xlink="http://www.w3.org/1999/xlink" width="300" height="200"><defs><style type="text/css"></style></defs><path d="M0 0h1536v512H0z" fill="#DA1841" p-id="14578"></path><path d="M0 512h1536v512H0V512z m460.8-256c0 64-32 121.6-83.2 153.6s-115.2 32-166.4 0C153.6 377.6 121.6 320 121.6 256c0-96 76.8-179.2 166.4-179.2C384 76.8 460.8 160 460.8 256" fill="#FFFFFF" p-id="14579"></path><path d="M512 256c0 64-25.6 121.6-76.8 147.2-51.2 38.4-108.8 38.4-160 6.4S192 320 198.4 256c0-89.6 70.4-166.4 160-166.4C441.6 89.6 512 166.4 512 256" fill="#DA1841" p-id="14580"></path><path d="M313.6 262.4l-25.6-19.2-19.2 19.2 6.4-32-19.2-19.2h25.6l6.4-32 6.4 32H320l-12.8 19.2 6.4 32z m179.2 0l-25.6-19.2-19.2 19.2 6.4-32-19.2-19.2h25.6l6.4-32 6.4 32h25.6l-12.8 19.2 6.4 32zM403.2 192l-25.6-19.2-19.2 19.2 6.4-32-19.2-19.2h25.6l6.4-32 6.4 32h25.6l-12.8 19.2 6.4 32z m-57.6 185.6l-19.2-19.2-25.6 19.2 6.4-32-19.2-19.2h25.6l6.4-32 6.4 32h25.6l-12.8 19.2 6.4 32z m115.2 0l-25.6-19.2-19.2 19.2 6.4-32-25.6-19.2h25.6l6.4-32 19.2 32h25.6l-25.6 19.2 12.8 32z m0 0" fill="#FFFFFF" p-id="14581"></path></svg>