<?xml version="1.0" encoding="UTF-8"?>
<svg width="16px" height="16px" viewBox="0 0 16 16" version="1.1" xmlns="http://www.w3.org/2000/svg" xmlns:xlink="http://www.w3.org/1999/xlink">
    <!-- Generator: Sketch 63.1 (92452) - https://sketch.com -->
    <title>分享</title>
    <desc>Created with Sketch.</desc>
    <g id="页面-1" stroke="none" stroke-width="1" fill="none" fill-rule="evenodd">
        <g id="详情页-pre-sale" transform="translate(-1544.000000, -214.000000)" fill="#333333" fill-rule="nonzero">
            <g id="分享" transform="translate(1544.000000, 214.000000)">
                <path d="M14.6286318,12.4693928 C14.6286318,13.9054009 13.4625773,15.0695274 12.024159,15.0695274 L3.53651211,15.0695274 C2.09809023,15.0695274 0.93203935,13.9053973 0.93203935,12.4693928 L0.93203935,3.99588327 C0.93203935,2.5598573 2.09811169,1.39574865 3.53651211,1.39574865 L8.84128027,1.39574865 L8.84128027,0.465247467 L3.53651211,0.465247467 C1.58333641,0.465247467 0,2.04596445 0,3.99586898 L0,12.4693785 C0,14.4193009 1.5833543,16 3.53651211,16 L12.024159,16 C13.9773347,16 15.5606712,14.419283 15.5606712,12.4693785 L15.5606712,7.52650836 L14.6286372,7.52650836 L14.6286372,12.4693963 L14.6286318,12.4693928 Z M15.8635097,3.23788271 L12.7567059,0.136271615 C12.5747073,-0.0454238718 12.2796426,-0.0454238718 12.0976422,0.136271615 C11.9156435,0.317967102 11.9156435,0.612540333 12.0976422,0.794217962 L14.4563603,3.14898947 C9.51490256,2.74431714 6.07083238,4.94269378 4.2258574,9.67900531 C4.13257887,9.91848256 4.25141004,10.1881123 4.49128809,10.281236 C4.73116489,10.3743592 5.00124452,10.2557258 5.09452358,10.0162474 C6.79914352,5.64024823 9.88374193,3.68427213 14.4514789,4.08235323 L12.0788801,6.7470787 C11.9078817,6.9391173 11.9252158,7.23319766 12.1175936,7.40389288 C12.3099525,7.57460649 12.6045057,7.55730125 12.7755036,7.36526212 L15.8823074,3.87594518 C16.0462036,3.69183713 16.0379851,3.41206605 15.863509,3.23787967 L15.8635097,3.23788271 Z" id="形状"></path>
            </g>
        </g>
    </g>
</svg>