<?xml version="1.0" encoding="UTF-8"?>
<svg width="17px" height="20px" viewBox="0 0 17 20" version="1.1" xmlns="http://www.w3.org/2000/svg" xmlns:xlink="http://www.w3.org/1999/xlink">
    <!-- Generator: Sketch 63.1 (92452) - https://sketch.com -->
    <title>形状</title>
    <desc>Created with Sketch.</desc>
    <g id="页面-1" stroke="none" stroke-width="1" fill="none" fill-rule="evenodd">
        <g id="详情页" transform="translate(-1158.000000, -708.000000)" fill="#000000" fill-rule="nonzero">
            <g id="编组-13" transform="translate(1140.000000, 628.000000)">
                <g id="盾牌" transform="translate(18.000000, 80.000000)">
                    <path d="M16.9969076,3.55644063 L16.9969076,2.853655 L15.5149066,2.83237535 L15.5102804,2.83237535 L15.5102808,2.83237537 C14.3940117,2.77215439 13.2946225,2.53646117 12.253566,2.13418214 C10.5158165,1.43901708 9.40352587,0.646500386 9.39429609,0.638879819 L8.49614101,0 L7.61186446,0.634334218 C7.56564783,0.66778004 6.4857179,1.43747959 4.74796836,2.13415985 L4.74796819,2.13415992 C3.70760222,2.54390355 2.60543956,2.77986482 1.48662719,2.83237766 L0,2.8536796 L0,11.2960201 C0,13.2354767 1.12458945,15.4107029 3.09186501,17.2634588 C3.93917729,18.0620586 4.88045735,18.7420048 5.81866834,19.228763 C6.79535557,19.7353078 7.71968803,20 8.50076702,20 C9.27719726,20 10.2107821,19.7292248 11.1998133,19.2165968 L11.1998137,19.2165966 C12.1882176,18.6900065 13.0993598,18.0329198 13.9081123,17.2634586 L13.9081124,17.2634585 C14.7682606,16.4648899 15.5002029,15.5416181 16.0787592,14.5254022 C16.6903622,13.4210438 17,12.3349571 17,11.2944823 L16.9969309,3.55795783 L16.9969076,3.55644063 Z M8.45766435,1.79038536 L8.49616316,1.75996994 L8.53621907,1.79038536 C8.66717369,1.88319138 9.87959278,2.72285755 11.7035923,3.45603631 C13.4906501,4.17098811 15.169839,4.2500682 15.4871947,4.25920397 L15.5457327,4.26071917 L15.5503663,11.2960177 C15.5534505,12.8445303 14.5890622,14.6425162 12.9083161,16.2306023 C11.4247355,17.6300459 9.65460268,18.5701164 8.50076677,18.5701164 C7.96618396,18.5701164 7.24673467,18.3495433 6.4764877,17.951001 L6.47648644,17.9510003 C5.60600492,17.4874203 4.80410137,16.9080322 4.09323871,16.2290641 C2.41249267,14.6425156 1.4481043,12.8445297 1.4481043,11.2929644 L1.4481043,4.2592033 L1.50971142,4.2561729 C1.5836851,4.2561729 3.37381198,4.22270479 5.29333637,3.45452044 L5.29333514,3.45452093 C6.40546325,3.0140321 7.46634237,2.45662327 8.45763929,1.79192265 L8.45763929,1.79038517 L8.45766435,1.79038536 Z" id="形状"></path>
                    <path d="M12.8229839,8.15256135 L12.8229839,8.15256135 C12.5845348,7.94914622 12.2005693,7.94914622 11.9621202,8.15256135 L7.80690383,11.7346946 L6.03720409,10.2101903 L6.03720411,10.2101903 C5.79875309,10.0067654 5.41477246,10.0067654 5.17632145,10.2101903 L5.1763214,10.2101903 C4.94122618,10.415616 4.94122618,10.7457659 5.1763215,10.9511915 L7.37648156,12.8478991 L7.37648154,12.8478991 C7.61521362,13.0507003 7.99859413,13.0507003 8.23732621,12.8478991 L12.8230219,8.89356257 L12.823022,8.89356253 C13.0589927,8.68799938 13.0589927,8.35697847 12.8230219,8.15141531 L12.8229839,8.15256135 Z" id="路径"></path>
                </g>
            </g>
        </g>
    </g>
</svg>