<?xml version="1.0" encoding="UTF-8"?>
<svg width="11px" height="14px" viewBox="0 0 11 14" version="1.1" xmlns="http://www.w3.org/2000/svg" xmlns:xlink="http://www.w3.org/1999/xlink">
    <!-- Generator: Sketch 60.1 (88133) - https://sketch.com -->
    <title>dunpai</title>
    <desc>Created with Sketch.</desc>
    <g id="页面-1" stroke="none" stroke-width="1" fill="none" fill-rule="evenodd">
        <g id="套餐销售2，包含主商品" transform="translate(-12.000000, -753.000000)" fill="#000000" fill-rule="nonzero">
            <g id="dunpai" transform="translate(12.000000, 753.000000)">
                <path d="M5.70126484,0.0448000589 L5.7012648,0.0448000442 C5.63574363,0.0221194749 5.56829984,0.00710596404 5.50000765,0 L5.50000765,0 C5.43174536,0.00722369823 5.36431195,0.0222348712 5.29876514,0.044799913 L7.6514395e-06,2.6039997 L7.6514395e-06,6.35039793 L7.6514395e-06,6.35042891 C-0.00119691082,7.22974188 0.13983338,8.10203024 0.41627476,8.92502324 L0.416274448,8.92502231 C0.967688704,10.5842017 1.98145846,12.0004042 3.30750697,12.9639989 L3.30750701,12.963999 C3.97795557,13.4516875 4.72026197,13.8024453 5.50000765,14 L5.50000765,14 C6.27941937,13.8026559 7.02134614,13.4518776 7.69125515,12.963999 L7.691255,12.9639991 C9.01731571,12.0004017 10.0310843,10.5841745 10.5824997,8.9249951 L10.5824997,8.92499531 C10.8588324,8.10191617 11.0002654,7.22973582 11.0000077,6.3503873 L11.0000077,2.60398907 L5.70126484,0.0448000589 Z M10.0000194,6.35041175 L10.0000194,6.34952378 C10.0000194,7.0973337 9.8798603,7.83903502 9.64529425,8.5391861 L9.64529432,8.53918589 C9.1659088,9.97123418 8.28982689,11.1938291 7.14529676,12.0279921 L7.145297,12.0279919 C6.63897181,12.396545 6.08364276,12.6727896 5.50001941,12.846424 L5.50001941,12.846424 C4.9154893,12.6718557 4.35940464,12.3944709 3.85252647,12.024623 L3.8525261,12.0246228 C2.70632605,11.1875587 1.83006714,9.96079652 1.35252855,8.52461933 L1.35252876,8.52461995 C1.11838958,7.82978997 0.99894756,7.0930912 1.00001941,6.35042054 L1.00001941,3.24381201 L5.50001941,1.16341542 L10.0000194,3.24381201 L10.0000194,6.35041175 Z" id="形状"></path>
                <polygon id="路径" points="4.79971721 7.18000971 2.93277681 5.364009 2 6.27200805 4.79971721 9 9 4.90799905 8.06583098 4 4.79972537 7.18266596 4.79972537 7.17999929"></polygon>
            </g>
        </g>
    </g>
</svg>