<?xml version="1.0" encoding="UTF-8"?>
<svg width="16px" height="12px" viewBox="0 0 16 12" version="1.1" xmlns="http://www.w3.org/2000/svg" xmlns:xlink="http://www.w3.org/1999/xlink">
    <!-- Generator: Sketch 63.1 (92452) - https://sketch.com -->
    <title></title>
    <desc>Created with Sketch.</desc>
    <g  stroke="none" stroke-width="1" fill="none" fill-rule="evenodd">
        <g  transform="translate(-297.000000, -320.000000)">
            <g  transform="translate(12.000000, 199.000000)">
                <g  transform="translate(10.000000, 72.000000)">
                    <g >
                        <g  transform="translate(275.000000, 49.000000)">
                            <rect  fill="#D8D8D8" opacity="0" x="0" y="0" width="16" height="12"></rect>
                            <g fill="#FF5154" fill-rule="nonzero">
                                <path d="M0.574111081,7.00828643 L3.77531044,7.00828643 C4.09304785,7.00828643 4.35163982,6.7504723 4.35163982,6.43201465 C4.35163982,6.11508392 4.09304785,5.85652072 3.77531044,5.85652072 L0.574111081,5.85652072 C0.257151517,5.85652072 2.88006508e-05,6.11508389 2.88006508e-05,6.43201465 C2.88006508e-05,6.7504723 0.257151545,7.00828643 0.574111081,7.00828643 Z" ></path>
                                <path d="M1.40090826,8.41720366 L0.574082281,8.41720366 C0.257814157,8.41720366 1.11782805e-12,8.67570923 1.11782805e-12,8.99347544 C1.11782805e-12,9.3104926 0.257814128,9.56824913 0.574082281,9.56824913 L1.40090826,9.56824913 C1.71933708,9.56824913 1.97640219,9.3104926 1.97640219,8.99347544 C1.97643099,8.6756804 1.7193659,8.41720366 1.40090826,8.41720366 Z" ></path>
                                <path d="M2.49502662,3.16801111 L5.69544813,3.16801111 C6.0124653,3.16801111 6.2710573,2.90982246 6.2710573,2.59211385 C6.2710573,2.27512548 6.01246533,2.01728253 5.69544813,2.01728253 L2.49502662,2.01728253 C2.17800945,2.01728253 1.91944625,2.27509666 1.91944625,2.59211385 C1.91944625,2.90982246 2.17800942,3.16801111 2.49502662,3.16801111 Z" ></path>
                                <path d="M1.21537657,5.08814877 L4.41585569,5.08814877 C4.73212382,5.08814877 4.98993797,4.8295856 4.98993797,4.5125684 C4.98993797,4.19488863 4.73209504,3.93704567 4.41585569,3.93704567 L1.21537657,3.93704567 C0.896947752,3.93704567 0.639104794,4.1948886 0.639104794,4.5125684 C0.639104794,4.8295856 0.896947752,5.08814877 1.21537657,5.08814877 Z" ></path>
                                <path d="M10.8168428,7.36108473 C9.61690798,7.36108473 8.64036022,8.33757485 8.64036022,9.53759606 C8.64036022,10.7368682 9.61687915,11.7126669 10.8168428,11.7126669 C12.0147033,11.7126669 12.9919136,10.7368683 12.9919136,9.53759606 C12.9919136,8.33757483 12.0147033,7.36108473 10.8168428,7.36108473 Z M10.8168428,10.5615638 C10.2501357,10.5615638 9.79143449,10.1029203 9.79143449,9.53759606 C9.79143449,8.972243 10.2501356,8.51287924 10.8168428,8.51287924 C11.3814756,8.51287924 11.8408682,8.972243 11.8408682,9.53759606 C11.8408682,10.1029203 11.3814756,10.5615638 10.8168428,10.5615638 Z" ></path>
                                <path d="M14.4322618,4.8069415 C14.4205652,4.7857667 14.407457,4.76384284 14.3906324,4.74341708 L13.0357613,3.00146474 C12.4332443,2.2254295 11.2376021,1.64005399 10.2559263,1.64005399 L8.83096237,1.64005399 L8.83096237,1.21500205 C8.83096237,0.544840868 8.28687054,-3.79696274e-13 7.61786175,-3.79696274e-13 L3.13482282,-3.79696274e-13 C2.81786326,-3.79696274e-13 2.55927129,0.258217478 2.55927129,0.575551564 C2.55927129,0.893288972 2.81786326,1.15144882 3.13482282,1.15144882 L7.61783292,1.15144882 C7.65214477,1.15144882 7.68066594,1.17991239 7.68066594,1.21503088 L7.68066594,4.74854514 C7.68066594,5.41683372 8.2276963,5.96173219 8.90183316,5.96173219 L14.3336189,5.95297417 C14.3723097,5.95297417 14.4015223,5.98359841 14.4015223,6.01065032 L14.4015223,8.5836924 C14.4015223,8.61662139 14.3738366,8.6421464 14.3365862,8.6421464 L13.6960122,8.6421464 C13.3797729,8.6421464 13.1219299,8.90001816 13.1219299,9.21769793 C13.1219299,9.5346575 13.3797728,9.7932783 13.6960122,9.7932783 L14.3365862,9.7932783 C15.0070355,9.7932783 15.551934,9.24984908 15.551934,8.5837212 L15.551934,6.01067912 C15.551934,5.38027474 15.0618307,4.86026747 14.4322618,4.8069415 Z M8.89964363,4.81062909 C8.86170184,4.81062909 8.83093354,4.78285696 8.83093354,4.74851631 L8.83093354,2.79150278 L10.2558975,2.79150278 C10.8738851,2.79150278 11.7480447,3.21946446 12.1278949,3.70775271 L12.9809949,4.80478081 L8.89964363,4.81062909 Z" ></path>
                                <path d="M4.41585569,7.36108473 C3.21520067,7.36108473 2.23937315,8.33757485 2.23937315,9.53759606 C2.23937315,10.7368682 3.21520067,11.7126669 4.41585569,11.7126669 C5.61509906,11.7126669 6.59161799,10.7368683 6.59161799,9.53759606 C6.59161799,8.33757483 5.61512789,7.36108473 4.41585569,7.36108473 Z M4.41585569,10.5615638 C3.85053143,10.5615638 3.39041863,10.1029203 3.39041863,9.53759606 C3.39041863,8.972243 3.85053143,8.51287924 4.41585569,8.51287924 C4.98048852,8.51287924 5.43982347,8.972243 5.43982347,9.53759606 C5.43982347,10.1029203 4.98048854,10.5615638 4.41585569,10.5615638 Z" ></path>
                                <path d="M7.83689858,8.41720366 L7.31254111,8.41720366 C6.99408346,8.41720366 6.73632696,8.67570923 6.73632696,8.99347544 C6.73632696,9.3104926 6.99408349,9.56824913 7.31254111,9.56824913 L7.83689858,9.56824913 C8.15394458,9.56824913 8.41247895,9.3104926 8.41247895,8.99347544 C8.41247895,8.6756804 8.15394458,8.41720366 7.83689858,8.41720366 Z" ></path>
                            </g>
                        </g>
                    </g>
                </g>
            </g>
        </g>
    </g>
</svg>
