<?xml version="1.0" encoding="UTF-8"?>
<svg width="25px" height="14px" viewBox="0 0 25 14" version="1.1" xmlns="http://www.w3.org/2000/svg" xmlns:xlink="http://www.w3.org/1999/xlink">
    <!-- Generator: Sketch 63.1 (92452) - https://sketch.com -->
    <title>形状</title>
    <desc>Created with Sketch.</desc>
    <g id="页面-1" stroke="none" stroke-width="1" fill="none" fill-rule="evenodd">
        <g id="详情页" transform="translate(-1154.000000, -647.000000)" fill="#000000" fill-rule="nonzero">
            <g id="编组-13" transform="translate(1140.000000, 628.000000)">
                <g id="运输" transform="translate(14.000000, 19.000000)">
                    <path d="M24.9797783,10.2680426 L24.388073,6.93468953 C24.3514908,5.80738722 23.367045,4.89956314 22.1620582,4.89956314 L21.8684552,4.89956314 L20.7869683,2.86986407 C20.534191,2.39474165 20.0272815,2.10013264 19.4642846,2.10013264 L15.4409641,2.10013264 L15.4409641,1.39937452 C15.4409641,0.628255832 14.7810794,0 13.9703413,0 L3.67646751,0 C2.8657294,0 2.20587028,0.628255832 2.20587028,1.39937452 L2.20587028,2.80011195 L3.67649307,2.80011195 L3.67649307,1.39937452 L13.9703413,1.39937452 L13.9703413,10.4997627 L10.1897259,10.4997627 C9.86117681,9.29591803 8.71987004,8.40038454 7.3530117,8.40038454 C5.98615337,8.40038454 4.84471878,9.29591803 4.51622081,10.4997627 L3.67649307,10.4997627 L3.67649307,8.40038454 L2.20587028,8.40038454 L2.20587028,11.9005975 L4.51619524,11.9005975 C4.84471878,13.1043935 5.9861278,14 7.35298614,14 C8.71979335,14 9.86115124,13.1043935 10.1897003,11.9005975 L17.0156837,11.9005975 C17.3445396,13.1043935 18.4862809,14 19.8527814,14 C21.2192562,14 22.360972,13.1043935 22.6898023,11.9005975 L23.5184864,11.9005975 C23.9572165,11.9005975 24.3708172,11.7180397 24.6530187,11.4001394 C24.9324337,11.0863522 25.0509486,10.6734129 24.9797783,10.2680426 L24.9797783,10.2680426 Z M7.3530117,12.6005525 C6.54232472,12.6005525 5.88238891,11.9716639 5.88238891,11.1998394 C5.88238891,10.4280149 6.54232472,9.79980773 7.3530117,9.79980773 C8.16364756,9.79980773 8.8236345,10.4280392 8.8236345,11.1998394 C8.8236345,11.9716395 8.16367312,12.6005525 7.3530117,12.6005525 Z M19.4757628,3.50357157 L20.2197021,4.89956314 L18.3821586,4.89956314 L18.3821586,3.50223299 L19.4757884,3.50357157 L19.4757628,3.50357157 Z M19.8528325,12.6005525 C19.0420688,12.6005525 18.3821841,11.9716639 18.3821841,11.1998394 C18.3821841,10.4280149 19.0420688,9.79980773 19.8528069,9.79980773 C20.6634939,9.79980773 21.3234297,10.4280392 21.3234297,11.1998394 C21.3234297,11.9716395 20.6634939,12.6005525 19.8528069,12.6005525 L19.8528325,12.6005525 Z M22.6898535,10.4997627 C22.3609976,9.29589369 21.2193074,8.40033586 19.8527814,8.40033586 C18.4863065,8.40033586 17.3445651,9.29589369 17.0156837,10.4997627 L15.4409386,10.4997627 L15.4409386,4.19882935 L16.9115869,4.19953515 L16.9115869,4.89956314 C16.9115869,5.67136328 17.5715227,6.30030057 18.3821841,6.30030057 L22.1620838,6.30030057 C22.579289,6.30030057 22.9182171,6.61338196 22.9182171,6.9996471 L23.5185375,10.4997627 L22.689879,10.4997627 L22.6898535,10.4997627 Z M0,3.49948282 L5.88238891,3.49948282 L5.88238891,4.89956314 L0,4.89956314 L0,3.49948282 Z M0.735298614,6.30030057 L6.61766196,6.30030057 L6.61766196,7.69967509 L0.735298614,7.69967509 L0.735298614,6.30030057 Z" id="形状"></path>
                </g>
            </g>
        </g>
    </g>
</svg>