<?xml version="1.0" encoding="UTF-8"?>
<svg width="35px" height="20px" viewBox="0 0 35 20" version="1.1" xmlns="http://www.w3.org/2000/svg" xmlns:xlink="http://www.w3.org/1999/xlink">
    <!-- Generator: Sketch 60.1 (88133) - https://sketch.com -->
    <title>shipped</title>
    <desc>Created with Sketch.</desc>
    <g id="页面-1" stroke="none" stroke-width="1" fill="none" fill-rule="evenodd">
        <g id="1.12" transform="translate(-218.000000, -142.000000)" fill="#333333" fill-rule="nonzero">
            <g id="shipped" transform="translate(218.000000, 142.000000)">
                <path d="M2.69501565,10.6408798 C2.40556549,10.6408798 2.16696468,10.8684111 2.16696468,11.1528252 C2.16696468,11.4334471 2.401654,11.6647706 2.69501565,11.6647706 L10.4202056,11.6647706 L10.8270004,10.644672 L2.69501565,10.644672 L2.69501565,10.6408798 Z M14.6993742,2.50663633 L0.528050961,2.50663633 C0.238600805,2.50663633 0,2.73416761 0,3.01858172 C0,3.29920364 0.234689316,3.53052711 0.528050961,3.53052711 L14.2964908,3.53052711 L14.6993742,2.50663633 Z M12.7553643,6.5908229 L1.6115333,6.5908229 C1.32208315,6.5908229 1.08348234,6.81835419 1.08348234,7.1027683 C1.08348234,7.38339022 1.31817166,7.61471369 1.6115333,7.61471369 L12.3485695,7.61471369 L12.7553643,6.5908229 L12.7553643,6.5908229 Z M26.0153107,8.12286689 C26.1991506,8.12286689 26.3673447,8.03185438 26.4612204,7.88016686 C26.5590076,7.72847933 26.5668306,7.53886993 26.4807778,7.37959803 L23.7740277,2.26772848 C23.6840635,2.09708002 23.504135,1.99089875 23.3046491,1.99089875 L19.1193563,1.99089875 C18.8964014,1.99089875 18.6969155,2.12741752 18.6225972,2.33219568 L16.7998435,7.45923398 C16.7450827,7.61471369 16.7685516,7.78536215 16.8663388,7.92188093 C16.9641261,8.0583997 17.1205856,8.13803565 17.2926911,8.13803565 L26.0113992,8.12286689 L26.0153107,8.12286689 Z M18.0358739,7.12172924 L19.4909477,3.01099735 L22.983907,3.01099735 L25.1469602,7.09139173 L18.0358739,7.12172924 L18.0358739,7.12172924 Z M27.7989495,13.1285552 C25.8432052,13.1285552 24.2551408,14.6681835 24.2551408,16.5642776 C24.2551408,18.4603716 25.8432052,20 27.7989495,20 C29.7546938,20 31.3427582,18.4603716 31.3427582,16.5642776 C31.3427582,14.6681835 29.7586053,13.1285552 27.7989495,13.1285552 Z M27.7989495,18.790292 C26.5316272,18.790292 25.5029057,17.7929465 25.5029057,16.5642776 C25.5029057,15.3356086 26.5316272,14.3382632 27.7989495,14.3382632 C29.0662718,14.3382632 30.0949933,15.3356086 30.0949933,16.5642776 C30.0949933,17.7929465 29.0662718,18.790292 27.7989495,18.790292 Z M33.5605722,10.826697 C33.4588735,10.7811907 33.3610863,10.7356845 33.2750335,10.6901782 C32.7430711,10.4133485 30.8186187,9.01782328 30.2905677,8.58172165 C30.0558784,8.38832006 29.2031739,7.46681835 28.9450156,6.86386045 C28.7768216,6.46947289 28.1744524,5.46075085 27.4821189,4.29275692 C26.8328118,3.20060675 26.1600358,2.07432689 25.8627626,1.47895336 C25.1782521,0.109973455 24.5015646,0 23.687975,0 L17.4491506,0 C17.2301073,0 17.0306214,0.132726583 16.9563031,0.333712552 L10.8543809,16.1395525 C10.7957085,16.2950322 10.8191775,16.4732651 10.9169647,16.6097838 C11.0147519,16.7463026 11.1751229,16.8297308 11.3472284,16.8297308 L22.639696,16.8297308 C22.647519,16.4770573 22.6983684,16.1357603 22.7883326,15.8096322 L12.1021457,15.8096322 L17.8090076,1.02389078 L23.680152,1.02389078 C24.2316719,1.02389078 24.4585382,1.02389078 24.9083594,1.92643155 C25.2212785,2.55593477 25.905789,3.70117558 26.5629191,4.8084945 C27.1848458,5.85134623 27.8224184,6.92453546 27.9671435,7.25824801 C28.3113545,8.06598407 29.2892266,9.1088358 29.6060572,9.36670459 C30.196692,9.85210466 32.1798167,11.1149033 32.774363,11.4258627 C32.8799732,11.4827455 32.9973178,11.7064846 33.1146625,11.7595753 C33.6896513,12.0174441 33.9399866,12.1729238 33.9478096,12.5521426 L33.9478096,14.918468 C33.9478096,15.5100493 33.638802,15.8134243 33.0246983,15.8134243 L32.4340635,15.8134243 C32.5201162,16.1433447 32.5748771,16.4808495 32.5827,16.8335229 L33.0246983,16.8335229 C34.2255253,16.8335229 35,16.0826697 35,14.918468 L35,12.5445582 C34.984354,11.471369 34.127738,11.0845658 33.5605722,10.826697 L33.5605722,10.826697 Z" id="形状"></path>
            </g>
        </g>
    </g>
</svg>