<?xml version="1.0" standalone="no"?><!DOCTYPE svg PUBLIC "-//W3C//DTD SVG 1.1//EN" "http://www.w3.org/Graphics/SVG/1.1/DTD/svg11.dtd"><svg t="1627543008319" class="icon" viewBox="0 0 1024 1024" version="1.1" xmlns="http://www.w3.org/2000/svg" p-id="1291" xmlns:xlink="http://www.w3.org/1999/xlink" width="128" height="128"><defs><style type="text/css">@font-face { font-family: feedback-iconfont; src: url("//at.alicdn.com/t/font_1031158_1uhr8ri0pk5.eot?#iefix") format("embedded-opentype"), url("//at.alicdn.com/t/font_1031158_1uhr8ri0pk5.woff2") format("woff2"), url("//at.alicdn.com/t/font_1031158_1uhr8ri0pk5.woff") format("woff"), url("//at.alicdn.com/t/font_1031158_1uhr8ri0pk5.ttf") format("truetype"), url("//at.alicdn.com/t/font_1031158_1uhr8ri0pk5.svg#iconfont") format("svg"); }
</style></defs><path d="M510.784 1024C228.637 1024 0 795.363 0 513.216S228.637 2.432 510.784 2.432s510.784 228.637 510.784 510.784S792.93 1024 510.784 1024z m0-948.599c-240.798 0-437.815 197.017-437.815 437.815s197.017 437.815 437.815 437.815 437.815-197.017 437.815-437.815S751.582 75.401 510.784 75.401zM335.658 505.92c-29.188 0-55.943-24.323-55.943-55.943v-72.969c0-29.188 24.323-55.943 53.51-55.943s55.944 24.323 55.944 53.51v72.97c2.432 31.62-21.891 58.375-53.511 58.375z m352.684 0c-29.188 0-55.943-24.323-55.943-55.943v-72.969c0-29.188 24.323-55.943 55.943-55.943 29.188 0 55.943 24.323 55.943 55.943v72.97c-2.432 29.187-26.755 55.942-55.943 55.942zM622.67 766.176c-7.297 0-14.594-2.433-21.89-7.297-19.46-14.594-53.512-24.323-89.996-24.323s-70.537 9.729-89.995 24.323c-17.027 12.161-38.917 7.297-48.646-9.73-9.73-14.593-7.297-34.052 4.864-46.213 31.62-26.755 82.698-41.35 133.777-41.35s102.157 14.595 133.777 41.35c14.593 12.161 17.026 34.052 4.864 48.646-4.864 9.73-14.594 14.594-26.755 14.594z" p-id="1292"></path></svg>