<?xml version="1.0" standalone="no"?><!DOCTYPE svg PUBLIC "-//W3C//DTD SVG 1.1//EN" "http://www.w3.org/Graphics/SVG/1.1/DTD/svg11.dtd"><svg t="1626749866614" class="icon" viewBox="0 0 1024 1024" version="1.1" xmlns="http://www.w3.org/2000/svg" p-id="8129" xmlns:xlink="http://www.w3.org/1999/xlink" width="200" height="200"><defs><style type="text/css"></style></defs><path d="M872.722134 58.181435v899.717706l-310.921587-168.260709a103.330228 103.330228 0 0 0-99.606616 0L151.272344 957.899141V58.181435h721.44979M884.358421 0H139.636057a46.545148 46.545148 0 0 0-46.545148 46.545148v930.902955a46.545148 46.545148 0 0 0 46.545148 46.545148 47.941502 47.941502 0 0 0 23.272574-5.585418l328.143292-177.569739a44.916068 44.916068 0 0 1 44.21789 0l328.143292 177.569739a47.941502 47.941502 0 0 0 20.945316 5.585418 46.545148 46.545148 0 0 0 46.545148-46.545148V46.545148a46.545148 46.545148 0 0 0-46.545148-46.545148zM620.680159 628.359495a30.254346 30.254346 0 0 1-13.498093-3.25816L511.997239 573.901672l-95.184827 50.036034a29.323443 29.323443 0 0 1-42.356085-30.719798l18.385334-106.122937-77.03222-74.937687a29.090717 29.090717 0 0 1 16.058076-49.570583l106.355663-15.592624 46.545148-96.581182a29.090717 29.090717 0 0 1 27.228911-16.058076 28.857992 28.857992 0 0 1 26.065283 16.290802l47.708776 96.348456 106.355663 15.592624a29.090717 29.090717 0 0 1 16.058076 49.570583l-77.03222 74.937687 18.385334 106.122937A29.090717 29.090717 0 0 1 620.680159 628.359495z m-222.253081-215.504034l46.545148 44.450616a28.857992 28.857992 0 0 1 8.378127 25.832557L442.179517 545.04368l56.552355-29.788894a29.090717 29.090717 0 0 1 26.996186 0L581.814961 545.04368l-10.705384-63.068675a28.857992 28.857992 0 0 1 8.378126-25.832557l46.545148-44.450616-63.301401-9.30903a29.323443 29.323443 0 0 1-21.876219-15.82535L511.997239 329.074195l-28.39254 57.483257a29.323443 29.323443 0 0 1-21.87622 15.82535z" p-id="8130" fill="#d81e06"></path></svg>