<?xml version="1.0" encoding="UTF-8"?>
<svg width="59px" height="59px" viewBox="0 0 59 59" version="1.1" xmlns="http://www.w3.org/2000/svg" xmlns:xlink="http://www.w3.org/1999/xlink">
    <!-- Generator: Sketch 63.1 (92452) - https://sketch.com -->
    <title>椭圆形</title>
    <desc>Created with Sketch.</desc>
    <g id="页面-1" stroke="none" stroke-width="1" fill="none" fill-rule="evenodd">
        <g id="首页-买家秀预览" transform="translate(-755.000000, -856.000000)">
            <g id="编组-9" transform="translate(756.000000, 857.000000)">
                <g id="编组-8">
                    <circle id="椭圆形" stroke-opacity="0.3" stroke="#222222" cx="28.5" cy="28.5" r="28.5"></circle>
                    <g id="点赞-(2)" transform="translate(14.000000, 12.000000)" fill="#222222" fill-rule="nonzero">
                        <path d="M3.91208318,12.4363636 L1.42257571,12.4363636 C0.640159079,12.4363636 0,13.0909091 0,13.8909091 L0,30.5454545 C0,31.3454545 0.640159079,32 1.42257571,32 L3.91208318,32 C4.69449981,32 4.97901496,31.3454545 4.97901496,30.5454545 L4.97901496,13.8181818 C4.97901496,13.0181818 4.69449981,12.4363636 3.91208318,12.4363636 L3.91208318,12.4363636 Z M27.0289383,13.0909091 L17.7821963,13.0909091 C20.6984765,10.2545455 22.83234,0 17.1420372,0 C12.8031813,0 13.6567267,4.21818181 12.3052798,6.90909091 C11.0960905,9.30909091 9.17561328,10.8363636 7.89529515,11.6363636 C7.04174972,12.1454545 6.47271943,12.7272727 6.47271943,13.7454545 L6.47271943,29.0181818 C6.47271943,30.6181818 7.82416636,31.9272727 9.38899963,31.9272727 L24.1126581,31.9272727 C25.4641051,31.9272727 26.6021656,30.6909091 26.8866808,29.3818182 C27.8824837,24.9454546 28.9494155,20.2181818 29.9452185,15.9272727 C30.3008624,14.2545454 28.8782867,13.0909091 27.0289383,13.0909091 Z" id="形状"></path>
                    </g>
                </g>
            </g>
        </g>
    </g>
</svg>