<?xml version="1.0" encoding="UTF-8"?>
<svg width="43px" height="43px" viewBox="0 0 43 43" version="1.1" xmlns="http://www.w3.org/2000/svg" xmlns:xlink="http://www.w3.org/1999/xlink">
    <!-- Generator: Sketch 63.1 (92452) - https://sketch.com -->
    <title>矩形</title>
    <desc>Created with Sketch.</desc>
    <g id="页面-1" stroke="none" stroke-width="1" fill="none" fill-rule="evenodd">
        <g id="买家秀上传照片-报错" transform="translate(-360.000000, -1166.000000)">
            <g id="编组-3" transform="translate(360.000000, 1166.000000)">
                <rect id="矩形" fill-opacity="0.6" fill="#000000" x="4.54747351e-13" y="0" width="43" height="43" rx="21.5"></rect>
                <path d="M32.3497475,9 L32.3497475,19.199193 L22.8502525,19.199193 L22.8502525,15.999193 L26.723112,15.9975885 C25.3183552,15.0970486 23.6566482,14.6 21.9098413,14.6 C17.0887876,14.6 13.2,18.371918 13.2,23 C13.2,27.628082 17.0887876,31.4 21.9098413,31.4 C24.1689283,31.4 26.2856826,30.5686671 27.8883851,29.1083692 L28.0860187,28.9225707 L30.3139813,31.2195649 C28.0961841,33.3707107 25.0997666,34.6 21.9098413,34.6 C15.3429587,34.6 10,29.417613 10,23 C10,16.582387 15.3429587,11.4 21.9098413,11.4 C24.5712205,11.4 27.0979049,12.2556706 29.1500986,13.7884744 L29.1497475,9 L32.3497475,9 Z" id="形状结合" fill="#FFFFFF" fill-rule="nonzero"></path>
            </g>
        </g>
    </g>
</svg>