<?xml version="1.0" encoding="UTF-8"?>
<svg width="44px" height="44px" viewBox="0 0 44 44" version="1.1" xmlns="http://www.w3.org/2000/svg" xmlns:xlink="http://www.w3.org/1999/xlink">
   
    <desc>Created with Sketch.</desc>
    <defs>
        <polygon id="path-1" points="0 5.02857143e-05 44 5.02857143e-05 44 44 0 44"></polygon>
    </defs>
    <g id="页面-1" stroke="none" stroke-width="1" fill="none" fill-rule="evenodd">
        <g id="1.7.1-注册成功" transform="translate(-166.000000, -222.000000)">
            <g id="编组备份-34" transform="translate(166.000000, 222.000000)">
                <g id="编组">
                    <mask id="mask-2" fill="white">
                        <use xlink:href="#path-1"></use>
                    </mask>
                    <g id="Clip-2"></g>
                    <path d="M22,3.15698743 C11.6097143,3.15698743 3.15693714,11.6097646 3.15693714,22.0000503 C3.15693714,32.388576 11.6097143,40.8431131 22,40.8431131 C32.3885257,40.8431131 40.8430629,32.3888274 40.8430629,22.0000503 C40.8430629,11.6097646 32.3885257,3.15698743 22,3.15698743 M22,44.0000503 C9.86857143,44.0000503 0,34.1314789 0,22.0000503 C0,9.86862171 9.86857143,5.02857143e-05 22,5.02857143e-05 C34.1314286,5.02857143e-05 44,9.86862171 44,22.0000503 C44,34.1314789 34.1314286,44.0000503 22,44.0000503" id="Fill-1" fill="#96C948" mask="url(#mask-2)"></path>
                </g>
                <path d="M32.5535135,16.4297664 C31.9634097,15.8518259 31.0084971,15.8577693 30.4241764,16.4416532 L19.4456931,27.3923296 L14.5858312,22.4654524 C14.0044019,21.8753873 13.051176,21.8649269 12.4562531,22.4357352 C11.8598845,23.0077322 11.8463909,23.9496492 12.4261335,24.5366237 L18.3568084,30.5499624 C18.3596998,30.5542417 18.3659647,30.5542417 18.3688562,30.5587587 C18.3719887,30.5616116 18.3734344,30.5677928 18.3763259,30.5706456 C18.4712629,30.6626501 18.588609,30.7192317 18.7001721,30.7817567 C18.7587247,30.8129004 18.8054703,30.864965 18.8657096,30.888501 C19.048114,30.9629129 19.2423254,31 19.435091,31 C19.6264108,31 19.8177307,30.9629129 19.9984485,30.8915916 C20.057001,30.8675801 20.1023009,30.8202703 20.157962,30.790553 C20.2709708,30.7282657 20.3883169,30.6731106 20.4846997,30.5796797 C20.4878322,30.5765891 20.4892779,30.5704079 20.4938561,30.5677928 C20.4967476,30.563038 20.5013257,30.5616116 20.5059039,30.5587587 L32.5643565,18.5320813 C33.150123,17.946771 33.1438581,17.0062804 32.5535135,16.4297664" id="Fill-3" fill="#96C948"></path>
            </g>
        </g>
    </g>
</svg>