<?xml version="1.0" encoding="UTF-8"?>
<svg width="23px" height="17px" viewBox="0 0 23 17" version="1.1" xmlns="http://www.w3.org/2000/svg" xmlns:xlink="http://www.w3.org/1999/xlink">
    <!-- Generator: Sketch 60.1 (88133) - https://sketch.com -->
    <title>卡包</title>
    <desc>Created with Sketch.</desc>
    <g id="页面-1" stroke="none" stroke-width="1" fill="none" fill-rule="evenodd">
        <g id="1.12" transform="translate(-312.000000, -252.000000)" fill="#333333" fill-rule="nonzero">
            <g id="卡包" transform="translate(312.000000, 252.000000)">
                <path d="M20.6115385,0 L2.38846154,0 C1.07417582,0 0,1.04558611 0,2.32489146 L0,14.6751085 C0,15.9544139 1.07417582,17 2.38846154,17 L20.6115385,17 C21.9258242,17 23,15.9544139 23,14.6751085 L23,2.32489146 C23,1.04558611 21.9258242,0 20.6115385,0 Z M2.38846154,1.26700434 L20.6115385,1.26700434 C21.2054945,1.26700434 21.6983516,1.74674385 21.6983516,2.32489146 L21.6983516,3.29667149 L11.5,11.2062229 L1.30164835,3.29667149 L1.30164835,2.32489146 C1.30164835,1.74674385 1.79450549,1.26700434 2.38846154,1.26700434 Z M20.6115385,15.7329957 L2.38846154,15.7329957 C1.79450549,15.7329957 1.30164835,15.2532562 1.30164835,14.6751085 L1.30164835,4.92040521 L11.0956044,12.5101302 C11.2093407,12.5962373 11.360989,12.6454414 11.5,12.6454414 C11.639011,12.6454414 11.7906593,12.5962373 11.9043956,12.5101302 L21.6983516,4.92040521 L21.6983516,14.6751085 C21.6983516,15.2532562 21.2054945,15.7329957 20.6115385,15.7329957 L20.6115385,15.7329957 Z" id="形状"></path>
            </g>
        </g>
    </g>
</svg>