<?xml version="1.0" encoding="UTF-8"?>
<svg width="20px" height="21px" viewBox="0 0 20 21" version="1.1" xmlns="http://www.w3.org/2000/svg" xmlns:xlink="http://www.w3.org/1999/xlink">
    <!-- Generator: Sketch 60.1 (88133) - https://sketch.com -->
    <title>编组备份 23</title>
    <desc>Created with Sketch.</desc>
    <defs>
        <polygon id="path-1" points="0 0.0919003187 19.7534639 0.0919003187 19.7534639 20.4387097 0 20.4387097"></polygon>
    </defs>
    <g id="页面-1" stroke="none" stroke-width="1" fill="none" fill-rule="evenodd">
        <g id="unpaid默认俄语" transform="translate(-343.000000, -12.000000)">
            <g id="编组备份-23" transform="translate(343.000000, 12.000000)">
                <g id="编组">
                    <mask id="mask-2" fill="white">
                        <use xlink:href="#path-1"></use>
                    </mask>
                    <g id="Clip-2"></g>
                    <path d="M19.1224148,13.428774 L18.3774247,13.428774 L17.6727633,13.428774 L17.6727633,9.49690801 L19.1224148,9.49690801 L19.1224148,13.428774 Z M10.6265142,19.6402949 C10.4105363,19.6402949 10.2325793,19.4623796 10.2325793,19.2411244 C10.2325793,19.0223317 10.4082283,18.841954 10.6265142,18.841954 C10.8446787,18.841954 11.0203277,19.0198692 11.0203277,19.2411244 C11.0178983,19.4599171 10.8423707,19.6402949 10.6265142,19.6402949 L10.6265142,19.6402949 Z M2.08068847,9.17469052 L2.08068847,13.1065565 L0.631036933,13.1065565 L0.631036933,9.17469052 L0.963263926,9.17469052 L0.963263926,9.17949239 L1.59200503,9.17949239 L1.59200503,9.17469052 L2.08068847,9.17469052 Z M19.4380001,8.8597374 L18.8851793,8.8597374 C18.7191265,3.99717136 14.7665363,0.0919003187 9.92889828,0.0919003187 C5.19815595,0.0919003187 1.31431914,3.82405796 0.989380491,8.53739678 L0.315573129,8.53739678 C0.142353497,8.53739678 -1.21472393e-05,8.67935963 -1.21472393e-05,8.8572749 L-1.21472393e-05,13.4263115 C-1.21472393e-05,13.6018874 0.139924049,13.7461896 0.315573129,13.7461896 L2.39384429,13.7461896 C2.56706393,13.7461896 2.70942957,13.6043499 2.70942957,13.4263115 L2.70942957,8.8572749 C2.70942957,8.681699 2.5693719,8.53739678 2.39384429,8.53739678 L1.61800012,8.53739678 C1.94306025,4.17754913 5.54459521,0.729070937 9.92659031,0.729070937 C14.4177891,0.729070937 18.087956,4.34832317 18.2541302,8.8597374 L17.3572995,8.8597374 C17.1840799,8.8597374 17.0417142,9.00157712 17.0417142,9.17949239 L17.0417142,13.7486521 C17.0417142,13.9241049 17.1816504,14.0684071 17.3572995,14.0684071 L17.9551866,14.0684071 C16.9871731,17.6155082 14.9159474,19.2964074 11.789005,19.0607466 C11.7011805,18.4884628 11.214805,18.0484149 10.6240848,18.0484149 C9.97396454,18.0484149 9.44495227,18.5846232 9.44495227,19.2435869 C9.44495227,19.9024275 9.97396454,20.4387589 10.6240848,20.4387589 C11.1176271,20.4387589 11.5398652,20.130947 11.7153928,19.6932385 C11.9336787,19.7101066 12.1496566,19.7220497 12.3607756,19.7220497 C14.2872063,19.7220497 15.8388946,19.0030011 16.9871731,17.5769702 C18.0263694,16.2832984 18.4249204,14.7657857 18.5957106,14.1188883 C18.600448,14.1021433 18.6051854,14.0852752 18.6076148,14.0708696 L19.4380001,14.0708696 C19.6110983,14.0708696 19.7534639,13.9289068 19.7534639,13.7509915 L19.7534639,9.18195489 C19.751156,9.00157712 19.6110983,8.8597374 19.4380001,8.8597374 L19.4380001,8.8597374 Z" id="Fill-1" fill="#333333" mask="url(#mask-2)"></path>
                </g>
                <path d="M10.6868863,15.7624084 C12.5309111,15.4009958 13.9647509,14.420894 14.5758569,14.0034383 C14.6708252,13.939836 14.776778,13.8659373 14.8066729,13.8506884 C14.9831219,13.7641475 15.0511153,13.5604375 14.9587889,13.3950453 C14.8664625,13.2295228 14.649134,13.1659204 14.472685,13.2524613 C14.3992688,13.2881725 14.3069424,13.3517749 14.1521845,13.4586477 C10.6407232,15.856639 7.49856729,15.8030722 4.81275958,13.2983384 C4.6714891,13.1659204 4.44345407,13.1685271 4.3049645,13.2983384 C4.16369402,13.4306261 4.16633589,13.6445021 4.3049645,13.7743135 C5.82028508,15.1871199 7.49050264,15.8999094 9.28558327,15.8999094 C9.74457329,15.9023857 10.211628,15.8540323 10.6868863,15.7624084" id="Fill-3" fill="#000000"></path>
            </g>
        </g>
    </g>
</svg>