<?xml version="1.0" encoding="UTF-8"?>
<svg width="12px" height="12px" viewBox="0 0 12 12" version="1.1" xmlns="http://www.w3.org/2000/svg" xmlns:xlink="http://www.w3.org/1999/xlink">
    <!-- Generator: Sketch 63.1 (92452) - https://sketch.com -->
    <title>形状</title>
    <desc>Created with Sketch.</desc>
    <g id="页面-1" stroke="none" stroke-width="1" fill="none" fill-rule="evenodd">
        <g id="详情页" transform="translate(-1275.000000, -724.000000)" fill="#000000" fill-rule="nonzero">
            <g id="编组-13" transform="translate(1140.000000, 645.000000)">
                <g id="问号-实心备份" transform="translate(135.000000, 79.000000)">
                    <path d="M6,0 C2.68599609,0 0,2.68599609 0,6 C0,9.31400391 2.68599609,12 6,12 C9.31400391,12 12,9.31400391 12,6 C12,2.68599609 9.31400391,0 6,0 Z M5.92400004,9.52250391 L5.92400002,9.52250391 C5.64371564,9.52250391 5.41649963,9.29528789 5.41649963,9.01500352 C5.41649963,8.73471914 5.64371564,8.50750312 5.92400002,8.50750312 L5.92399999,8.50750312 C6.20428437,8.50750312 6.43150039,8.73471914 6.43150039,9.01500352 C6.43150039,9.29528789 6.20428437,9.52250391 5.92399999,9.52250391 L5.92400004,9.52250391 Z M8.10100395,4.5825 C8.07200391,5.12450039 7.90550355,5.55249961 7.07350395,6.38450391 C6.65150355,6.8065043 6.38550434,7.12250391 6.35850434,7.4005043 L6.35850434,7.40050427 C6.33544641,7.63246403 6.12871371,7.80181169 5.89675395,7.77875388 C5.66479418,7.75569595 5.49544653,7.54896325 5.51850434,7.31700349 C5.57600438,6.73200349 6.00450434,6.26000388 6.47700434,5.78799958 C7.23300434,5.03199958 7.24550473,4.79199958 7.25850434,4.53750349 L7.25850433,4.53750377 C7.27240112,4.23622291 7.16026651,3.9427526 6.94900511,3.72750377 L6.94900515,3.72750382 C6.70035554,3.46837413 6.3566364,3.3220714 5.99750476,3.32250382 L5.99550475,3.32250382 L5.99550477,3.32250382 C5.30105867,3.32497919 4.73910242,3.88805421 4.73800086,4.58250382 L4.73800086,4.58250382 C4.73800086,4.81556749 4.54906531,5.00450421 4.31600047,5.00450421 C4.0829368,5.00450421 3.89398905,4.81556866 3.89398905,4.58250382 L3.89398905,4.58248797 C3.89219417,4.02492391 4.11325198,3.48975204 4.50801097,3.09598797 L4.50801084,3.0959881 C4.90076709,2.70022365 5.43543858,2.47789318 5.99301084,2.47848525 L5.9930108,2.47848525 C6.58501393,2.47746467 7.15162487,2.71885294 7.56101471,3.14648888 L7.56101467,3.14648884 C7.93313538,3.52886697 8.12885491,4.04915603 8.10101467,4.58198884 L8.10100395,4.5825 Z" id="形状"></path>
                </g>
            </g>
        </g>
    </g>
</svg>