<?xml version="1.0" standalone="no"?><!DOCTYPE svg PUBLIC "-//W3C//DTD SVG 1.1//EN" "http://www.w3.org/Graphics/SVG/1.1/DTD/svg11.dtd"><svg t="1623995998245" class="icon" viewBox="0 0 1024 1024" version="1.1" xmlns="http://www.w3.org/2000/svg" p-id="2370" xmlns:xlink="http://www.w3.org/1999/xlink" width="200" height="200"><defs><style type="text/css"></style></defs><path d="M342.784 422.838857c5.485714-48.457143 23.259429-85.796571 53.321143-112.164571 30.025143-26.331429 68.937143-39.497143 116.626286-39.497143 49.115429 0 89.490286 13.531429 121.088 40.594286 31.597714 27.062857 47.396571 61.074286 47.396571 102.107428a137.508571 137.508571 0 0 1-13.787429 59.721143c-9.142857 19.382857-30.902857 44.141714-65.28 74.422857-26.221714 23.405714-42.752 41.837714-49.517714 55.296-6.838857 13.458286-10.605714 37.595429-11.300571 72.411429 0 0-5.595429 21.028571-30.756572 21.028571-25.197714 0-30.756571-21.028571-30.756571-21.028571 0-27.648 1.024-47.835429 3.035428-60.635429 2.011429-12.726857 6.217143-25.197714 12.507429-37.339428 6.326857-12.178286 14.555429-23.625143 24.685714-34.377143a631.588571 631.588571 0 0 1 42.788572-40.045715c23.332571-20.772571 37.961143-37.046857 43.812571-48.859428 5.851429-11.776 8.777143-23.771429 8.777143-35.913143 0-25.088-9.910857-47.067429-29.732571-66.048-19.785143-18.944-43.885714-28.416-72.265143-28.416-57.709714 0-92.525714 35.291429-104.448 105.910857 0 0-11.629714 28.379429-38.107429 24.795429-26.441143-3.547429-28.086857-31.963429-28.086857-31.963429z m201.106286 341.321143a31.853714 31.853714 0 1 1-63.744 0.036571 31.853714 31.853714 0 0 1 63.744 0zM512 1003.885714C240.786286 1003.885714 20.114286 783.213714 20.114286 512 20.114286 240.822857 240.786286 20.187429 512 20.187429 783.213714 20.114286 1003.885714 240.786286 1003.885714 512c0 271.213714-220.672 491.885714-491.885714 491.885714z m0-927.451428c-240.201143 0-435.638857 195.401143-435.638857 435.565714 0 240.237714 195.437714 435.638857 435.638857 435.638857 240.201143 0 435.638857-195.401143 435.638857-435.602286S752.201143 76.397714 512 76.397714z" fill="#AAAAAA" p-id="2371"></path></svg>