<?xml version="1.0" encoding="UTF-8"?>
<svg width="18px" height="24px" viewBox="0 0 18 24" version="1.1" xmlns="http://www.w3.org/2000/svg" xmlns:xlink="http://www.w3.org/1999/xlink">
    <!-- Generator: Sketch 63.1 (92452) - https://sketch.com -->
    <title>火</title>
    <desc>Created with Sketch.</desc>
    <g id="页面-1" stroke="none" stroke-width="1" fill="none" fill-rule="evenodd">
        <g id="商品详情-" transform="translate(-28.000000, -4103.000000)" fill="#FC333E" fill-rule="nonzero">
            <g id="火" transform="translate(28.000000, 4103.000000)">
                <path d="M6.66340285,24 C6.66340285,24 -3.31078109,21.6592949 1.14693045,10.0390567 C1.14693045,10.0390567 2.15955094,11.3308213 2.01973943,11.951997 L2.01973906,11.9519983 C2.51295761,10.2160251 3.3706659,8.61562379 4.5309243,7.26635054 C6.00099132,5.76140778 7.49549076,1.5289451 6.11772701,0 L6.11772727,0 C10.2540675,1.08858976 13.2886727,4.75982752 13.7028881,9.17645971 C13.7028881,9.17645971 14.5756971,6.73835068 16.368821,6.49410853 L16.3688207,6.49410948 C16.0252727,7.5817523 16.0252727,8.75517401 16.3688213,9.84281213 C16.3688213,9.84281213 22.0223965,20.1684591 12.2789707,23.6583493 C12.2789707,23.6583493 15.2000898,20.1204591 9.00628354,14.0470537 L9.00628392,14.0470529 C8.33602607,15.5719269 7.55601613,17.04199 6.67292219,18.4447007 C6.67292219,18.4447007 4.22688557,21.3698878 6.66341957,24 L6.66340285,24 Z" id="路径"></path>
            </g>
        </g>
    </g>
</svg>