<?xml version="1.0" encoding="UTF-8"?>
<svg width="9px" height="12px" viewBox="0 0 9 12" version="1.1" xmlns="http://www.w3.org/2000/svg" xmlns:xlink="http://www.w3.org/1999/xlink">
    <!-- Generator: Sketch 60.1 (88133) - https://sketch.com -->
    <title>火</title>
    <desc>Created with Sketch.</desc>
    <g id="页面-1" stroke="none" stroke-width="1" fill="none" fill-rule="evenodd">
        <g id="详情页。" transform="translate(-141.000000, -2824.000000)" fill="#FC333E" fill-rule="nonzero">
            <g id="火" transform="translate(141.000000, 2824.000000)">
                <path d="M3.33170143,12 C3.33170143,12 -1.65539055,10.8296474 0.573465225,5.01952833 C0.573465225,5.01952833 1.07977547,5.66541066 1.00986972,5.9759985 L1.00986953,5.97599916 C1.2564788,5.10801256 1.68533295,4.30781189 2.26546215,3.63317527 C3.00049566,2.88070389 3.74774538,0.764472549 3.0588635,0 L3.05886363,0 C5.12703375,0.544294879 6.64433633,2.37991376 6.85144404,4.58822986 C6.85144404,4.58822986 7.28784853,3.36917534 8.18441051,3.24705426 L8.18441036,3.24705474 C8.01263636,3.79087615 8.01263636,4.377587 8.18441066,4.92140607 C8.18441066,4.92140607 11.0111983,10.0842296 6.13948537,11.8291746 C6.13948537,11.8291746 7.60004488,10.0602296 4.50314177,7.02352686 L4.50314196,7.02352644 C4.16801304,7.78596344 3.77800807,8.52099498 3.33646109,9.22235035 C3.33646109,9.22235035 2.11344278,10.6849439 3.33170978,12 L3.33170143,12 Z" id="路径"></path>
            </g>
        </g>
    </g>
</svg>