<?xml version="1.0" encoding="UTF-8"?>
<svg width="15px" height="15px" viewBox="0 0 15 15" version="1.1" xmlns="http://www.w3.org/2000/svg" xmlns:xlink="http://www.w3.org/1999/xlink">
    <!-- Generator: Sketch 60.1 (88133) - https://sketch.com -->
    <title>编组 11</title>
    <desc>Created with Sketch.</desc>
    <g id="页面-1" stroke="none" stroke-width="1" fill="none" fill-rule="evenodd">
        <g id="1.4筛选数量超过9" transform="translate(-121.000000, -195.000000)">
            <g id="编组-11" transform="translate(121.000000, 195.000000)">
                <g id="编组-10">
                    <polygon id="矩形" fill="#333333" points="0 0 15 0 15 15"></polygon>
                    <g id="编组" transform="translate(9.000000, 2.000000)" fill="#FFFFFF" fill-rule="nonzero">
                        <path d="M3.8249493,4 C3.77875534,3.99983381 3.73448324,3.98146737 3.70176787,3.94886422 L1.99948234,2.24709703 L0.297284024,3.94879715 C0.264672904,3.98098674 0.220649059,3.99897388 0.17482048,3.99883295 C0.128886784,3.99894071 0.084775548,3.9808786 0.0521154032,3.94858922 C0.0188644677,3.9158312 0.000346997621,3.87208006 0,3.82541128 C-0.000337343706,3.7787425 0.0175226221,3.73471636 0.050256947,3.70147542 L1.75226069,1.99998323 L0.0500892163,0.298289829 C-0.0163455624,0.230875643 -0.0163455624,0.120843834 0.0502904931,0.0531948965 C0.0830579072,0.0197314873 0.127972,0.00094146003 0.174813771,0.00109998276 C0.220736328,0.0009919873 0.264836425,0.019052064 0.297485301,0.0513369988 L1.9994555,1.75286943 L3.70169407,0.0511693185 C3.73470347,0.0182033727 3.77857512,0 3.82529148,0 C3.87200783,0 3.91587277,0.0181698367 3.94892243,0.0511693185 C4.01697341,0.119501983 4.01695841,0.229975631 3.94888888,0.298289829 L2.24667715,2.00001677 L3.94888888,3.70171017 C3.9816762,3.7343699 4.00007331,3.77875786 4,3.82502897 C4,3.92154525 3.92180308,3.99982615 3.82525793,4 L3.8249493,4 L3.8249493,4 Z" id="路径"></path>
                    </g>
                </g>
            </g>
        </g>
    </g>
</svg>