<?xml version="1.0" standalone="no"?><!DOCTYPE svg PUBLIC "-//W3C//DTD SVG 1.1//EN" "http://www.w3.org/Graphics/SVG/1.1/DTD/svg11.dtd"><svg t="1618214195524" class="icon" viewBox="0 0 1024 1024" version="1.1" xmlns="http://www.w3.org/2000/svg" p-id="12838" xmlns:xlink="http://www.w3.org/1999/xlink" width="200" height="200"><defs><style type="text/css"></style></defs><path d="M23.272727 186.181818h977.454546v651.636364H23.272727z" fill="#C1312C" p-id="12839"></path><path d="M546.909091 446.836364l25.6 39.563636 46.545454-13.963636-27.927272 39.563636 27.927272 39.563636-46.545454-16.290909-30.254546 39.563637 2.327273-48.872728-46.545454-16.290909 46.545454-13.963636zM390.981818 640c-72.145455 0-130.327273-58.181818-130.327273-130.327273 0-72.145455 58.181818-130.327273 130.327273-130.327272 32.581818 0 65.163636 13.963636 88.436364 34.90909-30.254545-39.563636-76.8-62.836364-128-62.836363-88.436364 0-162.909091 72.145455-162.909091 162.909091 0 88.436364 72.145455 162.909091 162.909091 162.909091 55.854545 0 104.727273-27.927273 132.654545-69.818182-23.272727 18.618182-55.854545 32.581818-93.090909 32.581818z" fill="#FFFFFF" p-id="12840"></path></svg>