<?xml version="1.0" encoding="UTF-8"?>
<svg width="26px" height="20px" viewBox="0 0 26 20" version="1.1" xmlns="http://www.w3.org/2000/svg" xmlns:xlink="http://www.w3.org/1999/xlink">
    <!-- Generator: Sketch 60.1 (88133) - https://sketch.com -->
    <title>unpaid</title>
    <desc>Created with Sketch.</desc>
    <g id="页面-1" stroke="none" stroke-width="1" fill="none" fill-rule="evenodd">
        <g id="1.12" transform="translate(-42.000000, -141.000000)">
            <g id="unpaid" transform="translate(43.000000, 142.000000)">
                <g id="编组-4" transform="translate(20.000000, 13.000000)" fill="#333333">
                    <rect id="矩形" x="0" y="0" width="1" height="3" rx="0.5"></rect>
                    <rect id="矩形备份-5" transform="translate(1.500000, 2.500000) rotate(90.000000) translate(-1.500000, -2.500000) " x="1" y="1" width="1" height="3" rx="0.5"></rect>
                </g>
                <polygon id="形状备份-2" fill="#333333" fill-rule="nonzero" points="0 4 22 4 22 5 0 5"></polygon>
                <path d="M16.08256,18 L1.76,18 C0.7876,18 0,17.104 0,16 L0,2 C0,0.896 0.7876,0 1.76,0 C13.43232,0 19.59232,0 20.24,0 C21.21152,0 22,0.896 22,2 L22,8.72160083" id="Stroke-1" stroke="#333333" stroke-linecap="round"></path>
                <circle id="椭圆形" stroke="#333333" cx="20.5" cy="14.5" r="4"></circle>
                <rect id="矩形" fill="#333333" x="3" y="7" width="2" height="2"></rect>
            </g>
        </g>
    </g>
</svg>