<?xml version="1.0" encoding="UTF-8"?>
<svg width="27px" height="27px" viewBox="0 0 27 27" version="1.1" xmlns="http://www.w3.org/2000/svg" xmlns:xlink="http://www.w3.org/1999/xlink">
    <!-- Generator: Sketch 63.1 (92452) - https://sketch.com -->
    <title>矩形</title>
    <desc>Created with Sketch.</desc>
    <g id="页面-1" stroke="none" stroke-width="1" fill="none" fill-rule="evenodd">
        <g id="买家秀" transform="translate(-305.000000, -1124.000000)" fill="#FFFFFF" fill-rule="nonzero">
            <g id="编组-48" transform="translate(28.000000, 1008.000000)">
                <g id="编组-42" transform="translate(29.000000, 0.000000)">
                    <g id="编组-41" transform="translate(224.000000, 104.000000)">
                        <g id="编组-40" transform="translate(24.000000, 10.000000)">
                            <g id="编组-39" transform="translate(0.000000, 2.000000)">
                                <g id="编组-37">
                                    <path d="M26.84,0.92 L0.92,0.92 L0.92,26.84 L26.84,26.84 L26.84,0.92 Z M24.68,3.079 L24.68,24.68 L3.08,24.68 L3.08,3.079 L24.68,3.079 Z" id="矩形"></path>
                                    <path d="M1.13403997,19.6050422 C4.68089927,14.8459139 7.14907015,12.7651365 9.13982284,13.5727012 L9.36916459,13.6725263 C10.1571126,14.0405458 10.8155593,14.6233831 12.1431463,16.0252485 L13.0522015,16.9958561 C14.1849471,18.2045424 14.9040111,18.8622025 15.4572786,19.1522791 L15.516,19.181 L15.5961261,19.1235342 L15.6603058,19.0712348 C15.7671282,18.9811244 15.88825,18.8650031 16.0428607,18.7050747 L16.8170085,17.8785721 C18.1897268,16.4382457 19.3315432,15.74174 20.8759676,15.8844976 C22.6820507,16.0514413 24.481177,17.5197139 26.4537462,20.4705156 L26.6657648,20.7923541 L24.8542352,21.9687727 C23.1227987,19.3025888 21.7338251,18.1330009 20.6771574,18.0353287 C20.0278883,17.9753141 19.4160188,18.320049 18.5560105,19.1881507 L18.3806157,19.3687844 C18.2503902,19.5054236 17.8084657,19.9826459 17.7367155,20.0587162 C17.4694054,20.3421215 17.2626169,20.5454728 17.0530378,20.7222641 C16.3590742,21.3076597 15.65521,21.5616511 14.8728871,21.2566555 C13.9244648,20.8869047 13.0839455,20.1699246 11.7101551,18.7211901 L10.6140848,17.5528116 C9.40217435,16.2745853 8.83670498,15.7806967 8.32786562,15.574282 C7.7707168,15.3482701 5.83768758,16.9600606 3.08497246,20.603902 L2.86596003,20.8957989 L1.13403997,19.6050422 Z" id="路径-8"></path>
                                    <path d="M20,4.52 C17.8129524,4.52 16.04,6.29295239 16.04,8.48 C16.04,10.6670476 17.8129524,12.44 20,12.44 C22.1870476,12.44 23.96,10.6670476 23.96,8.48 C23.96,6.29295239 22.1870476,4.52 20,4.52 Z M20,6.68 C20.9941125,6.68 21.8,7.48588745 21.8,8.48 C21.8,9.47411255 20.9941125,10.28 20,10.28 C19.0058875,10.28 18.2,9.47411255 18.2,8.48 C18.2,7.48588745 19.0058875,6.68 20,6.68 Z" id="椭圆形"></path>
                                </g>
                            </g>
                        </g>
                    </g>
                </g>
            </g>
        </g>
    </g>
</svg>