<?xml version="1.0" standalone="no"?><!DOCTYPE svg PUBLIC "-//W3C//DTD SVG 1.1//EN" "http://www.w3.org/Graphics/SVG/1.1/DTD/svg11.dtd"><svg t="1619768484918" class="icon" viewBox="0 0 1501 1024" version="1.1" xmlns="http://www.w3.org/2000/svg" p-id="18783" xmlns:xlink="http://www.w3.org/1999/xlink" width="293.1640625" height="200"><defs><style type="text/css"></style></defs><path d="M0 6.826667h1501.866667v955.733333H0z" fill="#FFFFFF" p-id="18784"></path><path d="M0 6.826667h1501.866667v81.92H0V6.826667z m0 153.6h1501.866667v68.266666H0v-68.266666zM0 307.2h1501.866667v68.266667H0v-68.266667z m0 146.773333h1501.866667v68.266667H0v-68.266667zM0 600.746667h1501.866667v68.266666H0v-68.266666z m0 146.773333h1501.866667v68.266667H0v-68.266667z m0 146.773333h1501.866667v68.266667H0v-68.266667z" fill="#B72343" p-id="18785"></path><path d="M0 6.826667h604.16v515.413333H0z" fill="#00467B" p-id="18786"></path><path d="M103.082667 106.154667l3.549866 12.970666h10.922667l-7.236267 4.369067 3.618134 13.038933-10.922667-8.669866L95.778133 136.533333l3.618134-12.970666-10.922667-4.437334h10.922667l3.618133-12.970666z m101.512533 0v12.970666h10.922667l-7.304534 4.369067 3.618134 13.038933-7.236267-8.669866-10.922667 8.669866 3.6864-12.970666-7.304533-4.437334h10.922667l3.618133-12.970666z m101.512533 0l3.618134 12.970666h10.922666l-10.922666 4.369067 3.6864 13.038933-7.304534-8.669866L295.253333 136.533333l3.618134-12.970666-7.236267-4.437334h10.922667l3.549866-12.970666z m97.962667 0l3.618133 12.970666h10.922667l-7.304533 4.369067 3.618133 13.038933-10.922667-8.669866L396.834133 136.533333l3.6864-12.970666-7.304533-4.437334h10.922667v-12.970666z m105.130667 0l3.6864 12.970666h10.8544l-10.922667 4.369067 3.6864 13.038933-7.304533-8.669866L498.346667 136.533333l3.618133-12.970666-7.236267-4.437334h10.922667l3.549867-12.970666zM52.292267 40.96l3.618133 12.970667h10.922667l-10.922667 8.738133 3.618133 13.038933L52.292267 67.037867l-7.304534 8.669866V62.805333L37.751467 53.930667h10.922666L52.224 40.96z m101.512533 0l3.618133 12.970667h7.304534l-7.304534 8.738133 3.618134 13.038933-7.236267-8.669866-10.922667 8.669866 3.6864-12.970666L139.264 53.930667H150.186667L153.8048 40.96z m101.5808 0l3.618133 12.970667h10.922667l-10.922667 8.738133 3.618134 13.038933L255.317333 67.037867l-10.922666 8.669866 3.618133-12.970666L240.8448 53.930667h10.922667L255.317333 40.96z m101.512533 0v12.970667h10.922667L360.448 62.737067l3.618133 13.038933-7.236266-8.669867-10.922667 8.669867 3.6864-12.970667L342.4256 53.930667h10.8544L356.898133 40.96z m101.5808 0l3.618134 12.970667h10.922666l-10.922666 8.738133 3.618133 13.038933-7.236267-8.669866-7.304533 8.669866V62.805333L443.938133 53.930667h10.922667L458.410667 40.96z m101.512534 0l3.618133 12.970667h7.236267l-7.236267 8.738133 3.618133 13.038933-7.236266-8.669866-10.922667 8.669866 3.6864-12.970666L545.450667 53.930667h10.8544L559.991467 40.96zM103.082667 197.973333l3.549866 9.762134h10.922667l-7.236267 9.762133 3.618134 14.609067-10.922667-9.762134-7.236267 9.762134 3.618134-14.609067-10.922667-9.762133h10.922667L103.082667 197.973333z m101.512533 0v9.762134h10.922667l-7.304534 9.762133 3.618134 14.609067-7.236267-9.762134-10.922667 9.762134 3.6864-14.609067-7.304533-9.762133h10.922667l3.618133-9.762134z m101.512533 0l3.618134 9.762134h10.922666l-10.922666 9.762133 3.6864 14.609067-7.304534-9.762134-10.8544 9.762134 3.618134-14.609067-7.236267-9.762133h10.922667l3.549866-9.762134z m97.962667 0l3.618133 9.762134h10.922667l-7.304533 9.762133 3.618133 14.609067-10.922667-9.762134-7.236266 9.762134 3.6864-14.609067-7.304534-9.762133h10.922667V197.973333z m105.130667 0l3.6864 9.762134h10.8544l-10.922667 9.762133 3.6864 14.609067-7.304533-9.762134L498.346667 232.106667l3.618133-14.609067-7.236267-9.762133h10.922667l3.549867-9.762134zM52.292267 146.773333l3.618133 12.834134h10.922667l-10.922667 8.533333 3.618133 12.765867-7.236266-8.533334-7.304534 8.533334v-12.765867l-7.236266-8.6016h10.922666l3.618134-12.765867z m101.512533 0l3.618133 12.834134h7.304534l-7.304534 8.533333 3.618134 12.765867-7.236267-8.533334-10.922667 8.533334 3.6864-12.765867-7.236266-8.6016H150.186667l3.618133-12.765867z m101.5808 0l3.618133 12.834134h10.922667l-10.922667 8.533333 3.618134 12.765867-7.236267-8.533334-10.922667 8.533334 3.618134-12.765867-7.236267-8.6016h10.922667l3.618133-12.765867z m101.512533 0v12.834134h10.922667l-7.304533 8.533333 3.618133 12.765867-7.236267-8.533334-10.922666 8.533334 3.6864-12.765867-7.236267-8.6016h10.8544l3.618133-12.765867z m101.5808 0l3.618134 12.834134h10.922666l-10.922666 8.533333 3.618133 12.765867-7.236267-8.533334-7.304533 8.533334v-12.765867l-7.236267-8.6016h10.922667l3.618133-12.765867z m101.512534 0l3.618133 12.834134h7.236267l-7.236267 8.533333 3.618133 12.765867-7.236266-8.533334-10.922667 8.533334 3.6864-12.765867-7.236267-8.6016h10.8544l3.618134-12.765867zM103.082667 303.786667l3.549866 12.834133h10.922667l-7.236267 8.533333 3.618134 12.765867-10.922667-8.533333-7.236267 8.533333 3.618134-12.834133-10.922667-8.465067h10.922667l3.618133-12.834133z m101.512533 0v12.834133h10.922667l-7.304534 8.533333 3.618134 12.765867-7.236267-8.533333-10.922667 8.533333 3.6864-12.834133-7.304533-8.465067h10.922667l3.618133-12.834133z m101.512533 0l3.618134 12.834133h10.922666l-10.922666 8.533333 3.6864 12.765867-7.304534-8.533333-10.8544 8.533333 3.618134-12.834133-7.236267-8.465067h10.922667l3.549866-12.834133z m97.962667 0l3.618133 12.834133h10.922667l-7.304533 8.533333 3.618133 12.765867-10.922667-8.533333-7.236266 8.533333 3.6864-12.834133-7.304534-8.465067h10.922667V303.786667z m105.130667 0l3.6864 12.834133h10.8544l-10.922667 8.533333 3.6864 12.765867-7.304533-8.533333-10.8544 8.533333 3.618133-12.834133-7.236267-8.465067h10.922667l3.549867-12.834133zM52.292267 256l3.618133 14.609067h10.922667l-10.922667 4.9152 3.618133 14.609066-7.236266-4.846933-7.304534 4.846933v-14.609066l-7.236266-4.9152h10.922666l3.618134-14.609067z m101.512533 0l3.618133 14.609067h7.304534l-7.304534 4.9152 3.618134 14.609066-7.236267-4.846933-10.922667 4.846933 3.6864-14.609066-7.236266-4.9152H150.186667l3.618133-14.609067z m101.5808 0l3.618133 14.609067h10.922667l-10.922667 4.9152 3.618134 14.609066-7.236267-4.846933-10.922667 4.846933 3.618134-14.609066-7.236267-4.9152h10.922667l3.618133-14.609067z m101.512533 0v14.609067h10.922667l-7.304533 4.9152 3.618133 14.609066-7.236267-4.846933-10.922666 4.846933 3.6864-14.609066-7.236267-4.9152h10.8544l3.618133-14.609067z m101.5808 0l3.618134 14.609067h10.922666l-10.922666 4.9152 3.618133 14.609066-7.236267-4.846933-7.304533 4.846933v-14.609066l-7.236267-4.9152h10.922667l3.618133-14.609067z m101.512534 0l3.618133 14.609067h7.236267l-7.236267 4.9152 3.618133 14.609066-7.236266-4.846933-10.922667 4.846933 3.6864-14.609066-7.236267-4.9152h10.8544l3.618134-14.609067zM103.082667 413.013333l3.549866 14.609067h10.922667l-7.236267 9.762133 3.618134 9.762134-10.922667-4.846934-7.236267 4.846934 3.618134-9.762134-10.922667-9.762133h10.922667l3.618133-14.609067z m101.512533 0v14.609067h10.922667l-7.304534 9.762133 3.618134 9.762134-7.236267-4.846934-10.922667 4.846934 3.6864-9.762134-7.304533-9.762133h10.922667l3.618133-14.609067z m101.512533 0l3.618134 14.609067h10.922666l-10.922666 9.762133 3.6864 9.762134-7.304534-4.846934-10.8544 4.846934 3.618134-9.762134-7.236267-9.762133h10.922667l3.549866-14.609067z m97.962667 0l3.618133 14.609067h10.922667l-7.304533 9.762133 3.618133 9.762134-10.922667-4.846934-7.236266 4.846934 3.6864-9.762134-7.304534-9.762133h10.922667V413.013333z m105.130667 0l3.6864 14.609067h10.8544l-10.922667 9.762133 3.6864 9.762134-7.304533-4.846934-10.8544 4.846934 3.618133-9.762134-7.236267-9.762133h10.922667l3.549867-14.609067zM52.292267 365.226667l3.618133 9.762133h10.922667l-10.922667 9.762133 3.618133 14.609067-7.236266-9.762133-7.304534 9.762133v-14.609067l-7.236266-9.762133h10.922666l3.618134-9.762133z m101.512533 0l3.618133 9.762133h7.304534l-7.304534 9.762133 3.618134 14.609067-7.236267-9.762133-10.922667 9.762133 3.6864-14.609067-7.236266-9.762133H150.186667l3.618133-9.762133z m101.5808 0l3.618133 9.762133h10.922667l-10.922667 9.762133 3.618134 14.609067-7.236267-9.762133-10.922667 9.762133 3.618134-14.609067-7.236267-9.762133h10.922667l3.618133-9.762133z m101.512533 0v9.762133h10.922667l-7.304533 9.762133 3.618133 14.609067-7.236267-9.762133-10.922666 9.762133 3.6864-14.609067-7.236267-9.762133h10.8544l3.618133-9.762133z m101.5808 0l3.618134 9.762133h10.922666l-10.922666 9.762133 3.618133 14.609067-7.236267-9.762133-7.304533 9.762133v-14.609067l-7.236267-9.762133h10.922667l3.618133-9.762133z m101.512534 0l3.618133 9.762133h7.236267l-7.236267 9.762133 3.618133 14.609067-7.236266-9.762133-10.922667 9.762133 3.6864-14.609067-7.236267-9.762133h10.8544l3.618134-9.762133zM52.292267 464.213333l3.618133 12.834134h10.922667l-10.922667 8.533333 3.618133 12.765867-7.236266-8.533334-7.304534 8.533334v-12.765867l-7.236266-8.533333h10.922666L52.224 464.213333z m101.512533 0l3.618133 12.834134h7.304534l-7.304534 8.533333 3.618134 12.765867-7.236267-8.533334-10.922667 8.533334 3.6864-12.765867-7.236266-8.533333H150.186667l3.618133-12.834134z m101.5808 0l3.618133 12.834134h10.922667l-10.922667 8.533333 3.618134 12.765867-7.236267-8.533334-10.922667 8.533334 3.618134-12.765867-7.236267-8.533333h10.922667L255.317333 464.213333z m101.512533 0v12.834134h10.922667l-7.304533 8.533333 3.618133 12.765867-7.236267-8.533334-10.922666 8.533334 3.6864-12.765867-7.236267-8.533333h10.8544l3.618133-12.834134z m101.5808 0l3.618134 12.834134h10.922666l-10.922666 8.533333 3.618133 12.765867-7.236267-8.533334-7.304533 8.533334v-12.765867l-7.236267-8.533333h10.922667l3.618133-12.834134z m101.512534 0l3.618133 12.834134h7.236267l-7.236267 8.533333 3.618133 12.765867-7.236266-8.533334-10.922667 8.533334 3.6864-12.765867-7.236267-8.533333h10.8544l3.618134-12.834134z" fill="#FFFFFF" p-id="18787"></path></svg>