<?xml version="1.0" standalone="no"?><!DOCTYPE svg PUBLIC "-//W3C//DTD SVG 1.1//EN" "http://www.w3.org/Graphics/SVG/1.1/DTD/svg11.dtd"><svg t="1615379854934" class="icon" viewBox="0 0 1024 1024" version="1.1" xmlns="http://www.w3.org/2000/svg" p-id="2112" xmlns:xlink="http://www.w3.org/1999/xlink" width="200" height="200"><defs><style type="text/css"></style></defs><path d="M983.696938 312.686284a510.169971 510.169971 0 0 0-109.713972-162.742392A509.072831 509.072831 0 0 0 511.926857 0.001463a509.072831 509.072831 0 0 0-362.056108 149.942429A509.804258 509.804258 0 0 0 0.001463 512a509.072831 509.072831 0 0 0 149.942429 362.056108A509.072831 509.072831 0 0 0 512 1023.998537a509.072831 509.072831 0 0 0 362.056108-149.942429A509.072831 509.072831 0 0 0 1023.998537 512a511.705967 511.705967 0 0 0-40.301599-199.313716z m-161.498967 509.511687A435.637612 435.637612 0 0 1 512 950.709604a435.418185 435.418185 0 0 1-310.124828-128.511633A435.930183 435.930183 0 0 1 73.217254 512c0-117.174522 45.641012-227.400493 128.511632-310.124828A436.076468 436.076468 0 0 1 512 73.217254c117.174522 0 227.400493 45.641012 310.124828 128.511632A436.076468 436.076468 0 0 1 950.782746 512a435.930183 435.930183 0 0 1-128.511632 310.124828zM512.585141 224.037394a56.246696 56.246696 0 0 0-56.173554 59.464973l17.481093 306.175125a38.765604 38.765604 0 0 0 77.384922 0l17.40795-306.175125a56.246696 56.246696 0 0 0-56.100411-59.464973z m0 472.135794a55.149557 55.149557 0 0 0-55.003271 55.003271c0 30.207914 24.722215 54.930129 55.003271 54.930129a55.149557 55.149557 0 0 0 55.003272-54.930129 55.149557 55.149557 0 0 0-55.003272-55.003271z" fill="#ED4040" p-id="2113"></path></svg>