<?xml version="1.0" encoding="utf-8"?>
<!-- Generator: Adobe Illustrator 22.0.1, SVG Export Plug-In . SVG Version: 6.00 Build 0)  -->
<svg version="1.1" id="图层_1" xmlns="http://www.w3.org/2000/svg" xmlns:xlink="http://www.w3.org/1999/xlink" x="0px" y="0px"
	 viewBox="0 0 60 60" style="enable-background:new 0 0 60 60;" xml:space="preserve">
<style type="text/css">
	.st0{fill:#F36563;}
	.st1{fill:#333333;}
	.st2{fill:#F2F2F2;}
	.st3{fill:#FFFFFF;}
</style>
<circle class="st0" cx="29.9" cy="30.5" r="27"/>
<g>
	<path class="st3" d="M49.3,26.8C49.3,26.8,49.3,26.8,49.3,26.8c-0.5-0.6-1-1.3-1.5-2c0,0,0-0.1-0.1-0.1h0l-0.5-0.6l0,0
		c-0.7-0.8-1.3-1.5-1.9-2c-1.3-1.3-2-1.4-2.4-1.4h-7.1c-0.2,0-0.4,0-0.6,0.1v-3.1c0-1.5-1.2-2.8-2.8-2.8H11.6
		c-1.5,0-2.8,1.2-2.8,2.8v21.7c0,1.5,1.2,2.8,2.8,2.8h3.2c0.5,2.4,2.7,4.2,5.1,4.2c2.5,0,4.6-1.8,5.1-4.2h7.4c0.6,0,1.2-0.2,1.7-0.6
		c0.5,0.4,1.1,0.6,1.7,0.6h0.7c0.5,2.4,2.7,4.2,5.1,4.2c2.5,0,4.6-1.8,5.1-4.2h1.5c1.5,0,2.8-1.2,2.8-2.8v-8.8c0-0.4-0.1-1-0.9-2.3
		C49.9,27.7,49.6,27.3,49.3,26.8L49.3,26.8z M16.9,40.9c0-1.7,1.4-3.1,3.1-3.1c1.7,0,3.1,1.4,3.1,3.1c0,1.7-1.4,3.1-3.1,3.1
		C18.2,44,16.9,42.6,16.9,40.9z M33,23.4v15.8c0,0.3-0.3,0.6-0.6,0.6h-7.4c-0.5-2.4-2.5-4.1-5-4.2h0v0h0c0,0,0,0,0,0h-0.3
		c-2.4,0.1-4.5,1.8-5,4.2h-3.2c-0.3,0-0.6-0.3-0.6-0.6V17.5c0-0.3,0.3-0.6,0.6-0.6h20.8c0.3,0,0.6,0.3,0.6,0.6L33,23.4L33,23.4z
		 M38.5,40.9c0-1.7,1.4-3.1,3.1-3.1c1.7,0,3.1,1.4,3.1,3.1c0,1.7-1.4,3.1-3.1,3.1C39.9,44,38.5,42.6,38.5,40.9z M48.9,39.2
		L48.9,39.2c0,0.3-0.3,0.6-0.6,0.6h-1.5c-0.5-2.3-2.4-4-4.7-4.2v0c0,0,0,0,0,0c0,0,0,0,0,0s0,0,0,0c0,0,0,0,0,0c0,0,0,0,0,0
		c0,0,0,0,0,0h0c0,0,0,0,0,0h-0.1c0,0,0,0,0,0h0v0v0c0,0,0,0,0,0h0v0v0h0c0,0,0,0,0,0h-0.2v0l0,0v0h0v0l0,0h0v0l0,0l0,0v0v0l0,0h0v0
		l0,0v0l0,0h-0.2l0,0v0h0v0h0l0,0v0h0v0l0,0v0h0v0h0v0h0c0,0,0,0,0,0c-2.3,0.2-4.2,1.9-4.7,4.1h-0.7c-0.3,0-0.6-0.3-0.6-0.6V23.4
		c0-0.3,0.3-0.6,0.6-0.6h7c0.1,0.1,0.5,0.3,1.2,1c0.1,0.1,0.1,0.1,0.2,0.2h-3.4c-1.5,0-2.8,1.2-2.8,2.8V30c0,1.5,1.2,2.8,2.8,2.8
		h8.1V39.2L48.9,39.2z M48.9,30.6h-8.1c-0.3,0-0.6-0.3-0.6-0.6v-3.3c0-0.3,0.3-0.6,0.6-0.6h5.3c0.3,0.3,0.5,0.6,0.8,1c0,0,0,0,0,0
		c0.4,0.6,0.8,1.1,1.1,1.6l0.1-0.1L48,28.8l0.3-0.2L48,28.8l0.1,0.2c0.6,1,0.7,1.4,0.7,1.5L48.9,30.6L48.9,30.6z"/>
</g>
</svg>
