<?xml version="1.0" encoding="utf-8"?>
<!-- Generator: Adobe Illustrator 22.0.1, SVG Export Plug-In . SVG Version: 6.00 Build 0)  -->
<svg version="1.1" id="图层_1" xmlns="http://www.w3.org/2000/svg" xmlns:xlink="http://www.w3.org/1999/xlink" x="0px" y="0px"
	 viewBox="0 0 60 60" style="enable-background:new 0 0 60 60;" xml:space="preserve">
<style type="text/css">
	.st0{fill:#F36563;}
	.st1{fill:#333333;}
	.st2{fill:#F2F2F2;}
	.st3{fill:#FFFFFF;}
</style>
<circle class="st0" cx="30" cy="30.5" r="27"/>
<g>
	<path class="st2" d="M43,44.1c0-5.6-3.6-10.3-8.5-12.1c2.9-1.5,4.8-4.5,4.8-8c0-5-4.1-9.1-9.1-9.1v0c-0.1,0-0.1,0-0.2,0
		c-0.1,0-0.1,0-0.2,0l0,0c-5,0-9.1,4.1-9.1,9.1c0,3.5,2,6.5,4.8,8c-4.9,1.9-8.5,6.6-8.5,12.1v0.2c0,0.3,0.1,0.6,0.1,1h0
		c0.1,0.5,0.5,0.9,1,0.9c0.5,0,0.9-0.4,1-0.9h0c0-0.3-0.1-0.7-0.1-1c0-3,1.2-5.8,3.3-7.9c2.1-2.1,4.8-3.2,7.7-3.3
		c2.9,0,5.7,1.2,7.7,3.3c2.1,2.1,3.3,4.9,3.3,7.9c0,0.3-0.1,0.7-0.1,1h0c0.1,0.5,0.5,0.9,1,0.9c0.5,0,0.9-0.4,1-0.9h0
		c0-0.3,0.1-0.6,0.1-1V44.1z M23.1,23.9c0-3.9,3.1-7,6.9-7.1c3.8,0.1,6.9,3.2,6.9,7.1c0,3.9-3.1,7-6.9,7.1
		C26.2,30.9,23.1,27.8,23.1,23.9L23.1,23.9z M23.1,23.9"/>
</g>
</svg>
