<?xml version="1.0" encoding="utf-8"?>
<!-- Generator: Adobe Illustrator 22.0.1, SVG Export Plug-In . SVG Version: 6.00 Build 0)  -->
<svg version="1.1" id="图层_1" xmlns="http://www.w3.org/2000/svg" xmlns:xlink="http://www.w3.org/1999/xlink" x="0px" y="0px"
	 viewBox="0 0 60 60" style="enable-background:new 0 0 60 60;" xml:space="preserve">
<style type="text/css">
	.st0{fill:#F36563;}
	.st1{fill:#333333;}
	.st2{fill:#F2F2F2;}
	.st3{fill:#FFFFFF;}
</style>
<circle class="st0" cx="30.3" cy="30.5" r="27"/>
<g>
	<path class="st2" d="M42.6,48.1H18c-2.3,0-4.1-1.9-4.1-4.1V17.6c0-2.3,1.9-4.1,4.1-4.1h3.4c0.6,0,1.1,0.5,1.1,1.1
		c0,0.6-0.5,1.1-1.1,1.1H18c-1.1,0-2,0.9-2,2V44c0,1.1,0.9,2,2,2h24.6c1.1,0,2-0.9,2-2V17.6c0-1.1-0.9-2-2-2h-3.4
		c-0.6,0-1.1-0.5-1.1-1.1c0-0.6,0.5-1.1,1.1-1.1h3.4c2.3,0,4.1,1.9,4.1,4.1V44C46.7,46.3,44.9,48.1,42.6,48.1L42.6,48.1z"/>
	<path class="st2" d="M34,16.2h-7.4c-0.9,0-1.7-0.8-1.7-1.7s0.8-1.7,1.7-1.7H34c0.9,0,1.7,0.8,1.7,1.7S34.9,16.2,34,16.2z M38,25.5
		H22.7c-0.6,0-1.1-0.5-1.1-1.1s0.5-1.1,1.1-1.1H38c0.6,0,1.1,0.5,1.1,1.1S38.6,25.5,38,25.5z M38,32H22.7c-0.6,0-1.1-0.5-1.1-1.1
		c0-0.6,0.5-1.1,1.1-1.1H38c0.6,0,1.1,0.5,1.1,1.1C39,31.5,38.6,32,38,32z M38,38.1H22.7c-0.6,0-1.1-0.5-1.1-1.1
		c0-0.6,0.5-1.1,1.1-1.1H38c0.6,0,1.1,0.5,1.1,1.1C39,37.7,38.6,38.1,38,38.1z"/>
</g>
</svg>
