<?xml version="1.0" encoding="UTF-8"?>
<svg width="38px" height="30px" viewBox="0 0 38 30" version="1.1" xmlns="http://www.w3.org/2000/svg" xmlns:xlink="http://www.w3.org/1999/xlink">
    <!-- Generator: Sketch 57 (83077) - https://sketch.com -->
    <title>de</title>
    <desc>Created with Sketch.</desc>
    <defs>
        <polygon id="path-1" points="-6.14557356e-16 0 38 0 38 30 -6.14557356e-16 30"></polygon>
    </defs>
    <g id="页面1" stroke="none" stroke-width="1" fill="none" fill-rule="evenodd">
        <g id="4.1-点击对应查询的订单的订单详情页面" transform="translate(-104.000000, -78.000000)">
            <g id="de" transform="translate(104.000000, 78.000000)">
                <g id="编组">
                    <mask id="mask-2" fill="white">
                        <use xlink:href="#path-1"></use>
                    </mask>
                    <g id="Clip-2"></g>
                    <path d="M30.8749301,13.2 L27.3123951,13.2 L27.3123951,10.8 C27.3123951,10.1497017 26.7568559,9.6 26.1248835,9.6 C25.4932839,9.6 24.9373718,10.1497017 24.9373718,10.8 L24.9373718,15.6 L30.8749301,15.6 C31.5255448,15.58719 32.049765,15.0574568 32.0624417,14.4003768 C32.049765,13.7425432 31.5255448,13.21281 30.8749301,13.2 L30.8749301,13.2 Z M35.6249767,24 L34.2689391,24 C33.739499,21.933438 31.8987627,20.4 29.6874184,20.4 C27.476447,20.4 25.6357107,21.933438 25.1058978,24 L22.5627214,24 L22.5627214,8.4 L28.4999068,8.4 C29.2243448,8.4 30.3096969,8.72175824 30.7608395,9.30235479 L34.8270882,14.5510832 C35.3994054,15.2951962 35.6249767,15.8520565 35.6249767,16.8 L35.6249767,24 Z M29.6874184,27.6 C28.8391958,27.6 28.0551026,27.142606 27.630432,26.4 C27.2065071,25.657394 27.2065071,24.742606 27.630432,24 C28.0551026,23.257394 28.8391958,22.8 29.6874184,22.8 C30.9990875,22.8 32.0624417,23.8745369 32.0624417,25.2 C32.0624417,26.5254631 30.9990875,27.6 29.6874184,27.6 L29.6874184,27.6 Z M20.1873252,24 L14.081241,24 C13.5518009,21.933438 11.7110647,20.4 9.49972037,20.4 C7.28874891,20.4 5.44801264,21.933438 4.91857259,24 L4.75004661,24 C3.04241604,24 2.3750233,23.3591209 2.3750233,21.6 L2.3750233,4.80037677 C2.3750233,3.04087912 3.67401564,2.35215071 5.38388328,2.35215071 L18.1665048,2.35215071 C19.8741353,2.35215071 20.1873252,3.04087912 20.1873252,4.80037677 L20.1873252,24 Z M9.49972037,27.6 C8.65149776,27.6 7.86740451,27.142606 7.44310678,26.4 C7.01880905,25.657394 7.01880905,24.742606 7.44310678,24 C7.86740451,23.257394 8.65149776,22.8 9.49972037,22.8 C10.8113894,22.8 11.8751165,23.8745369 11.8751165,25.2 C11.8751165,26.5254631 10.8113894,27.6 9.49972037,27.6 L9.49972037,27.6 Z M36.6104063,13.0873469 L32.5445305,7.83598116 C31.6586505,6.69136578 31.1101954,6 29.6874184,6 L22.5627214,6 L22.5627214,4.80037677 C22.5627214,1.74254317 21.1328604,0 18.1638949,0 L4.75004661,0 C1.78108105,0 0,1.74254317 0,4.80037677 L0,21.6 C0,24.5998116 1.85714146,26.3110832 4.75004661,26.4 L4.91857259,26.4 C5.44801264,28.466562 7.28874891,30 9.49972037,30 C11.7110647,30 13.5518009,28.466562 14.081241,26.4 L25.1058978,26.4 C25.6357107,28.466562 27.476447,30 29.6874184,30 C31.8987627,30 33.739499,28.466562 34.2689391,26.4 L38,26.4 L38,17.1718681 C38,15.693438 37.5059802,14.2440188 36.6104063,13.0873469 L36.6104063,13.0873469 Z" id="Fill-1" fill="#231916" mask="url(#mask-2)"></path>
                </g>
            </g>
        </g>
    </g>
</svg>