<?xml version="1.0" encoding="utf-8"?>
<!-- Generator: Adobe Illustrator 22.0.1, SVG Export Plug-In . SVG Version: 6.00 Build 0)  -->
<svg version="1.1" id="图层_1" xmlns="http://www.w3.org/2000/svg" xmlns:xlink="http://www.w3.org/1999/xlink" x="0px" y="0px"
	 viewBox="0 0 60 60" style="enable-background:new 0 0 60 60;" xml:space="preserve">
<style type="text/css">
	.st0{fill:#F36563;}
	.st1{fill:#333333;}
	.st2{fill:#F2F2F2;}
	.st3{fill:#FFFFFF;}
</style>
<circle class="st0" cx="30" cy="30.5" r="27"/>
<g>
	<path class="st2" d="M23.3,45.2c-1.1,0-2.1,0.9-2.1,2.1s0.9,2.1,2.1,2.1s2.1-0.9,2.1-2.1S24.5,45.2,23.3,45.2z M41,45.2
		c-1.1,0-2.1,0.9-2.1,2.1s0.9,2.1,2.1,2.1c1.1,0,2.1-0.9,2.1-2.1S42.2,45.2,41,45.2z M44.2,43.2h-21c-0.9,0-1.7-0.3-2.4-0.9
		c-0.7-0.6-1.1-1.4-1.2-2.3l0,0l-2.2-15.5l-1.2-7.2l0,0c-0.1-0.7-0.7-1.3-1.4-1.3h-1.6c-0.6,0-1.1-0.5-1.1-1.1s0.5-1.1,1.1-1.1h1.6
		c1.7,0,3.3,1.4,3.5,3.1l1.2,7.2l2.2,15.5c0,0.4,0.2,0.7,0.5,0.9c0.3,0.2,0.6,0.4,0.9,0.4h21c0.6,0,1.1,0.5,1.1,1.1
		C45.3,42.7,44.8,43.2,44.2,43.2L44.2,43.2z M24.8,37.9c-0.6,0-1-0.4-1.1-1c0-0.6,0.4-1.1,1-1.1l17.6-1.3l0,0c0.7,0,1.3-0.6,1.4-1.2
		l0,0l2-11.6c0,0,0,0,0,0c0.1-0.5-0.1-1-0.4-1.3c-0.2-0.2-0.5-0.3-0.8-0.3H22.2c-0.6,0-1.1-0.5-1.1-1.1c0-0.6,0.5-1.1,1.1-1.1h22.4
		c0.9,0,1.8,0.4,2.4,1.1c0.7,0.8,1,1.9,0.9,3c0,0,0,0.1,0,0.1l-2,11.6c-0.2,1.7-1.7,3-3.4,3.1L24.8,37.9
		C24.8,37.9,24.8,37.9,24.8,37.9z"/>
</g>
</svg>
