<?xml version="1.0" encoding="utf-8"?>
<!-- Generator: Adobe Illustrator 22.0.1, SVG Export Plug-In . SVG Version: 6.00 Build 0)  -->
<svg version="1.1" id="图层_1" xmlns="http://www.w3.org/2000/svg" xmlns:xlink="http://www.w3.org/1999/xlink" x="0px" y="0px"
	 viewBox="0 0 60 60" style="enable-background:new 0 0 60 60;" xml:space="preserve">
<style type="text/css">
	.st0{fill:#F36563;}
	.st1{fill:#333333;}
	.st2{fill:#F2F2F2;}
	.st3{fill:#FFFFFF;}
</style>
<g>
	<path class="st1" d="M32,30.2h-4.8c-0.2,0-0.3-0.2-0.2-0.4c0.3-0.6,0.8-2,0.8-2.1c0,0-0.1,0-0.2,0.1c-0.3,0.2-0.7,0.4-1.2,0.7
		l-0.1,0.1c-0.7,0.4-1.4,0.8-2.1,1.3c-0.7,0.5-1.1,0.9-1.1,1.2c0,0.2,0.2,0.6,0.5,0.8c1,0.7,3.7,2.1,4.2,2.4h0c0,0-0.6-1.5-0.9-2.1
		c-0.1-0.2,0.1-0.4,0.3-0.4l4.8,0c0.9,0.1,2.5,0.8,2.5,2.5c0,1.4-1.3,2.6-2.5,2.6h-5.7c-0.5,0-0.9,0.3-0.9,0.9
		c0,0.5,0.4,0.9,0.9,0.9H32c0.2,0,2,0,3.3-1.2c0.7-0.7,1.1-1.7,1.1-3v0c0,0,0-1.9-1.2-3.1C34.4,30.5,33.3,30.2,32,30.2L32,30.2z"/>
	<path class="st1" d="M13.4,27.9v-4h32.5v18.7c0,0.7-0.5,1.9-2,1.9H15.3c-0.7,0-1.9-1.2-1.9-1.8V27.9z M11.7,34v9.2
		c0,1.6,1.3,2.9,3,2.9h30c1.7,0,3-1.3,3-2.9l0-19.7c0-1.1-0.3-2.2-0.9-3.1l-2.6-4.1c-0.5-0.9-1.5-1.4-2.6-1.4H17.7
		c-1,0-2,0.5-2.6,1.4l-2.6,4.1c-0.6,0.9-0.9,2-0.9,3.1V28L11.7,34z M16.2,18c0.7-1.2,1.4-1.3,1.8-1.3h23.6c0.4,0,0.9,0.4,1.1,0.7
		l3.1,4.8l-32.4,0L16.2,18L16.2,18z"/>
</g>
</svg>
