<?xml version="1.0" encoding="UTF-8"?>
<svg width="31px" height="33px" viewBox="0 0 31 33" version="1.1" xmlns="http://www.w3.org/2000/svg" xmlns:xlink="http://www.w3.org/1999/xlink">
    <!-- Generator: Sketch 57 (83077) - https://sketch.com -->
    <title>or</title>
    <desc>Created with Sketch.</desc>
    <defs>
        <polygon id="path-1" points="0 0.0483459459 30.9998229 0.0483459459 30.9998229 31.9999135 0 31.9999135"></polygon>
        <polygon id="path-3" points="0.205431579 0.284571429 16.7938526 0.284571429 16.7938526 23.424 0.205431579 23.424"></polygon>
    </defs>
    <g id="页面1" stroke="none" stroke-width="1" fill="none" fill-rule="evenodd">
        <g id="4.1-点击对应查询的订单的订单详情页面" transform="translate(-26.000000, -71.000000)">
            <g id="or" transform="translate(26.000000, 71.000000)">
                <g id="编组">
                    <g transform="translate(0.000000, 1.000000)">
                        <mask id="mask-2" fill="white">
                            <use xlink:href="#path-1"></use>
                        </mask>
                        <g id="Clip-2"></g>
                        <path d="M27.11508,31.9999135 L3.88456571,31.9999135 C1.72253714,31.9999135 -0.000177142857,30.2788324 -0.000177142857,28.2066162 L-0.000177142857,3.84164324 C-0.000177142857,1.72964324 1.76239429,0.0483459459 3.88456571,0.0483459459 L7.04922286,0.0483459459 C7.60988,0.0483459459 8.05096571,0.478183784 8.05096571,1.02564324 C8.05096571,1.5731027 7.60988,2.00294054 7.04922286,2.00294054 L3.88456571,2.00294054 C2.84385143,2.00294054 2.00242286,2.82456216 2.00242286,3.84164324 L2.00242286,28.2066162 C2.00242286,29.2236973 2.84385143,30.0444541 3.88456571,30.0444541 L27.11508,30.0444541 C28.15668,30.0444541 28.9972229,29.2236973 28.9972229,28.2066162 L28.9972229,3.84164324 C28.9972229,2.82456216 28.15668,2.00294054 27.11508,2.00294054 L23.9105657,2.00294054 C23.3499086,2.00294054 22.9097086,1.5731027 22.9097086,1.02564324 C22.9097086,0.478183784 23.3499086,0.0483459459 23.9105657,0.0483459459 L27.11508,0.0483459459 C29.2779943,0.0483459459 30.9998229,1.76856216 30.9998229,3.84164324 L30.9998229,28.2066162 C30.9998229,30.2788324 29.2779943,31.9999135 27.11508,31.9999135" id="Fill-1" fill="#231916" mask="url(#mask-2)"></path>
                    </g>
                    <g transform="translate(7.000000, 0.000000)">
                        <mask id="mask-4" fill="white">
                            <use xlink:href="#path-3"></use>
                        </mask>
                        <g id="Clip-4"></g>
                        <path d="M15.7828,23.424 L1.21737895,23.424 C0.651010526,23.424 0.205431579,22.9971429 0.205431579,22.4554286 C0.205431579,21.912 0.651010526,21.486 1.21737895,21.486 L15.7828,21.486 C16.3491684,21.486 16.7938526,21.912 16.7938526,22.4554286 C16.7938526,22.9971429 16.3491684,23.424 15.7828,23.424 M15.7828,17.8422857 L1.21737895,17.8422857 C0.651010526,17.8422857 0.205431579,17.4162857 0.205431579,16.8737143 C0.205431579,16.3311429 0.651010526,15.9051429 1.21737895,15.9051429 L15.7828,15.9051429 C16.3491684,15.9051429 16.7938526,16.3311429 16.7938526,16.8737143 C16.7938526,17.4162857 16.3491684,17.8422857 15.7828,17.8422857 M15.7828,11.9125714 L1.21737895,11.9125714 C0.651010526,11.9125714 0.205431579,11.4857143 0.205431579,10.9431429 C0.205431579,10.4005714 0.651010526,9.97457143 1.21737895,9.97457143 L15.7828,9.97457143 C16.3491684,9.97457143 16.7938526,10.4005714 16.7938526,10.9431429 C16.7938526,11.4857143 16.3491684,11.9125714 15.7828,11.9125714 M12.0195368,3.38571429 L4.97974737,3.38571429 C4.09037895,3.38571429 3.36116842,2.688 3.36116842,1.83514286 C3.36116842,0.982285714 4.09037895,0.284571429 4.97974737,0.284571429 L12.0195368,0.284571429 C12.9098,0.284571429 13.6390105,0.982285714 13.6390105,1.83514286 C13.6390105,2.688 12.9098,3.38571429 12.0195368,3.38571429" id="Fill-3" fill="#231916" mask="url(#mask-4)"></path>
                    </g>
                </g>
            </g>
        </g>
    </g>
</svg>