<?xml version="1.0" encoding="utf-8"?>
<!-- Generator: Adobe Illustrator 22.0.1, SVG Export Plug-In . SVG Version: 6.00 Build 0)  -->
<svg version="1.1" id="图层_1" xmlns="http://www.w3.org/2000/svg" xmlns:xlink="http://www.w3.org/1999/xlink" x="0px" y="0px"
	 viewBox="0 0 60 60" style="enable-background:new 0 0 60 60;" xml:space="preserve">
<style type="text/css">
	.st0{fill:#F36563;}
	.st1{fill:#333333;}
	.st2{fill:#F2F2F2;}
	.st3{fill:#FFFFFF;}
</style>
<g>
	<path class="st1" d="M42.6,48.3H18c-2.3,0-4.1-1.9-4.1-4.1V17.8c0-2.3,1.9-4.1,4.1-4.1h3.4c0.6,0,1.1,0.5,1.1,1.1s-0.5,1.1-1.1,1.1
		H18c-1.1,0-2,0.9-2,2v26.4c0,1.1,0.9,2,2,2h24.6c1.1,0,2-0.9,2-2V17.8c0-1.1-0.9-2-2-2h-3.4c-0.6,0-1.1-0.5-1.1-1.1
		c0-0.6,0.5-1.1,1.1-1.1h3.4c2.3,0,4.1,1.9,4.1,4.1v26.4C46.7,46.5,44.9,48.3,42.6,48.3L42.6,48.3z"/>
	<path class="st1" d="M34,16.4h-7.4c-0.9,0-1.7-0.8-1.7-1.7c0-0.9,0.8-1.7,1.7-1.7H34c0.9,0,1.7,0.8,1.7,1.7
		C35.7,15.6,34.9,16.4,34,16.4z M38,25.7H22.7c-0.6,0-1.1-0.5-1.1-1.1s0.5-1.1,1.1-1.1H38c0.6,0,1.1,0.5,1.1,1.1S38.6,25.7,38,25.7z
		 M38,32.2H22.7c-0.6,0-1.1-0.5-1.1-1.1c0-0.6,0.5-1.1,1.1-1.1H38c0.6,0,1.1,0.5,1.1,1.1C39,31.7,38.6,32.2,38,32.2z M38,38.3H22.7
		c-0.6,0-1.1-0.5-1.1-1.1c0-0.6,0.5-1.1,1.1-1.1H38c0.6,0,1.1,0.5,1.1,1.1C39,37.8,38.6,38.3,38,38.3z"/>
</g>
</svg>
