<?xml version="1.0" encoding="UTF-8"?>
<svg width="36px" height="32px" viewBox="0 0 36 32" version="1.1" xmlns="http://www.w3.org/2000/svg" xmlns:xlink="http://www.w3.org/1999/xlink">
    <!-- Generator: Sketch 57 (83077) - https://sketch.com -->
    <title>pre</title>
    <desc>Created with Sketch.</desc>
    <defs>
        <polygon id="path-1" points="0.320095238 0.0558139535 29.6409524 0.0558139535 29.6409524 19.7967442 0.320095238 19.7967442"></polygon>
    </defs>
    <g id="页面1" stroke="none" stroke-width="1" fill="none" fill-rule="evenodd">
        <g id="4.1-点击对应查询的订单的订单详情页面" transform="translate(-187.000000, -78.000000)">
            <g id="pre" transform="translate(187.000000, 78.000000)">
                <g id="编组">
                    <g transform="translate(6.000000, 0.000000)">
                        <mask id="mask-2" fill="white">
                            <use xlink:href="#path-1"></use>
                        </mask>
                        <g id="Clip-2"></g>
                        <path d="M8.47247619,14.6744186 C7.5667619,14.6744186 6.82580952,15.3930233 6.82580952,16.2827907 C6.82580952,17.1730233 7.5667619,17.8916279 8.47247619,17.8916279 C9.37819048,17.8916279 10.1191429,17.167907 10.1191429,16.2827907 C10.1191429,15.3981395 9.37819048,14.6744186 8.47247619,14.6744186 L8.47247619,14.6744186 Z M29.6410476,2.29767442 C29.6410476,1.06093023 28.6115238,0.0558139535 27.3458095,0.0558139535 L2.61580952,0.0558139535 C1.34961905,0.0558139535 0.320095238,1.06093023 0.320095238,2.29767442 L0.320095238,4.54511628 L2.31152381,4.54511628 L2.31152381,2.00093023 L27.654381,2.00093023 L27.654381,17.8516279 L25.0500952,17.8516279 L25.0500952,19.7967442 L27.3458095,19.7967442 C28.6115238,19.7967442 29.6410476,18.7916279 29.6410476,17.5548837 L29.6410476,2.29767442 Z M14.9777143,14.6744186 C14.072,14.6744186 13.3310476,15.3930233 13.3310476,16.2827907 C13.3310476,17.1730233 14.072,17.8916279 14.9777143,17.8916279 C15.8834286,17.8916279 16.6248571,17.167907 16.6248571,16.2827907 C16.6248571,15.3981395 15.8886667,14.6744186 14.9777143,14.6744186 L14.9777143,14.6744186 Z" id="Fill-1" fill="#231916" mask="url(#mask-2)"></path>
                    </g>
                    <path d="M26.9035464,23.8917186 L10.2859022,23.8917186 L7.24246558,26.9354441 L7.24246558,23.8917186 L2.09174461,23.8917186 L2.09174461,8.0919432 L26.9035464,8.0919432 L26.9035464,23.8917186 Z M29,8.27043182 C29,7.01818577 27.9823818,6 26.7302546,6 L2.26974539,6 C1.01808911,6 0,7.01818577 0,8.27043182 L0,23.7188813 C0,24.9706564 1.01808911,25.9888422 2.26974539,25.9888422 L5.14554105,25.9888422 L5.14554105,32 L11.1561282,25.9888422 L26.7250747,25.9888422 C27.9772019,25.9888422 28.9948201,24.9706564 28.9948201,23.7188813 L28.9948201,8.27043182 L29,8.27043182 Z" id="Fill-3" fill="#231916"></path>
                    <path d="M8.5,14 C7.67495662,14 7,14.6700882 7,15.4997831 C7,16.3299118 7.67495662,17 8.5,17 C9.32504338,17 10,16.325141 10,15.4997831 C10,14.674859 9.32981492,14 8.5,14" id="Fill-5" fill="#231916"></path>
                </g>
            </g>
        </g>
    </g>
</svg>