<?xml version="1.0" encoding="UTF-8"?>
<svg width="35px" height="30px" viewBox="0 0 35 30" version="1.1" xmlns="http://www.w3.org/2000/svg" xmlns:xlink="http://www.w3.org/1999/xlink">
    <!-- Generator: Sketch 57 (83077) - https://sketch.com -->
    <title>re</title>
    <desc>Created with Sketch.</desc>
    <defs>
        <polygon id="path-1" points="0.00627586207 0.029184 34.7924138 0.029184 34.7924138 29.949744 0.00627586207 29.949744"></polygon>
    </defs>
    <g id="页面1" stroke="none" stroke-width="1" fill="none" fill-rule="evenodd">
        <g id="4.1-点击对应查询的订单的订单详情页面" transform="translate(-270.000000, -77.000000)">
            <g id="re" transform="translate(270.000000, 77.000000)">
                <g id="编组">
                    <path d="M19.74806,15.2306671 L15.0554342,15.2306671 C14.8940579,15.2306671 14.7666685,15.0278376 14.8260843,14.8925416 C15.0725498,14.3161027 15.5992233,13.0517376 15.5862642,13 C15.5481208,13.0121331 15.4801471,13.0359416 15.3823433,13.0954627 C15.0767065,13.286388 14.6818237,13.5011217 14.2231239,13.7476764 L14.0788633,13.8271141 C13.4333583,14.176686 12.6986073,14.5743327 12.0487011,15.0079209 C11.335467,15.4811135 11,15.791081 11,16.1253148 C11.0041567,16.3517238 11.1782474,16.6740534 11.5349867,16.9004624 C12.4946864,17.5128428 15.1446801,18.8172703 15.684068,19.079392 L15.6926259,19.079392 C15.7136537,19.0516918 15.0935777,17.7474932 14.8092131,17.1509088 C14.7412395,17.01195 14.8857446,16.7930956 15.0554342,16.7930956 L19.7607745,16.7894327 C20.5933293,16.8887871 22.1645472,17.5606886 22.1645472,19.0835127 C22.1645472,20.4076279 20.8948095,21.4332219 19.7270322,21.4412344 L14.1211635,21.4412344 C13.6201635,21.4412344 13.2294374,21.7553226 13.2294374,22.2205027 C13.2294374,22.6817911 13.6370347,23 14.1380346,23 L19.74806,23 C19.951981,23 21.7525487,22.9681791 22.9459995,21.854677 C23.6636348,21.1868962 24.0203741,20.2604276 23.9991018,19.1034293 L23.9991018,19.0674878 C23.9991018,19.0555835 24.0458031,17.3656426 22.8398824,16.2205485 C22.1007302,15.5209468 21.0774581,15.2306671 19.74806,15.2306671" id="Fill-1" fill="#231916"></path>
                    <g>
                        <mask id="mask-2" fill="white">
                            <use xlink:href="#path-1"></use>
                        </mask>
                        <g id="Clip-4"></g>
                        <path d="M4.42713793,2.863584 C5.07282759,1.713264 5.78127586,1.659024 6.18365517,1.659024 L28.9732414,1.659024 C29.3758621,1.659024 29.8665862,2.034144 30.0761034,2.363664 L33.0441034,6.957024 L1.77341379,6.948624 L4.42713793,2.863584 Z M0.00410344828,18.261984 L0.00410344828,27.132144 C0.00410344828,28.690944 1.29958621,29.949744 2.90113793,29.949744 L31.8953793,29.949744 C33.496931,29.949744 34.7924138,28.686864 34.7924138,27.132144 L34.7757586,8.224224 C34.7757586,7.173744 34.4737931,6.148464 33.9077586,5.260464 L31.4258966,1.363104 C30.8977586,0.529344 29.9628966,0.029184 28.960931,0.029184 L5.84427586,0.029184 C4.83796552,0.029184 3.91155172,0.533664 3.37906897,1.363104 L0.880551724,5.256384 C0.301965517,6.152544 0,7.186224 0,8.245104 L0,12.405024 L0.00410344828,18.261984 Z M1.67686207,12.400944 L1.67686207,8.586864 L33.1196552,8.586864 L33.1196552,26.515104 C33.1196552,27.140544 32.649931,28.365984 31.2122759,28.365984 L3.49637931,28.365984 C2.85503448,28.365984 1.67686207,27.244704 1.67686207,26.619264 L1.67686207,12.400944 Z" id="Fill-3" fill="#231916" mask="url(#mask-2)"></path>
                    </g>
                </g>
            </g>
        </g>
    </g>
</svg>