<?xml version="1.0" encoding="UTF-8"?>
<svg width="24px" height="17px" viewBox="0 0 24 17" version="1.1" xmlns="http://www.w3.org/2000/svg" xmlns:xlink="http://www.w3.org/1999/xlink">
    <!-- Generator: Sketch 60.1 (88133) - https://sketch.com -->
    <title>编组 5</title>
    <desc>Created with Sketch.</desc>
    <g id="页面-1" stroke="none" stroke-width="1" fill="none" fill-rule="evenodd">
        <g id="1.14收藏夹" transform="translate(-294.000000, -16.000000)" fill="#333333">
            <g id="编组-5" transform="translate(295.000000, 17.000000)">
                <rect id="矩形" x="5" y="0" width="18" height="2" rx="1"></rect>
                <rect id="矩形备份-19" x="5" y="7" width="18" height="2" rx="1"></rect>
                <rect id="矩形备份-20" x="5" y="13" width="18" height="2" rx="1"></rect>
                <g id="编组备份-3" stroke="#333333">
                    <path d="M2.97410877,0.0363777917 C2.9395699,-0.0121259306 2.88364244,-0.0121259306 2.8491208,0.0363777917 L1.20212162,2.70033703 L0.150892125,1.22407155 C0.116370489,1.17556782 0.0604214811,1.17556782 0.0259041535,1.22407155 C-0.00863471783,1.27254501 -0.00863471783,1.35111548 0.0259041535,1.399595 L1.13962764,2.96364641 C1.15689707,2.98789827 1.17946626,3 1.20212162,3 C1.21341484,3 1.22477699,2.99697457 1.23539803,2.9909237 C1.24601908,2.98484864 1.25599813,2.97574814 1.26463284,2.96364641 L2.97410877,0.211895191 C3.00863041,0.163421723 3.00863041,0.0848512597 2.97410877,0.0363777917" id="Fill-1"></path>
                </g>
                <g id="编组备份-4" transform="translate(0.000000, 5.000000)" stroke="#333333">
                    <path d="M2.97410877,0.0363777917 C2.9395699,-0.0121259306 2.88364244,-0.0121259306 2.8491208,0.0363777917 L1.20212162,2.70033703 L0.150892125,1.22407155 C0.116370489,1.17556782 0.0604214811,1.17556782 0.0259041535,1.22407155 C-0.00863471783,1.27254501 -0.00863471783,1.35111548 0.0259041535,1.399595 L1.13962764,2.96364641 C1.15689707,2.98789827 1.17946626,3 1.20212162,3 C1.21341484,3 1.22477699,2.99697457 1.23539803,2.9909237 C1.24601908,2.98484864 1.25599813,2.97574814 1.26463284,2.96364641 L2.97410877,0.211895191 C3.00863041,0.163421723 3.00863041,0.0848512597 2.97410877,0.0363777917" id="Fill-1"></path>
                </g>
                <g id="编组备份-5" transform="translate(0.000000, 12.000000)" stroke="#333333">
                    <path d="M2.97410877,0.0363777917 C2.9395699,-0.0121259306 2.88364244,-0.0121259306 2.8491208,0.0363777917 L1.20212162,2.70033703 L0.150892125,1.22407155 C0.116370489,1.17556782 0.0604214811,1.17556782 0.0259041535,1.22407155 C-0.00863471783,1.27254501 -0.00863471783,1.35111548 0.0259041535,1.399595 L1.13962764,2.96364641 C1.15689707,2.98789827 1.17946626,3 1.20212162,3 C1.21341484,3 1.22477699,2.99697457 1.23539803,2.9909237 C1.24601908,2.98484864 1.25599813,2.97574814 1.26463284,2.96364641 L2.97410877,0.211895191 C3.00863041,0.163421723 3.00863041,0.0848512597 2.97410877,0.0363777917" id="Fill-1"></path>
                </g>
            </g>
        </g>
    </g>
</svg>