<?xml version="1.0" encoding="UTF-8"?>
<svg width="45px" height="33px" viewBox="0 0 45 33" version="1.1" xmlns="http://www.w3.org/2000/svg" xmlns:xlink="http://www.w3.org/1999/xlink">
    <!-- Generator: Sketch 60.1 (88133) - https://sketch.com -->
    <title>Fill 1</title>
    <desc>Created with Sketch.</desc>
    <g id="页面-1" stroke="none" stroke-width="1" fill="none" fill-rule="evenodd">
        <g id="1.14收藏夹" transform="translate(-75.000000, -100.000000)" fill="#FFFFFF">
            <path d="M115.662969,130.5 L79.3388613,130.5 C78.1393614,130.5 77.261996,130.098855 77.0489746,129.459671 C76.8704035,128.923237 77.1877669,128.312044 77.8767714,127.873579 C79.8198633,126.623202 94.9878765,117.936866 97.5057791,116.5 C100.390862,118.151463 115.18711,126.623202 117.125121,127.873579 C117.814187,128.312044 118.126408,128.923237 117.952856,129.459671 C117.739834,130.103404 116.862469,130.5 115.662969,130.5 Z M98.3509525,114.458882 L98.3509525,111.591595 C101.065761,111.184896 103.152079,108.868409 103.152079,106.075715 C103.152079,103.000087 100.613293,100.5 97.4962278,100.5 C94.3790998,100.5 91.8452785,103.000087 91.8452785,106.075715 C91.8452785,106.551922 91.9056705,107.022983 92.0264543,107.484433 C92.1420222,107.935899 92.6094468,108.203518 93.0670052,108.089426 C93.5245635,107.975397 93.801009,107.514196 93.6804765,107.062729 C93.5950103,106.740359 93.5547909,106.408006 93.5547909,106.075715 C93.5547909,103.927761 95.3244438,102.181668 97.5011295,102.181668 C99.6780665,102.181668 101.447719,103.927761 101.447719,106.075715 C101.447719,108.223422 99.6780665,109.969514 97.5011295,109.969514 C97.0285517,109.969514 96.6465933,110.346636 96.6465933,110.81286 L96.6465933,114.458882 C94.2735239,115.882357 78.6836734,125.238028 76.632422,126.626841 C75.3151743,127.514831 74.7220641,128.923486 75.1241951,130.203355 C75.4710244,131.314629 76.6928139,132.5 79.0808399,132.5 L115.921671,132.5 C118.309696,132.5 119.52627,131.314629 119.878315,130.203355 C120.275482,128.91865 119.682183,127.514831 118.364935,126.626841 C116.349064,125.267791 101.171274,116.150223 98.3509525,114.458882 Z" id="Fill-1"></path>
        </g>
    </g>
</svg>