<?xml version="1.0" encoding="UTF-8"?>
<svg width="26px" height="26px" viewBox="0 0 26 26" version="1.1" xmlns="http://www.w3.org/2000/svg" xmlns:xlink="http://www.w3.org/1999/xlink">
    <title>编组 3</title>
    <g id="页面-1" stroke="none" stroke-width="1" fill="none" fill-rule="evenodd">
        <g id="编组-3">
            <rect id="矩形" fill-opacity="0" fill="#D8D8D8" x="0" y="0" width="26" height="26"></rect>
            <g id="aixin-2备份" transform="translate(2.000000, 4.000000)" fill="#151515" fill-rule="nonzero">
                <path d="M10.9996647,19 C10.570488,19 10.1413113,18.8349649 9.81406407,18.5048948 L1.76431859,10.3857107 C-0.588106197,8.01299349 -0.588106197,4.15225517 1.76431859,1.77953793 C4.11674338,-0.59317931 7.94446307,-0.59317931 10.2968879,1.77953793 L11.0023471,2.49108255 L11.7078063,1.77953793 C12.8451245,0.632408957 14.3579724,0.00202911965 15.9727497,0.00202911965 C17.5875271,0.00202911965 19.1030573,0.632408957 20.2376932,1.77953793 C21.3750114,2.9266669 22,4.45256488 22,6.08397707 C22,7.71268378 21.3723291,9.24128725 20.2350108,10.3884162 L12.182583,18.5048948 C11.8580181,18.8349649 11.4288414,19 10.9996647,19 Z M6.02926205,1.89857962 C4.91608498,1.89857962 3.87264913,2.33145847 3.08940165,3.12146239 C1.46925961,4.75558008 1.46925961,7.41507956 3.08940165,9.04919725 L10.9996647,17.0249902 L18.9072454,9.04919725 C19.6904929,8.26189883 20.1223519,7.20946211 20.1223519,6.08397707 C20.1223519,4.96119754 19.6931752,3.90876081 18.9099278,3.12146239 C18.1293626,2.33416397 17.0859268,1.89857962 15.9700674,1.89857962 C14.8542079,1.89857962 13.8134544,2.33145847 13.030207,3.12146239 L11.6622062,4.50126375 C11.2947237,4.87191627 10.7019234,4.87191627 10.3344408,4.50126375 L8.96644009,3.12146239 C8.18587497,2.33145847 7.14243911,1.89857962 6.02926205,1.89857962 L6.02926205,1.89857962 Z" id="形状"></path>
            </g>
        </g>
    </g>
</svg>