<?xml version="1.0" standalone="no"?><!DOCTYPE svg PUBLIC "-//W3C//DTD SVG 1.1//EN" "http://www.w3.org/Graphics/SVG/1.1/DTD/svg11.dtd"><svg t="1618213905920" class="icon" viewBox="0 0 1024 1024" version="1.1" xmlns="http://www.w3.org/2000/svg" p-id="7429" xmlns:xlink="http://www.w3.org/1999/xlink" width="200" height="200"><defs><style type="text/css"></style></defs><path d="M242.81 452.07l-60.49-40.37L64 332.74v358.64l119.29-79.61 60.49-40.36 88.93-59.35z" opacity=".75" p-id="7430"></path><path d="M840.61 611.77H541.09l-29.49 19.68-268.37 179.1H960V611.77z" fill="#002395" opacity=".75" p-id="7431"></path><path d="M368.24 488.35l-54.36-36.28-60.48-40.37L64 285.31v47.43l118.32 78.96 60.49 40.37 89.9 59.99-88.93 59.35-60.49 40.36L64 691.38v47.43l190.37-127.04 60.48-40.36 53.39-35.63 35.54-23.72z" fill="#FFB612" opacity=".75" p-id="7432"></path><path d="M851.24 213.45h-607.5l268.21 178.99 28.86 19.26H960V213.45z" fill="#DE3831" opacity=".75" p-id="7433"></path><path d="M840.88 411.7H540.81l-28.86-19.26-268.21-178.99h-71.07L469.74 411.7l6.67 4.46 35.54 23.71 18.27 12.2H960V411.7z" fill="#FFFFFF" opacity=".75" p-id="7434"></path><path d="M780.4 452.07H530.22l-18.27-12.2-35.54-23.71-6.67-4.46-297.07-198.25H64v71.86L253.4 411.7l60.48 40.37 54.36 36.28 35.54 23.71-35.54 23.72-53.39 35.63-60.48 40.36L64 738.81v71.74h108.15l297.86-198.78 6.06-4.04 35.53-23.71 18.9-12.61H960V452.07z" fill="#007A4D" opacity=".75" p-id="7435"></path><path d="M780.13 571.41H530.5l-18.9 12.61-35.53 23.71-6.06 4.04-297.86 198.78h71.08l268.37-179.1 29.49-19.68H960v-40.36z" fill="#FFFFFF" opacity=".75" p-id="7436"></path><path d="M196.64 229.45l-23.97-16H64v16z" fill="#007A4D" p-id="7437"></path><path d="M267.71 229.45l-23.97-16h-71.07l23.97 16z" fill="#EEEEEE" p-id="7438"></path><path d="M960 229.45v-16H243.74l23.97 16z" fill="#DE3831" p-id="7439"></path><path d="M944 411.7h16V213.45h-16z" fill="#DE3831" p-id="7440"></path><path d="M944 411.7h16v40.36h-16z" fill="#EEEEEE" p-id="7441"></path><path d="M944 452.07h16v119.34h-16z" fill="#007A4D" p-id="7442"></path><path d="M944 571.41h16v40.36h-16z" fill="#EEEEEE" p-id="7443"></path><path d="M944 810.55h16V611.77h-16z" fill="#002395" p-id="7444"></path><path d="M267.2 794.55l-23.97 16H960v-16z" fill="#002395" p-id="7445"></path><path d="M196.13 794.55l-23.98 16h71.08l23.97-16z" fill="#EEEEEE" p-id="7446"></path><path d="M64 794.55v16h108.15l23.98-16z" fill="#007A4D" p-id="7447"></path><path d="M80 728.14l-16 10.67v71.74h16zM80 213.45H64v71.86l16 10.68z" fill="#007A4D" p-id="7448"></path><path d="M80 295.99l-16-10.68v47.43l16 10.68zM80 680.71l-16 10.67v47.43l16-10.67z" fill="#FFB612" p-id="7449"></path><path d="M80 343.42l-16-10.68v358.64l16-10.67z" p-id="7450"></path></svg>