<?xml version="1.0" encoding="UTF-8"?>
<svg width="37px" height="37px" viewBox="0 0 37 37" version="1.1" xmlns="http://www.w3.org/2000/svg" xmlns:xlink="http://www.w3.org/1999/xlink">
    <!-- Generator: Sketch 60.1 (88133) - https://sketch.com -->
    <title>twitter</title>
    <desc>Created with Sketch.</desc>
    <g id="twitter-1" stroke="none" stroke-width="1" fill="none" fill-rule="evenodd">
        <g id="1.15About-Cookies" transform="translate(-116.000000, -1020.000000)" fill="#2FCEFC" fill-rule="nonzero">
            <g id="twitter-4" transform="translate(63.000000, 1020.000000)">
                <g id="twitter" transform="translate(53.000000, 0.000000)">
                    <path d="M18.5,0 C8.25384615,0 0,8.25384615 0,18.5 C0,28.7461539 8.25384615,37 18.5,37 C28.7461539,37 37,28.7461539 37,18.5 C37,8.25384615 28.7461539,0 18.5,0 Z M27.4653846,13.2346154 C27.3230769,13.3769231 27.3230769,13.5192308 27.1807692,13.5192308 C26.8961539,13.8038461 26.6115385,13.9461539 26.3269231,14.0884615 C26.1846154,14.0884615 26.1846154,14.2307692 26.1846154,14.3730769 C26.3269231,15.9384615 26.0423077,17.5038461 25.4730769,19.0692308 C24.4769231,21.7730769 22.3423077,23.9076923 19.7807692,25.1884615 C17.6461539,26.4692308 15.0846154,26.8961538 12.8076923,26.3269231 C11.6692308,26.1846154 10.6730769,25.7576923 9.81923076,25.1884615 L9.67692309,25.0461539 C9.67692309,24.9038461 9.8192308,24.7615385 9.96153847,24.7615385 C10.6730769,24.7615385 11.3846154,24.6192308 12.0961539,24.3346154 C12.8076923,24.05 13.5192308,23.6230769 14.0884615,23.1961539 L14.2307692,23.0538461 C14.2307692,22.9115384 14.2307692,22.7692308 14.0884615,22.7692308 C13.5192308,22.6269231 13.0923077,22.3423077 12.6653846,22.0576923 C12.0961539,21.7730769 11.6692308,21.2038461 11.3846154,20.6346154 L11.3846154,20.4923077 C11.3846154,20.35 11.5269231,20.2076923 11.6692308,20.2076923 L12.0961539,20.2076923 C12.2384616,20.2076923 12.2384616,20.2076923 12.2384615,20.0653846 C12.3807692,19.9230769 12.2384615,19.7807692 12.0961539,19.6384615 C11.5269231,19.3538461 11.1,18.9269231 10.6730769,18.5 C10.1038461,17.9307692 9.81923076,17.2192308 9.81923076,16.5076923 L9.81923076,16.3653846 C9.81923076,16.2230769 10.1038461,16.2230769 10.1038461,16.2230769 C10.2461539,16.2230769 10.3884615,16.3653846 10.5307692,16.3653846 L10.8153846,16.3653846 C10.9576923,16.3653846 10.9576923,16.3653846 11.1,16.2230769 C11.2423077,16.0807692 11.2423077,15.9384615 11.1,15.7961539 C10.5307692,15.2269231 10.1038461,14.5153846 9.96153847,13.6615385 C9.81923076,12.95 9.96153847,12.0961539 10.2461539,11.3846154 L10.2461539,11.2423077 C9.96153847,11.3846154 10.1038461,11.3846154 10.2461539,11.5269231 C11.2423077,12.5230769 12.2384616,13.3769231 13.5192308,14.0884615 C14.9423077,14.8 16.5076923,15.2269231 18.0730769,15.2269231 C18.2153846,15.2269231 18.3576923,15.0846154 18.3576923,14.9423077 C18.3576923,14.0884616 18.6423077,11.2423077 21.2038461,10.5307692 C22.4846154,10.1038461 24.05,10.3884615 25.0461539,11.5269231 C25.0461539,11.5269231 25.1884616,11.6692308 25.3307692,11.6692308 C25.6153846,11.6692308 25.9,11.5269231 26.3269231,11.5269231 C26.6115385,11.3846154 26.8961539,11.3846154 27.1807692,11.2423077 L27.4653846,11.2423077 C27.6076923,11.2423077 27.6076923,11.5269231 27.6076923,11.6692308 C27.4653846,11.9538461 27.1807692,12.2384615 26.8961539,12.5230769 L26.7538461,12.6653846 C26.6115384,12.6653846 26.6115384,12.8076923 26.6115385,12.95 C26.6115385,13.0923077 26.7538462,13.2346154 26.8961539,13.2346154 C27.0384615,13.2346154 27.1807692,13.2346154 27.4653846,13.0923077 L27.75,13.0923077 C27.6076923,12.95 27.6076923,13.2346154 27.4653846,13.2346154 L27.4653846,13.2346154 Z" id="形状"></path>
                </g>
            </g>
        </g>
    </g>
</svg>